<svg width="2501" height="220" viewBox="0 0 2501 220" fill="none" xmlns="http://www.w3.org/2000/svg">
<path d="M8.57392e-05 168.706C-0.000372094 199.854 0.000256059 217.352 0.000256059 217.352L2501 220C2501 220 2501 204.919 2501 172.046C2501 139.174 2497.08 119.411 2470.9 112.873C2462.12 110.682 2456.27 110.152 2447.66 112.873C2438.49 115.77 2433.46 121.212 2428.2 127.348C2423.93 115.739 2415.88 105.711 2405.21 98.7074C2394.54 91.7035 2381.8 88.0845 2368.82 88.3707C2355.84 88.657 2343.29 92.8339 2332.97 100.301C2322.66 107.767 2315.11 118.139 2311.42 129.924C2307.18 125.762 2302.07 122.499 2296.4 120.349C2290.74 118.2 2284.66 117.214 2278.56 117.456C2272.47 117.699 2266.5 119.164 2261.04 121.755C2255.59 124.346 2250.78 128.005 2246.93 132.488C2246.7 123.297 2243.88 114.333 2238.75 106.526C2233.62 98.7203 2226.38 92.3578 2217.78 88.1011C2209.17 83.8444 2199.52 81.8489 2189.82 82.3224C2180.12 82.7958 2170.74 85.7208 2162.64 90.793C2162.64 89.6443 2162.73 88.4834 2162.73 87.3225C2162.71 69.3371 2156.1 51.9154 2144.04 38.0195C2131.98 24.1235 2115.21 14.6112 2096.58 11.0999C2077.95 7.58854 2058.61 10.295 2041.85 18.7589C2025.09 27.2229 2011.95 40.922 2004.65 57.5269C1988.93 51.0787 1971.23 50.4017 1955.01 55.628C1938.79 60.8542 1925.21 71.6094 1916.91 85.7989C1908.84 84.0138 1900.37 84.8286 1892.85 88.1142C1885.33 91.3998 1879.18 96.9683 1875.37 103.937C1868.3 99.7051 1860.36 96.9253 1852.07 95.7775C1843.79 94.6297 1835.34 95.1394 1827.28 97.2736C1819.22 99.4079 1811.72 103.119 1805.26 108.168C1798.81 113.217 1793.54 119.492 1789.81 126.586C1786.07 118.399 1780.23 111.232 1772.8 105.744C1765.38 100.256 1756.62 96.6223 1747.32 95.1775C1738.03 93.7328 1728.5 94.523 1719.61 97.4757C1710.72 100.428 1702.76 105.449 1696.46 112.076C1692.75 104.791 1687.43 98.3414 1680.87 93.1603C1674.31 87.9793 1666.66 84.1863 1658.42 82.0357C1650.19 79.885 1641.56 79.4265 1633.12 80.6908C1624.69 81.9551 1616.63 84.913 1609.5 89.3661C1609.5 88.0843 1609.6 86.8026 1609.6 85.5208C1609.54 65.7104 1602.23 46.5317 1588.93 31.2412C1575.63 15.9507 1557.15 5.49093 1536.62 1.63811C1516.1 -2.2147 1494.8 0.77689 1476.34 10.1049C1457.88 19.4329 1443.4 34.5223 1435.36 52.8109C1424.88 48.5132 1413.5 46.5078 1402.09 46.9436C1390.67 47.3794 1379.51 50.2453 1369.42 55.3283C1359.34 60.4113 1350.59 67.5808 1343.83 76.304C1337.08 85.0272 1332.48 95.0798 1330.39 105.715C1324.1 102.237 1316.98 100.327 1309.69 100.164C1302.41 100.001 1295.19 101.591 1288.73 104.784C1285.25 93.9029 1278.19 84.3615 1268.57 77.5545C1258.95 70.7475 1247.29 67.0318 1235.28 66.9508C1223.27 66.8697 1211.55 70.4275 1201.83 77.1039C1192.12 83.7804 1184.91 93.2255 1181.26 104.058C1171.75 99.2548 1161.05 96.9698 1150.28 97.4444C1139.52 97.919 1129.09 101.136 1120.09 106.755C1120.09 105.473 1120.18 104.203 1120.18 102.922C1120.17 83.0834 1112.9 63.8608 1099.61 48.5267C1086.31 33.1926 1067.82 22.6949 1047.27 18.8211C1026.72 14.9472 1005.39 17.9365 986.905 27.2802C968.423 36.6238 953.932 51.7441 945.899 70.0667C927.766 62.6241 907.285 62.1594 888.797 68.7711C870.309 75.3827 855.266 88.5511 846.857 105.485C836.062 102.162 824.459 102.007 813.569 105.039C802.679 108.071 793.012 114.149 785.835 122.475C781.558 110.872 773.507 100.851 762.838 93.8529C752.168 86.8545 739.431 83.2386 726.455 83.5248C713.479 83.811 700.933 87.9845 690.619 95.4457C680.306 102.907 672.755 113.272 669.054 125.051C664.556 120.633 659.064 117.234 652.987 115.104C646.909 112.975 640.402 112.171 633.951 112.752C627.5 113.333 621.27 115.284 615.726 118.46C610.181 121.636 605.465 125.956 601.927 131.097C598.735 123.155 593.698 115.993 587.19 110.142C580.681 104.29 572.867 99.8986 564.325 97.2912C555.782 94.6838 546.73 93.9273 537.838 95.0777C528.945 96.2281 520.44 99.2559 512.949 103.937C513.013 102.668 513.051 101.386 513.051 100.104C512.966 80.2967 505.65 61.1263 492.344 45.8422C479.037 30.5581 460.558 20.1005 440.039 16.2419C419.52 12.3833 398.223 15.3611 379.758 24.6705C361.292 33.98 346.795 49.0483 338.722 67.3217C328.037 62.9409 316.432 60.9422 304.803 61.4798C293.173 62.0174 281.829 65.077 271.646 70.4225C261.462 75.768 252.712 83.2567 246.069 92.311C239.426 101.365 235.069 111.743 233.332 122.644C228.444 119.634 222.962 117.595 217.218 116.649C211.473 115.704 205.585 115.872 199.911 117.144C194.238 118.416 188.895 120.765 184.208 124.049C179.521 127.332 175.586 131.483 172.643 136.248C166.209 128.45 157.777 122.338 148.147 118.493C138.517 114.649 128.008 113.2 117.62 114.283C107.232 115.366 97.3084 118.946 88.7926 124.682C80.2768 130.419 73.4513 138.122 68.9646 147.059C62.6729 141.494 54.7634 137.843 46.2579 136.578C37.7525 135.312 0.000543572 137.558 8.57392e-05 168.706Z" fill="white"/>
</svg>
