<svg width="2058" height="191" viewBox="0 0 2058 191" fill="none" xmlns="http://www.w3.org/2000/svg">
<path d="M0.794016 146.468C0.793639 173.51 0.794156 188.701 0.794156 188.701L2057.62 191C2057.62 191 2057.62 177.907 2057.62 149.368C2057.62 120.828 2054.4 103.671 2032.86 97.9945C2025.65 96.0919 2020.83 95.6318 2013.75 97.9945C2006.21 100.51 2002.08 105.234 1997.75 110.561C1994.23 100.482 1987.62 91.7766 1978.84 85.696C1970.06 79.6153 1959.59 76.4733 1948.91 76.7219C1938.24 76.9704 1927.92 80.5967 1919.43 87.0791C1910.95 93.5616 1904.74 102.566 1901.71 112.798C1898.23 109.184 1894.02 106.351 1889.36 104.485C1884.7 102.619 1879.7 101.763 1874.69 101.973C1869.68 102.184 1864.76 103.456 1860.28 105.706C1855.79 107.955 1851.84 111.131 1848.67 115.023C1848.49 107.044 1846.16 99.2614 1841.95 92.4843C1837.73 85.7071 1831.77 80.1834 1824.7 76.4878C1817.62 72.7922 1809.68 71.0598 1801.71 71.4708C1793.73 71.8818 1786.01 74.4212 1779.35 78.8249C1779.35 77.8275 1779.43 76.8197 1779.43 75.8118C1779.41 60.1972 1773.97 45.072 1764.06 33.0078C1754.14 20.9436 1740.35 12.6852 1725.03 9.63671C1709.7 6.58823 1693.8 8.93789 1680.02 16.2862C1666.23 23.6344 1655.42 35.5277 1649.42 49.9438C1636.49 44.3456 1621.94 43.7579 1608.6 48.2952C1595.26 52.8325 1584.09 62.17 1577.26 74.489C1570.63 72.9393 1563.66 73.6467 1557.48 76.4992C1551.29 79.3516 1546.23 84.1861 1543.1 90.2366C1537.28 86.5622 1530.75 84.1488 1523.94 83.1523C1517.13 82.1558 1510.18 82.5983 1503.55 84.4512C1496.92 86.3041 1490.75 89.5263 1485.44 93.9098C1480.13 98.2932 1475.81 103.741 1472.73 109.9C1469.66 102.792 1464.85 96.57 1458.75 91.8052C1452.64 87.0403 1445.44 83.8858 1437.79 82.6314C1430.15 81.3771 1422.31 82.0632 1415.01 84.6267C1407.7 87.1902 1401.15 91.5488 1395.97 97.302C1392.91 90.9773 1388.54 85.3782 1383.15 80.8801C1377.75 76.382 1371.46 73.089 1364.68 71.2219C1357.91 69.3547 1350.82 68.9566 1343.88 70.0543C1336.94 71.1519 1330.31 73.7199 1324.45 77.5861C1324.45 76.4732 1324.53 75.3604 1324.53 74.2476C1324.48 57.0486 1318.47 40.398 1307.53 27.123C1296.59 13.8481 1281.39 4.76712 1264.52 1.42218C1247.64 -1.92277 1230.12 0.674481 1214.94 8.77289C1199.76 16.8713 1187.85 29.9717 1181.24 45.8495C1172.62 42.1183 1163.26 40.3772 1153.87 40.7556C1144.49 41.134 1135.3 43.6221 1127.01 48.0351C1118.71 52.448 1111.52 58.6724 1105.97 66.2457C1100.41 73.819 1096.63 82.5466 1094.91 91.7799C1089.74 88.7601 1083.88 87.1021 1077.89 86.9607C1071.89 86.8193 1065.96 88.1993 1060.65 90.9715C1057.79 81.5248 1051.98 73.2411 1044.07 67.3314C1036.16 61.4217 1026.57 58.1958 1016.69 58.1254C1006.82 58.0551 997.177 61.1438 989.185 66.9402C981.192 72.7366 975.263 80.9367 972.266 90.3416C964.445 86.1712 955.644 84.1875 946.789 84.5995C937.935 85.0115 929.355 87.8041 921.956 92.6827C921.956 91.5699 922.029 90.4676 922.029 89.3547C922.023 72.1315 916.045 55.4428 905.112 42.13C894.18 28.8172 878.969 19.7033 862.069 16.3401C845.17 12.9769 827.627 15.5722 812.426 23.6841C797.226 31.7961 785.309 44.9233 778.703 60.8306C763.79 54.3691 746.947 53.9656 731.742 59.7058C716.537 65.4459 704.166 76.8785 697.25 91.5804C688.373 88.6955 678.83 88.5603 669.874 91.1926C660.919 93.8249 652.968 99.1017 647.066 106.331C643.549 96.2571 636.927 87.5573 628.153 81.4814C619.378 75.4055 608.903 72.2662 598.231 72.5147C587.56 72.7632 577.242 76.3866 568.76 82.8643C560.278 89.3419 554.069 98.3404 551.025 108.567C547.326 104.732 542.809 101.78 537.811 99.9313C532.813 98.0826 527.462 97.3845 522.156 97.889C516.851 98.3934 511.727 100.087 507.168 102.845C502.608 105.603 498.729 109.353 495.82 113.816C493.194 106.921 489.052 100.703 483.7 95.623C478.347 90.543 471.921 86.7302 464.895 84.4665C457.87 82.2027 450.426 81.546 443.113 82.5447C435.799 83.5435 428.804 86.1722 422.644 90.2366C422.696 89.1343 422.728 88.0214 422.728 86.9086C422.658 69.7121 416.642 53.0687 405.698 39.7994C394.755 26.53 379.558 17.4509 362.683 14.1009C345.808 10.751 328.293 13.3362 313.107 21.4185C297.921 29.5008 285.998 42.5829 279.359 58.4475C270.572 54.6441 261.028 52.9089 251.464 53.3756C241.9 53.8424 232.57 56.4986 224.196 61.1395C215.821 65.7804 208.625 72.2819 203.162 80.1427C197.699 88.0034 194.115 97.0134 192.687 106.478C188.667 103.864 184.158 102.094 179.434 101.273C174.71 100.452 169.868 100.598 165.201 101.703C160.535 102.807 156.142 104.846 152.287 107.697C148.432 110.548 145.196 114.151 142.775 118.288C137.485 111.518 130.55 106.212 122.63 102.874C114.71 99.5362 106.068 98.2778 97.5249 99.2182C88.9815 100.159 80.8205 103.267 73.8171 108.247C66.8137 113.227 61.2004 119.915 57.5105 127.674C52.3362 122.842 45.8315 119.673 38.8365 118.574C31.8416 117.476 0.794392 119.425 0.794016 146.468Z" fill="white"/>
</svg>
