<svg width="279" height="50" viewBox="0 0 279 50" fill="none" xmlns="http://www.w3.org/2000/svg">
<path d="M189.839 7.87333L181.496 10.5846C181.478 10.2673 181.478 9.94936 181.496 9.63215C181.542 9.24705 181.494 8.8567 181.357 8.49384C181.221 8.13097 180.999 7.80615 180.711 7.54659C179.893 6.64118 178.879 5.93445 177.747 5.48026C176.614 5.02607 175.393 4.83641 174.176 4.92574C173.072 4.96692 171.99 5.24163 171 5.73173C170.01 6.22183 169.136 6.91621 168.434 7.76905C168.204 8.01168 168.03 8.30175 167.924 8.61883C167.819 8.93592 167.784 9.27231 167.822 9.60434C167.822 9.89632 167.822 10.1883 167.822 10.5846L166.042 10.0562C166.044 10.3485 166.089 10.6389 166.175 10.9182C166.283 11.0775 166.346 11.2636 166.356 11.4562C166.365 11.6487 166.322 11.8402 166.23 12.0097C166.334 13.1359 166.425 14.0952 166.494 15.0685C166.494 15.1658 166.536 15.2423 166.272 15.3605C165.954 15.4748 165.611 15.5036 165.278 15.4439C164.979 15.4091 164.812 15.1728 164.888 14.7487C165.028 13.9354 165.132 13.1081 165.236 12.2878C165.236 12.2043 165.083 12.0653 165.034 11.8776C164.993 11.7016 164.993 11.5183 165.034 11.3423C165.061 11.1495 165.118 10.9619 165.201 10.7862C165.28 10.6356 165.326 10.4695 165.333 10.2995C165.333 8.33215 165.333 6.36478 165.333 4.40435C165.333 3.79954 165.5 3.55622 165.98 3.54927C168.191 3.54927 170.109 2.31184 172.077 1.26211C172.821 0.858903 173.564 0.441791 174.322 0.0802941C174.43 0.0274604 174.549 0 174.67 0C174.79 0 174.909 0.0274604 175.017 0.0802941C179.884 2.62468 184.75 5.18528 189.616 7.7621C189.692 7.79542 189.766 7.83255 189.839 7.87333V7.87333Z" fill="#161F32"/>
<path d="M180.488 10.2998C180.377 11.8917 180.488 13.5115 180.488 15.1174V15.8126C176.609 13.4907 172.779 13.3377 168.914 15.8126C168.914 15.4998 168.914 15.2981 168.914 15.1174C168.914 13.2613 168.914 11.3982 168.914 9.55591C168.927 9.18539 169.051 8.82726 169.268 8.52704C170.224 7.29174 171.603 6.45456 173.14 6.17731C174.199 5.92431 175.302 5.92072 176.363 6.16682C177.423 6.41293 178.412 6.90201 179.251 7.59549L179.383 7.69281C179.784 7.98852 180.098 8.38646 180.292 8.84506C180.487 9.30365 180.555 9.80606 180.488 10.2998Z" fill="#161F32"/>
<path d="M164.513 5.18994V9.514L159.417 7.87336L164.513 5.18994Z" fill="#161F32"/>
<path d="M180.342 39.4833C180.357 39.4844 180.371 39.4889 180.383 39.4963C180.395 39.5038 180.405 39.5141 180.413 39.5263C180.42 39.5385 180.425 39.5523 180.426 39.5666C180.427 39.5809 180.424 39.5952 180.419 39.6084L177.812 44.3913L177.666 44.6694C177.454 45.1473 177.157 45.583 176.79 45.9555C176.449 46.2197 176.011 46.2336 175.052 46.2544C174.313 46.2684 173.574 46.2266 172.841 46.1293C172.665 46.1042 172.497 46.0349 172.355 45.9277C172.287 45.8775 172.23 45.8135 172.188 45.74C171.145 43.8908 169.199 40.248 168.879 39.5667C168.873 39.5561 168.871 39.5441 168.872 39.5321C168.873 39.5201 168.877 39.5087 168.884 39.4991C168.892 39.4896 168.902 39.4824 168.913 39.4783C168.924 39.4743 168.937 39.4736 168.948 39.4764C169.655 39.5269 170.364 39.4294 171.031 39.1899C171.698 38.9505 172.307 38.5745 172.821 38.086C174.127 37.0363 175.226 37.0641 176.554 38.086C177.356 38.8464 178.378 39.3331 179.473 39.4764C179.745 39.4972 180.016 39.4903 180.342 39.4833Z" fill="#161F32"/>
<path d="M176.116 47.4712C175.692 48.2637 175.275 49.0284 174.809 49.8904C174.79 49.9237 174.763 49.9514 174.73 49.9706C174.697 49.9899 174.659 50.0001 174.621 50.0001C174.583 50.0001 174.545 49.9899 174.512 49.9706C174.479 49.9514 174.452 49.9237 174.433 49.8904C173.968 49.0354 173.537 48.2568 173.113 47.4712H176.116Z" fill="#161F32"/>
<path d="M180.426 18.6765V36.0561C180.302 36.1976 180.14 36.3012 179.96 36.3551C179.581 36.4883 179.176 36.5343 178.777 36.4898C178.377 36.4453 177.993 36.3113 177.652 36.0978C177.288 35.9401 176.984 35.6703 176.784 35.3277C176.584 34.9851 176.498 34.5876 176.54 34.193C176.602 29.7299 176.54 25.2529 176.582 20.7829C176.582 20.5118 176.582 18.6348 176.582 18.6348H180.259L180.426 18.6765Z" fill="#F5C231"/>
<path d="M168.893 18.6765V36.0561C169.017 36.1976 169.178 36.3012 169.359 36.3551C169.739 36.4894 170.145 36.536 170.546 36.4915C170.946 36.4469 171.332 36.3124 171.674 36.0978C172.038 35.9401 172.342 35.6703 172.542 35.3277C172.742 34.9851 172.827 34.5876 172.786 34.193C172.723 29.7299 172.786 25.2529 172.744 20.7829C172.744 20.5118 172.744 18.6348 172.744 18.6348H169.067L168.893 18.6765Z" fill="#F5C231"/>
<path fill-rule="evenodd" clip-rule="evenodd" d="M108.502 43.3137C110.398 44.1669 112.457 44.6009 114.536 44.5859C119.917 44.5859 123.812 43.8768 126.222 42.4586C126.432 42.1309 126.574 41.7645 126.639 41.3811C126.813 40.7276 126.994 39.9699 127.195 39.1078C127.397 38.2458 127.557 37.4324 127.689 36.7372C127.782 36.2781 127.847 35.8138 127.884 35.3469L127.64 35.2009C127.434 35.0919 127.211 35.019 126.98 34.9854C126.751 34.9409 126.518 34.9153 126.285 34.9089C126.118 34.9089 125.965 35.18 125.791 35.7431C125.617 36.3062 125.388 36.9458 125.096 37.6966C124.824 38.43 124.41 39.1031 123.879 39.6779C122.137 41.5688 119.643 42.5142 116.399 42.5142C113.888 42.5762 111.426 41.8118 109.392 40.3383C107.462 38.9464 105.962 37.0413 105.061 34.8394C104.111 32.5295 103.638 30.0513 103.67 27.5538C103.669 25.8148 103.968 24.0886 104.553 22.4512C105.117 20.845 105.952 19.3473 107.021 18.0228C108.027 16.7407 109.277 15.6704 110.699 14.8736C112.075 14.1123 113.623 13.7151 115.197 13.7196C117.03 13.6661 118.854 14.0001 120.549 14.6998C121.893 15.2679 123.051 16.1997 123.893 17.3902C124.261 17.9301 124.564 18.511 124.797 19.1212C124.943 19.5661 125.068 19.9972 125.166 20.4212C125.242 20.5135 125.341 20.5844 125.453 20.627C125.565 20.6697 125.687 20.6826 125.805 20.6645C126.486 20.6645 126.827 20.4212 126.827 19.9276L126.924 12.8924C124.938 12.4722 122.931 12.1612 120.911 11.9608C118.923 11.7662 116.969 11.6688 115.051 11.6688C112.894 11.6537 110.76 12.1042 108.794 12.9897C106.87 13.8594 105.134 15.0969 103.684 16.6325C102.21 18.1933 101.049 20.0222 100.264 22.0201C99.4418 24.0976 99.0264 26.3137 99.0404 28.5479C99.0273 32.7558 100.65 36.8041 103.566 39.8378C104.972 41.3031 106.648 42.4833 108.502 43.3137ZM19.539 44.4886H22.7438C22.842 43.8469 22.9932 43.2144 23.1956 42.5977C23.4251 41.8469 23.6336 41.1795 23.8283 40.5955C23.9604 40.2271 24.1272 39.7613 24.3218 39.2052C24.3534 39.115 24.385 39.024 24.4167 38.9328L24.4167 38.9326L24.4168 38.9325C24.5803 38.4616 24.7461 37.9838 24.9267 37.5645C25.1147 37.1277 25.2551 36.7439 25.3525 36.4776L25.3525 36.4776L25.3924 36.3688C25.0327 36.1281 24.5986 36.0245 24.1689 36.0768C23.7657 36.0768 23.5363 36.1742 23.4737 36.3688C23.1592 37.5038 22.674 38.5844 22.0347 39.5736C21.6363 40.2681 21.0847 40.8625 20.4219 41.3116C19.3165 41.8677 17.2588 42.1458 14.2625 42.1458H11.9197C9.79941 42.1458 8.69406 41.979 8.59673 41.6522C8.22885 40.1994 8.07891 38.6999 8.15181 37.203V29.6325C8.15181 29.3335 9.32668 29.1875 11.6695 29.1875C14.6727 29.1875 16.3967 29.3196 16.8555 29.5838C16.9999 29.6733 17.1391 29.7708 17.2727 29.8758C17.4375 30.1123 17.5598 30.3758 17.6342 30.6544C17.6613 30.7439 17.6884 30.8409 17.7176 30.9453L17.7179 30.9461L17.7179 30.9463L17.7179 30.9463C17.7635 31.1091 17.814 31.2898 17.8775 31.4886C17.9741 31.7914 18.0767 32.1479 18.1964 32.5638L18.1965 32.5641L18.1966 32.5647L18.1968 32.5653L18.1969 32.5657L18.197 32.5659L18.197 32.5659L18.2251 32.6635C18.3085 32.9207 18.5796 33.0528 19.0037 33.0528C19.2803 33.0824 19.5584 33.0134 19.7892 32.8581V23.6191C19.5535 23.4324 19.2542 23.3451 18.955 23.3758C18.4962 23.3758 18.2251 23.487 18.2251 23.7164C18.093 24.1752 17.94 24.7453 17.7593 25.4474C17.5785 26.1496 17.3283 26.5319 17.0015 26.6014C16.4801 26.7266 16.1256 26.8309 15.9518 26.8934C15.6593 26.9857 15.3548 27.0349 15.0481 27.0394H12.7957H10.2096C8.81919 27.0394 8.12401 26.9421 8.12401 26.7474V18.9266C8.12401 17.9464 8.15182 17.1122 8.20048 16.4309C8.24914 15.7496 8.30476 15.2073 8.36732 14.818C8.39977 14.3963 9.83417 14.1854 12.6705 14.1854H15.9518C17.2116 14.1111 18.4692 14.365 19.6015 14.9223C20.4775 15.4298 21.1657 16.5769 21.6523 18.3635C21.694 18.5929 21.9235 18.7111 22.3475 18.7111C22.6619 18.7431 22.9768 18.6563 23.2304 18.4678C23.2089 18.3432 23.1715 18.1761 23.1198 17.9451L23.1197 17.9449C23.0878 17.8022 23.0504 17.6353 23.0079 17.4389C22.9755 17.2887 22.943 17.1284 22.9084 16.9579C22.8247 16.5444 22.7287 16.0706 22.5908 15.5341C22.3962 14.7763 22.2363 14.0881 22.1042 13.4485C21.9721 12.809 21.8748 12.2667 21.8122 11.8079C21.4049 11.8079 20.9599 11.8176 20.4681 11.8284C19.8605 11.8417 19.1812 11.8565 18.4128 11.8565L13.6507 12.0025C12.7537 12.0369 11.9315 12.0594 11.1756 12.08L11.1756 12.08L11.1756 12.08C10.4025 12.1012 9.69881 12.1204 9.05556 12.1485C7.78337 12.2041 6.77535 12.2041 6.02455 12.2041C5.64487 12.2041 5.2741 12.2058 4.91225 12.2073C4.21401 12.2104 3.54895 12.2133 2.91706 12.2041C1.95771 12.1902 1.05396 12.1624 0.205838 12.1277C0.0431289 12.3735 -0.0259439 12.6695 0.0111854 12.9619C0.0111854 13.3512 0.0737521 13.5458 0.205838 13.5458C0.608 13.5583 1.00821 13.6072 1.40156 13.6918C1.87473 13.7871 2.33963 13.9196 2.79193 14.0881C3.23685 14.248 3.48712 14.4287 3.54968 14.6234C3.70393 15.1815 3.79488 15.7551 3.82081 16.3335C3.89032 17.0496 3.89032 17.8838 3.89032 18.8293V37.3073C3.89496 40.0093 3.78141 41.5387 3.54968 41.8955C3.35485 42.1674 3.06854 42.3599 2.74327 42.4378C2.28792 42.6026 1.82374 42.7418 1.35289 42.8549C0.961556 42.9537 0.560621 43.0097 0.157174 43.0217C0.0598484 43.0217 0.0111854 43.2372 0.0111854 43.6613C-0.0247496 43.9298 0.0264225 44.2027 0.157174 44.4399L6.10102 44.3426H10.008C11.4586 44.3565 13.0807 44.3797 14.8743 44.4121L19.539 44.4886ZM28.1663 43.7448C28.1406 43.9861 28.1917 44.2294 28.3123 44.44L34.2561 44.3079C34.4658 44.3079 34.6834 44.3065 34.9091 44.305H34.9092H34.9094H34.9096H34.9097H34.9099H34.9101C35.3874 44.3018 35.9009 44.2984 36.4529 44.3079C36.7761 44.3134 37.1125 44.3255 37.4621 44.3381L37.4625 44.3381L37.4629 44.3381H37.4629H37.463H37.4631H37.4632H37.4632H37.4633C37.9931 44.3572 38.553 44.3774 39.1433 44.3774L42.6192 44.4747C45.7676 44.6405 48.8992 43.9178 51.6566 42.3892C54.1273 40.9795 56.1437 38.8931 57.4684 36.3758C58.8319 33.7688 59.527 30.8642 59.4914 27.9224C59.5169 25.1855 58.8267 22.4894 57.4892 20.1015C56.1277 17.6936 54.132 15.7051 51.7192 14.3523C48.934 12.8355 45.7962 12.0847 42.6261 12.1764H41.2358H38.893L34.1588 12.2042C33.7791 12.2042 33.4083 12.2058 33.0465 12.2074C32.3482 12.2104 31.6832 12.2134 31.0513 12.2042C30.0919 12.1903 29.1882 12.1625 28.3401 12.1277C28.1774 12.3735 28.1083 12.6695 28.1454 12.9619C28.1454 13.3513 28.208 13.5459 28.3401 13.5459C28.7422 13.5584 29.1424 13.6073 29.5358 13.6919C30.009 13.7872 30.4739 13.9197 30.9262 14.0882C31.3711 14.248 31.6213 14.4288 31.6839 14.6234C31.8382 15.1815 31.9291 15.7552 31.955 16.3336C32.0245 17.0496 32.0245 17.8839 32.0245 18.8293V37.3352C32.0245 40.0371 31.911 41.5665 31.6839 41.9234C31.4891 42.1953 31.2028 42.3878 30.8775 42.4656C30.4221 42.6304 29.958 42.7697 29.4871 42.8828C29.1026 42.9801 28.7087 43.036 28.3123 43.0496C28.2149 43.0496 28.1663 43.2813 28.1663 43.7448ZM54.6111 27.6721C54.6111 37.3537 50.8641 42.1945 43.37 42.1945C43.0145 42.1945 42.6053 42.1652 42.0728 42.1271L42.0728 42.1271C41.97 42.1197 41.8626 42.112 41.7502 42.1041C41.055 42.0555 40.3598 41.9929 39.6646 41.9095C39.0645 41.8426 38.4682 41.7451 37.878 41.6175C37.3914 41.4993 37.1133 41.3673 37.0507 41.2004C36.5516 40.0271 36.3007 38.7631 36.3138 37.4881V18.1411C36.3138 16.6464 36.5294 15.6176 36.9534 15.0614C37.3427 14.5423 39.2962 14.2828 42.8138 14.2828H43.0641C45.3111 14.2027 47.5272 14.8248 49.4042 16.0625C51.132 17.2862 52.4791 18.9731 53.2903 20.9288C54.1937 23.0606 54.6435 25.357 54.6111 27.6721ZM79.2485 44.294C75.3693 44.294 72.387 43.1538 70.3014 40.8736C68.2159 38.5934 67.1731 34.9159 67.1731 29.841V18.7181C67.1731 17.7031 67.1731 16.8341 67.0966 16.1042C67.0704 15.5171 66.9819 14.9345 66.8324 14.3662C66.7629 14.1715 66.5196 13.9977 66.0955 13.8518C65.6412 13.6967 65.1766 13.5736 64.7052 13.4833C64.3213 13.3981 63.9303 13.3492 63.5373 13.3373C63.4052 13.3373 63.3426 13.1288 63.3426 12.7047C63.3092 12.4279 63.3785 12.1484 63.5373 11.9191L69.3977 12.1625C69.6618 12.1625 70.2667 12.1625 71.2121 12.0929L75.0704 11.9191C75.1293 12.1464 75.1619 12.3796 75.1677 12.6143C75.1677 13.101 75.1052 13.3443 74.9731 13.3443C74.6251 13.3674 74.2804 13.4256 73.9442 13.5181C73.4741 13.6227 73.0099 13.7527 72.5538 13.9074C72.1298 14.0534 71.8586 14.2063 71.8586 14.3731C71.5263 15.8649 71.3792 17.3919 71.4207 18.9197V29.841C71.4207 33.5487 72.2016 36.4801 73.7635 38.6351C74.5062 39.696 75.5047 40.5523 76.6665 41.1247C77.8282 41.6971 79.1156 41.967 80.4094 41.9095C85.9709 41.9095 88.7517 38.2435 88.7517 30.9116V18.7181C88.8055 17.2753 88.6912 15.8312 88.411 14.4149C88.3415 14.2202 88.0495 14.0395 87.5281 13.8796C86.9832 13.7071 86.4284 13.5678 85.8666 13.4625C85.4326 13.3643 84.9905 13.3061 84.5458 13.2887C84.4137 13.2887 84.3511 13.094 84.3511 12.7047C84.3207 12.4433 84.3902 12.1801 84.5458 11.9678C84.8378 11.9678 85.3313 11.9678 86.0126 12.0443L88.2372 12.1903C89.0367 12.2389 89.7249 12.2667 90.3228 12.2667C91.1709 12.2667 92.2415 12.2111 93.5484 12.1138C94.8554 12.0165 95.5645 11.9678 95.7939 11.9678C95.8576 12.1966 95.8926 12.4325 95.8982 12.6699C95.8982 13.0592 95.8356 13.2539 95.7035 13.2539C95.2914 13.2884 94.8825 13.3534 94.48 13.4485C93.8613 13.5806 93.2843 13.7266 92.749 13.8935C92.2137 14.0603 91.9078 14.2133 91.8452 14.3801C91.6966 15.0061 91.5989 15.6431 91.5533 16.2849C91.4837 17.0357 91.4559 17.9186 91.4559 18.9266V30.8004C91.4559 34.1581 90.9763 36.8207 90.0656 38.795C89.2253 40.6573 87.7455 42.1569 85.8944 43.0218C83.798 43.9239 81.5299 44.3581 79.2485 44.294ZM130.129 44.44C129.982 44.2394 129.913 43.9924 129.934 43.7448C129.934 43.286 129.997 43.0496 130.129 43.0496C130.643 43.0337 131.152 42.952 131.645 42.8063C132.132 42.7163 132.578 42.4727 132.917 42.1111C133.344 41.5354 133.712 40.9182 134.015 40.2689C134.391 39.525 134.787 38.5935 135.218 37.4881L143.72 15.6384C143.861 15.3022 143.984 14.9588 144.088 14.6095C144.137 14.4149 144.186 14.2411 144.234 14.0951C144.283 13.9491 144.387 13.6989 144.547 13.3374C144.733 12.9528 144.967 12.5931 145.242 12.2668C145.389 12.1212 145.566 12.0101 145.761 11.9416C145.956 11.8731 146.163 11.8488 146.369 11.8705L146.807 12.0165L156.581 37.8288C156.756 38.2786 156.923 38.6885 157.082 39.0764C157.188 39.3359 157.29 39.5857 157.387 39.8309C157.49 40.0898 157.587 40.325 157.677 40.5424L157.679 40.5477L157.682 40.555L157.682 40.556C157.802 40.8468 157.908 41.1055 157.999 41.3464C158.178 41.7212 158.479 42.0231 158.854 42.2015C159.297 42.4437 159.763 42.6416 160.245 42.7924C160.599 42.9151 160.969 42.9877 161.343 43.0079C161.475 43.0079 161.538 43.3207 161.538 43.9394C161.544 44.0111 161.544 44.0833 161.538 44.155C161.517 44.2466 161.491 44.3371 161.461 44.4261C159.834 44.3635 158.569 44.3079 157.672 44.2592L157.454 44.2474L157.454 44.2474C156.695 44.2061 156.266 44.1828 156.087 44.1828L150.415 44.4261C150.255 44.1897 150.195 43.8999 150.248 43.6197C150.248 43.2165 150.331 43.0079 150.463 43.0079C150.961 42.9935 151.454 42.9116 151.93 42.7646C152.521 42.6047 152.862 42.3892 152.959 42.132C152.989 42.0011 153.012 41.8689 153.029 41.7357C153.039 41.6062 153.039 41.476 153.029 41.3464C153.021 40.8473 152.973 40.3497 152.883 39.8587C152.812 39.3994 152.698 38.9478 152.542 38.51L150.338 32.448C150.307 32.3957 150.265 32.351 150.214 32.3173C150.164 32.2836 150.106 32.2617 150.046 32.2534C148.772 32.156 147.534 32.1074 146.334 32.1074C145.486 32.1074 144.547 32.1074 143.518 32.1839L140.126 32.3507L139.876 32.4967L137.79 37.8774C137.5 38.5518 137.267 39.2495 137.095 39.963C136.998 40.3971 136.942 40.8393 136.928 41.2838C136.909 41.4665 136.934 41.6512 137.002 41.822C137.07 41.9928 137.178 42.1445 137.317 42.264C137.738 42.5435 138.211 42.7351 138.708 42.8272C139.163 42.9442 139.629 43.0164 140.098 43.0427C140.195 43.0427 140.251 43.2373 140.265 43.6336C140.295 43.9112 140.271 44.1921 140.195 44.4608L135.162 44.2175C134.274 44.1478 133.381 44.1478 132.493 44.2175L130.129 44.44ZM144.603 29.7785C146.063 29.7785 147.55 29.7298 149.045 29.6325L149.191 29.3823L145.256 18.586L141.051 29.4865C141.051 29.6117 141.085 29.6812 141.148 29.6812L143.275 29.7507C143.824 29.7716 144.276 29.7785 144.603 29.7785ZM190.876 34.641C191.665 36.6463 192.845 38.4743 194.348 40.0183C196.247 42.12 198.692 43.6531 201.411 44.4467C203.991 45.1767 206.722 45.1767 209.302 44.4467C212.031 43.6577 214.486 42.1243 216.393 40.0183C217.894 38.4734 219.074 36.6452 219.863 34.6402C220.652 32.6352 221.034 30.4933 220.988 28.3392C221.016 23.9916 219.371 19.7997 216.393 16.6323C214.977 15.1332 213.284 13.9222 211.408 13.066C209.502 12.2092 207.436 11.7662 205.346 11.7662C203.256 11.7662 201.19 12.2092 199.284 13.066C197.41 13.9156 195.723 15.1277 194.32 16.6323C192.889 18.1695 191.756 19.9585 190.977 21.9087C190.151 23.9513 189.735 26.1362 189.753 28.3392C189.705 30.4935 190.087 32.6358 190.876 34.641ZM211.603 40.7066C210.098 42.0522 208.143 42.7841 206.125 42.7574C203.805 42.7951 201.555 41.9673 199.812 40.4354C198.015 38.8795 196.653 36.8843 195.857 34.6445C195.005 32.2767 194.574 29.778 194.585 27.2617C194.561 24.995 194.977 22.7453 195.808 20.6365C196.534 18.7256 197.729 17.0282 199.284 15.7007C200.773 14.4496 202.665 13.7803 204.609 13.8168C206.922 13.7822 209.167 14.6015 210.914 16.1178C212.717 17.6616 214.083 19.6511 214.877 21.8879C215.729 24.2533 216.159 26.7497 216.149 29.2638C216.165 31.4559 215.791 33.6332 215.044 35.6943C214.354 37.6365 213.167 39.3645 211.603 40.7066ZM255.096 44.5373C250.586 44.5373 246.647 42.1876 243.278 37.4881C243.013 37.1266 242.68 36.64 242.27 36.0213C241.859 35.4026 241.123 34.3111 240.052 32.7469C239.531 31.9961 239.065 31.3566 238.662 30.863C238.29 30.381 237.815 29.9889 237.271 29.7159C236.585 29.4226 235.841 29.2871 235.095 29.3197C234.802 29.3068 234.51 29.359 234.24 29.4726C234.032 29.5699 233.927 29.7924 233.927 30.1678V37.356C233.845 38.7834 233.977 40.215 234.317 41.6036C234.523 41.9423 234.832 42.2056 235.2 42.3544C235.723 42.5869 236.271 42.7595 236.833 42.8689C237.252 42.9589 237.678 43.0147 238.105 43.0357C238.238 43.0357 238.3 43.2651 238.3 43.7309C238.297 43.9658 238.264 44.1993 238.203 44.4261C236.576 44.3635 235.234 44.294 234.171 44.2314C233.398 44.171 232.623 44.1547 231.849 44.1828L225.898 44.44C225.763 44.169 225.712 43.864 225.752 43.564C225.752 43.14 225.801 42.9245 225.898 42.9245C226.303 42.9155 226.706 42.8666 227.101 42.7785C227.571 42.6827 228.035 42.5597 228.491 42.41C228.815 42.3453 229.102 42.1618 229.297 41.8956C229.52 41.541 229.638 40.0116 229.638 37.3074V18.8293C229.638 17.8839 229.638 17.0496 229.562 16.3336C229.534 15.7558 229.445 15.1826 229.297 14.6234C229.228 14.4288 228.978 14.248 228.54 14.0882C228.087 13.9214 227.622 13.7889 227.149 13.6919C226.754 13.6072 226.351 13.5583 225.947 13.5459C225.821 13.5459 225.752 13.3513 225.752 12.9619C225.718 12.6697 225.787 12.3749 225.947 12.1277L231.814 12.232C232.759 12.232 233.9 12.232 235.29 12.1555C236.68 12.0791 237.8 12.0304 238.717 12.0304C240.454 12.0286 242.173 12.3786 243.771 13.0593C245.335 13.7051 246.701 14.7503 247.734 16.0903C248.779 17.4932 249.32 19.2078 249.27 20.9566C249.209 22.514 248.672 24.0155 247.734 25.2598C246.686 26.7772 245.244 27.9792 243.563 28.7357C243.236 28.8678 243.139 29.0277 243.271 29.2224C244.682 32.36 246.559 35.2663 248.839 37.8427C251.967 41.263 254.516 42.9731 256.486 42.9731C256.589 43.1901 256.639 43.4283 256.632 43.6683C256.635 43.908 256.585 44.1454 256.486 44.3635C256.034 44.4895 255.565 44.548 255.096 44.5373ZM239.329 27.2341C240.193 27.211 241.033 26.9408 241.748 26.4555C242.608 25.8968 243.323 25.1414 243.834 24.2518C244.417 23.2603 244.715 22.1274 244.696 20.9774C244.696 16.4541 242.413 14.1901 237.848 14.1855C236.698 14.1462 235.548 14.2608 234.428 14.5261C234.136 14.5887 233.962 15.124 233.913 16.1181C233.865 17.1122 233.844 18.3705 233.844 19.8999V25.8159C233.858 26.7614 235.269 27.2341 238.105 27.2341H239.329ZM265.628 44.6137C266.453 44.7214 267.284 44.7772 268.117 44.7806C269.868 44.7968 271.598 44.404 273.171 43.6335C274.679 42.912 275.974 41.8128 276.932 40.4426C277.867 39.0877 278.354 37.4729 278.322 35.8266C278.348 34.571 277.981 33.3388 277.272 32.302C276.547 31.2683 275.665 30.3537 274.658 29.5908C273.616 28.8052 272.649 28.0961 271.53 27.4148C270.836 26.9924 270.166 26.5699 269.512 26.1574C269.111 25.9047 268.716 25.6557 268.325 25.4127C267.296 24.7731 266.281 24.0779 265.273 23.3271C264.572 22.8029 264 22.1249 263.601 21.3452C263.202 20.5656 262.987 19.7049 262.972 18.8293C262.968 18.0001 263.126 17.1781 263.438 16.41C263.774 15.6246 264.342 14.9602 265.065 14.5052C266.01 13.9498 267.098 13.6862 268.193 13.7475C269.388 13.7171 270.565 14.0517 271.565 14.7068C272.484 15.3154 273.252 16.1263 273.81 17.0774C274.342 17.9631 274.707 18.9385 274.888 19.9555C274.916 20.2822 275.34 20.4491 276.16 20.4491C276.48 20.4491 276.647 20.3309 276.647 20.1084C276.697 17.7695 276.496 15.4319 276.049 13.1357C275.326 12.9758 274.777 12.8298 274.359 12.6977C273.942 12.5656 273.254 12.3849 272.274 12.1555C271.85 12.0582 271.322 11.9747 270.689 11.8913C270.016 11.8057 269.338 11.7639 268.659 11.7662C267.033 11.758 265.426 12.1268 263.966 12.8437C262.557 13.5278 261.345 14.5617 260.449 15.8469C259.54 17.1785 259.071 18.761 259.107 20.3726C259.086 21.664 259.434 22.9347 260.108 24.0362C260.778 25.1033 261.63 26.0445 262.625 26.817C263.592 27.586 264.604 28.2964 265.656 28.9442L267.609 30.1191C268.093 30.4415 268.535 30.6725 268.906 30.8667C269.016 30.9238 269.119 30.9777 269.215 31.0298C269.321 31.0873 269.428 31.1443 269.534 31.2014C269.852 31.372 270.169 31.5426 270.487 31.725C271.045 32.0634 271.583 32.4324 272.1 32.8303C272.879 33.3568 273.457 34.1309 273.741 35.0271C273.958 35.7234 274.08 36.4461 274.102 37.1752C274.15 37.9544 274.021 38.7343 273.725 39.4566C273.429 40.1789 272.973 40.8249 272.392 41.3464C271.232 42.3359 269.745 42.8587 268.221 42.8132C263.948 42.8178 261.241 40.4727 260.101 35.7779C259.948 35.6134 259.757 35.4873 259.546 35.41C259.335 35.3327 259.108 35.3063 258.885 35.333C258.363 35.333 258.099 35.4303 258.099 35.625C258.135 36.5573 258.232 37.4863 258.391 38.4057C258.59 39.6941 258.901 41.3464 259.323 43.3624C259.824 43.4409 260.321 43.5476 260.81 43.6822C261.339 43.8282 262.222 44.0159 263.424 44.2453C264.015 44.3774 264.745 44.4955 265.628 44.6137Z" fill="#161F32"/>
</svg>
