<svg width="401" height="73" viewBox="0 0 401 73" fill="none" xmlns="http://www.w3.org/2000/svg">
<path d="M273.129 12.3231L261.129 16.2231C261.103 15.7668 261.103 15.3094 261.129 14.8531C261.194 14.2991 261.126 13.7376 260.929 13.2156C260.732 12.6937 260.413 12.2264 259.999 11.8531C258.823 10.5507 257.364 9.53405 255.735 8.88071C254.106 8.22737 252.35 7.95456 250.599 8.08306C249.011 8.1423 247.454 8.53745 246.031 9.24244C244.607 9.94744 243.349 10.9463 242.339 12.1731C242.008 12.5221 241.758 12.9393 241.606 13.3954C241.454 13.8516 241.404 14.3354 241.459 14.8131C241.459 15.2331 241.459 15.6531 241.459 16.2231L238.899 15.4631C238.902 15.8834 238.966 16.3012 239.089 16.7031C239.245 16.9322 239.335 17.1999 239.35 17.4768C239.364 17.7538 239.301 18.0293 239.169 18.2731C239.319 19.8931 239.449 21.2731 239.549 22.6731C239.549 22.8131 239.609 22.9231 239.229 23.0931C238.771 23.2575 238.278 23.2989 237.799 23.2131C237.369 23.1631 237.129 22.8231 237.239 22.2131C237.439 21.0431 237.589 19.8531 237.739 18.6731C237.739 18.5531 237.519 18.3531 237.449 18.0831C237.389 17.8299 237.389 17.5662 237.449 17.3131C237.488 17.0357 237.569 16.7659 237.689 16.5131C237.803 16.2965 237.868 16.0575 237.879 15.8131C237.879 12.9831 237.879 10.1531 237.879 7.33306C237.879 6.46306 238.119 6.11306 238.809 6.10306C241.989 6.10306 244.749 4.32306 247.579 2.81306C248.649 2.23306 249.719 1.63306 250.809 1.11306C250.965 1.03706 251.136 0.997559 251.309 0.997559C251.482 0.997559 251.653 1.03706 251.809 1.11306C258.809 4.77306 265.809 8.45639 272.809 12.1631C272.918 12.211 273.025 12.2644 273.129 12.3231Z" fill="white"/>
<path d="M259.679 15.8133C259.519 18.1033 259.679 20.4333 259.679 22.7433V23.7433C254.099 20.4033 248.589 20.1833 243.029 23.7433C243.029 23.2933 243.029 23.0033 243.029 22.7433C243.029 20.0733 243.029 17.3933 243.029 14.7433C243.049 14.2103 243.226 13.6951 243.539 13.2633C244.914 11.4863 246.898 10.2821 249.109 9.88327C250.632 9.51934 252.219 9.51417 253.744 9.86819C255.27 10.2222 256.692 10.9257 257.899 11.9233L258.089 12.0633C258.666 12.4886 259.118 13.0611 259.397 13.7207C259.677 14.3804 259.774 15.1031 259.679 15.8133Z" fill="white"/>
<path d="M236.699 8.46289V14.6829L229.369 12.3229L236.699 8.46289Z" fill="white"/>
<path d="M259.469 57.7931C259.49 57.7946 259.51 57.8011 259.527 57.8118C259.545 57.8226 259.559 57.8373 259.57 57.8549C259.581 57.8725 259.587 57.8924 259.589 57.9129C259.59 57.9335 259.587 57.9541 259.579 57.9731L255.829 64.8531L255.619 65.2531C255.314 65.9405 254.887 66.5673 254.359 67.1031C253.869 67.4831 253.239 67.5031 251.859 67.5331C250.796 67.5532 249.733 67.493 248.679 67.3531C248.425 67.317 248.184 67.2173 247.979 67.0631C247.881 66.9909 247.799 66.8989 247.739 66.7931C246.239 64.1331 243.439 58.8931 242.979 57.9131C242.971 57.8978 242.967 57.8805 242.969 57.8633C242.97 57.846 242.977 57.8295 242.987 57.8158C242.998 57.8021 243.012 57.7917 243.028 57.7859C243.045 57.7801 243.062 57.7791 243.079 57.7831C244.096 57.8558 245.116 57.7155 246.075 57.3711C247.034 57.0267 247.911 56.4858 248.649 55.7831C250.529 54.2731 252.109 54.3131 254.019 55.7831C255.173 56.8769 256.643 57.5771 258.219 57.7831C258.609 57.8131 258.999 57.8031 259.469 57.7931Z" fill="white"/>
<path d="M253.389 69.2832C252.779 70.4232 252.179 71.5232 251.509 72.7632C251.482 72.8111 251.443 72.8509 251.395 72.8786C251.348 72.9063 251.294 72.9209 251.239 72.9209C251.184 72.9209 251.13 72.9063 251.083 72.8786C251.035 72.8509 250.996 72.8111 250.969 72.7632C250.299 71.5332 249.679 70.4132 249.069 69.2832H253.389Z" fill="white"/>
<path d="M259.589 27.8632V52.8632C259.411 53.0667 259.178 53.2157 258.919 53.2932C258.373 53.4849 257.792 53.5511 257.217 53.4871C256.642 53.423 256.089 53.2303 255.599 52.9232C255.075 52.6964 254.638 52.3083 254.35 51.8155C254.062 51.3226 253.939 50.7508 253.999 50.1832C254.089 43.7632 253.999 37.3232 254.059 30.8932C254.059 30.5032 254.059 27.8032 254.059 27.8032H259.349L259.589 27.8632Z" fill="#00924B"/>
<path d="M242.999 27.8632V52.8632C243.178 53.0667 243.41 53.2157 243.669 53.2932C244.216 53.4864 244.8 53.5535 245.377 53.4895C245.953 53.4254 246.508 53.2318 246.999 52.9232C247.523 52.6964 247.96 52.3083 248.248 51.8155C248.536 51.3226 248.659 50.7508 248.599 50.1832C248.509 43.7632 248.599 37.3232 248.539 30.8932C248.539 30.5032 248.539 27.8032 248.539 27.8032H243.249L242.999 27.8632Z" fill="#00924B"/>
<path fill-rule="evenodd" clip-rule="evenodd" d="M156.129 63.3028C158.857 64.5301 161.818 65.1543 164.809 65.1328C172.549 65.1328 178.152 64.1128 181.619 62.0728C181.921 61.6013 182.125 61.0743 182.219 60.5228C182.469 59.5828 182.729 58.4928 183.019 57.2528C183.309 56.0128 183.539 54.8428 183.729 53.8428C183.863 53.1824 183.956 52.5145 184.009 51.8428L183.659 51.6328C183.362 51.476 183.041 51.3711 182.709 51.3228C182.379 51.2588 182.045 51.222 181.709 51.2128C181.469 51.2128 181.249 51.6028 180.999 52.4128C180.749 53.2228 180.419 54.1428 179.999 55.2228C179.607 56.2778 179.013 57.246 178.249 58.0728C175.742 60.7928 172.156 62.1528 167.489 62.1528C163.877 62.242 160.335 61.1423 157.409 59.0228C154.634 57.0205 152.475 54.2801 151.179 51.1128C149.813 47.79 149.132 44.2252 149.179 40.6328C149.177 38.1313 149.607 35.6482 150.449 33.2928C151.26 30.9824 152.461 28.8279 153.999 26.9228C155.446 25.0784 157.244 23.5388 159.289 22.3928C161.269 21.2976 163.496 20.7263 165.759 20.7328C168.396 20.6558 171.02 21.1362 173.459 22.1428C175.391 22.9599 177.057 24.3002 178.269 26.0128C178.798 26.7893 179.234 27.625 179.569 28.5028C179.779 29.1428 179.959 29.7628 180.099 30.3728C180.209 30.5055 180.352 30.6075 180.513 30.6688C180.674 30.7301 180.849 30.7487 181.019 30.7228C181.999 30.7228 182.489 30.3728 182.489 29.6628L182.629 19.5428C179.772 18.9383 176.885 18.491 173.979 18.2028C171.119 17.9228 168.309 17.7828 165.549 17.7828C162.447 17.761 159.377 18.4091 156.549 19.6828C153.781 20.9338 151.284 22.7139 149.199 24.9228C147.079 27.1679 145.409 29.7987 144.279 32.6728C143.096 35.6611 142.499 38.8489 142.519 42.0628C142.5 48.1156 144.835 53.9389 149.029 58.3028C151.052 60.4106 153.463 62.1083 156.129 63.3028ZM28.1591 64.9928H32.7691C32.9105 64.0698 33.1279 63.16 33.4191 62.2728C33.7491 61.1928 34.0491 60.2328 34.3291 59.3928C34.5191 58.8628 34.7591 58.1928 35.0391 57.3928C35.0846 57.2629 35.13 57.132 35.1756 57.0007C35.4108 56.3232 35.6495 55.6359 35.9091 55.0328C36.1797 54.4044 36.3817 53.8522 36.5218 53.4693L36.5791 53.3128C36.0617 52.9666 35.4372 52.8176 34.8191 52.8928C34.2391 52.8928 33.9091 53.0328 33.8191 53.3128C33.3667 54.9455 32.6687 56.4999 31.7491 57.9228C31.176 58.9218 30.3826 59.7768 29.4291 60.4228C27.8391 61.2228 24.8791 61.6228 20.5691 61.6228H17.1991C14.1491 61.6228 12.5591 61.3828 12.4191 60.9128C11.8899 58.8229 11.6743 56.666 11.7791 54.5128V43.6228C11.7791 43.1928 13.4691 42.9828 16.8391 42.9828C21.1591 42.9828 23.6391 43.1728 24.2991 43.5528C24.5067 43.6816 24.7071 43.8218 24.8991 43.9728C25.1362 44.3131 25.3122 44.6921 25.4191 45.0928C25.4583 45.222 25.4975 45.3621 25.5396 45.5128L25.5397 45.5129C25.6052 45.747 25.6779 46.0069 25.7691 46.2928C25.9083 46.729 26.0562 47.2427 26.2286 47.8419L26.2287 47.8421L26.2287 47.8425L26.2691 47.9828C26.3891 48.3528 26.7791 48.5428 27.3891 48.5428C27.787 48.5854 28.1872 48.4862 28.5191 48.2628V34.9728C28.18 34.7042 27.7495 34.5786 27.3191 34.6228C26.6591 34.6228 26.2691 34.7828 26.2691 35.1128C26.0791 35.7728 25.8591 36.5928 25.5991 37.6028C25.3391 38.6128 24.9791 39.1628 24.5091 39.2628C23.7591 39.4428 23.2491 39.5928 22.9991 39.6828C22.5783 39.8156 22.1404 39.8863 21.6991 39.8928H18.4591H14.7391C12.7391 39.8928 11.7391 39.7528 11.7391 39.4728V28.2228C11.7391 26.8128 11.7791 25.6128 11.8491 24.6328C11.9191 23.6528 11.9991 22.8728 12.0891 22.3128C12.1358 21.7061 14.1991 21.4028 18.2791 21.4028H22.9991C24.8114 21.2959 26.6203 21.6611 28.2491 22.4628C29.5091 23.1928 30.4991 24.8428 31.1991 27.4128C31.2591 27.7428 31.5891 27.9128 32.1991 27.9128C32.6513 27.9588 33.1044 27.8339 33.4691 27.5628C33.4382 27.3836 33.3844 27.1432 33.31 26.8111C33.2641 26.6058 33.2102 26.3654 33.1491 26.0828C33.1024 25.8667 33.0557 25.6362 33.006 25.3909L33.006 25.3908L33.0059 25.3903C32.8854 24.7956 32.7473 24.1143 32.5491 23.3428C32.2691 22.2528 32.0391 21.2628 31.8491 20.3428C31.6591 19.4228 31.5191 18.6428 31.4291 17.9828C30.8432 17.9828 30.2032 17.9968 29.4957 18.0123C28.6216 18.0314 27.6445 18.0528 26.5391 18.0528L19.6891 18.2628C18.3988 18.3122 17.216 18.3446 16.1287 18.3743C15.0166 18.4047 14.0044 18.4323 13.0791 18.4728C11.2491 18.5528 9.79913 18.5528 8.71913 18.5528C8.17298 18.5528 7.63965 18.5551 7.11913 18.5574C6.11474 18.5618 5.15807 18.566 4.24913 18.5528C2.86913 18.5328 1.56913 18.4928 0.349129 18.4428C0.115079 18.7963 0.0157202 19.2222 0.0691293 19.6428C0.0691293 20.2028 0.159129 20.4828 0.349129 20.4828C0.927625 20.5007 1.50331 20.571 2.06913 20.6928C2.74977 20.8298 3.41852 21.0204 4.06913 21.2628C4.70913 21.4928 5.06913 21.7528 5.15913 22.0328C5.38101 22.8356 5.51183 23.6608 5.54913 24.4928C5.64913 25.5228 5.64913 26.7228 5.64913 28.0828V54.6628C5.6558 58.5495 5.49246 60.7495 5.15913 61.2628C4.87887 61.6538 4.46703 61.9308 3.99913 62.0428C3.34413 62.2798 2.67643 62.4801 1.99913 62.6428C1.4362 62.785 0.859473 62.8654 0.279129 62.8828C0.139129 62.8828 0.0691293 63.1928 0.0691293 63.8028C0.0174381 64.189 0.0910473 64.5816 0.279129 64.9228L8.82913 64.7828H14.4491C16.5358 64.8028 18.8691 64.8361 21.4491 64.8828L28.1591 64.9928ZM40.5692 63.9229C40.5323 64.27 40.6058 64.6199 40.7792 64.9229L49.3292 64.7329C49.6305 64.7329 49.9431 64.7308 50.2674 64.7287H50.2676H50.2677H50.2679H50.2681H50.2683H50.2685C50.9555 64.7242 51.6947 64.7193 52.4892 64.7329C52.9544 64.7408 53.4385 64.7583 53.9416 64.7764L53.9418 64.7764H53.9419H53.942L53.9423 64.7764C54.7044 64.8039 55.51 64.8329 56.3592 64.8329L61.3592 64.9729C65.8881 65.2113 70.3927 64.1717 74.3592 61.9729C77.9132 59.9451 80.8137 56.9439 82.7192 53.3229C84.6805 49.5728 85.6804 45.3946 85.6292 41.1629C85.6659 37.226 84.6731 33.3478 82.7492 29.9129C80.7907 26.4492 77.9199 23.5888 74.4492 21.6429C70.4428 19.461 65.9293 18.381 61.3692 18.5129H59.3692H55.9992L49.1892 18.5529C48.643 18.5529 48.1097 18.5552 47.5892 18.5575C46.5848 18.5619 45.6281 18.566 44.7192 18.5529C43.3392 18.5329 42.0392 18.4929 40.8192 18.4429C40.5851 18.7964 40.4858 19.2222 40.5392 19.6429C40.5392 20.2029 40.6292 20.4829 40.8192 20.4829C41.3977 20.5008 41.9734 20.5711 42.5392 20.6929C43.2198 20.8299 43.8886 21.0205 44.5392 21.2629C45.1792 21.4929 45.5392 21.7529 45.6292 22.0329C45.8511 22.8356 45.9819 23.6608 46.0192 24.4929C46.1192 25.5229 46.1192 26.7229 46.1192 28.0829V54.7029C46.1192 58.5895 45.9559 60.7895 45.6292 61.3029C45.3489 61.6939 44.9371 61.9709 44.4692 62.0829C43.8142 62.3199 43.1465 62.5202 42.4692 62.6829C41.916 62.8229 41.3495 62.9034 40.7792 62.9229C40.6392 62.9229 40.5692 63.2562 40.5692 63.9229ZM78.6092 40.8029C78.6092 54.7295 73.2192 61.6929 62.4392 61.6929C61.9278 61.6929 61.3392 61.6507 60.5732 61.5958C60.4254 61.5853 60.2709 61.5742 60.1092 61.5629C59.1092 61.4929 58.1092 61.4029 57.1092 61.2829C56.2459 61.1866 55.3882 61.0464 54.5392 60.8629C53.8392 60.6929 53.4392 60.5029 53.3492 60.2629C52.6311 58.5751 52.2702 56.7569 52.2892 54.9229V27.0929C52.2892 24.9429 52.5992 23.4629 53.2092 22.6629C53.7692 21.9162 56.5792 21.5429 61.6392 21.5429H61.9992C65.2314 21.4276 68.4191 22.3225 71.1192 24.1029C73.6046 25.8632 75.5423 28.2897 76.7092 31.1029C78.0087 34.1693 78.6557 37.4727 78.6092 40.8029ZM114.049 64.7128C108.469 64.7128 104.179 63.0728 101.179 59.7928C98.1791 56.5128 96.6791 51.2228 96.6791 43.9228V27.9228C96.6791 26.4628 96.6791 25.2128 96.5691 24.1628C96.5314 23.3184 96.404 22.4803 96.1891 21.6628C96.0891 21.3828 95.7391 21.1328 95.1291 20.9228C94.4756 20.6998 93.8073 20.5227 93.1291 20.3928C92.5769 20.2702 92.0144 20.1999 91.4491 20.1828C91.2591 20.1828 91.1691 19.8828 91.1691 19.2728C91.1211 18.8746 91.2207 18.4726 91.4491 18.1428L99.8791 18.4928C100.259 18.4928 101.129 18.4928 102.489 18.3928L108.039 18.1428C108.124 18.4697 108.171 18.8052 108.179 19.1428C108.179 19.8428 108.089 20.1928 107.899 20.1928C107.399 20.2261 106.903 20.3098 106.419 20.4428C105.743 20.5933 105.075 20.7803 104.419 21.0028C103.809 21.2128 103.419 21.4328 103.419 21.6728C102.941 23.8186 102.729 26.0152 102.789 28.2128V43.9228C102.789 49.2562 103.912 53.4728 106.159 56.5728C107.228 58.0989 108.664 59.3306 110.335 60.154C112.006 60.9773 113.858 61.3656 115.719 61.2828C123.719 61.2828 127.719 56.0095 127.719 45.4628V27.9228C127.796 25.8475 127.632 23.7702 127.229 21.7328C127.129 21.4528 126.709 21.1928 125.959 20.9628C125.175 20.7147 124.377 20.5144 123.569 20.3628C122.945 20.2216 122.309 20.1379 121.669 20.1128C121.479 20.1128 121.389 19.8328 121.389 19.2728C121.345 18.8968 121.445 18.5182 121.669 18.2128C122.089 18.2128 122.799 18.2128 123.779 18.3228L126.979 18.5328C128.129 18.6028 129.119 18.6428 129.979 18.6428C131.199 18.6428 132.739 18.5628 134.619 18.4228C136.499 18.2828 137.519 18.2128 137.849 18.2128C137.941 18.542 137.991 18.8812 137.999 19.2228C137.999 19.7828 137.909 20.0628 137.719 20.0628C137.126 20.1124 136.538 20.206 135.959 20.3428C135.069 20.5328 134.239 20.7428 133.469 20.9828C132.699 21.2228 132.259 21.4428 132.169 21.6828C131.955 22.5833 131.815 23.4996 131.749 24.4228C131.649 25.5028 131.609 26.7728 131.609 28.2228V45.3028C131.609 50.1328 130.919 53.9628 129.609 56.8028C128.4 59.4817 126.272 61.6387 123.609 62.8828C120.593 64.1806 117.331 64.8051 114.049 64.7128ZM187.239 64.9229C187.028 64.6343 186.929 64.2791 186.959 63.9229C186.959 63.2629 187.049 62.9229 187.239 62.9229C187.978 62.9 188.71 62.7824 189.419 62.5729C190.12 62.4434 190.761 62.093 191.249 61.5729C191.863 60.7447 192.393 59.8569 192.829 58.9229C193.369 57.8529 193.939 56.5129 194.559 54.9229L206.789 23.4929C206.992 23.0093 207.169 22.5152 207.319 22.0129C207.389 21.7329 207.459 21.4829 207.529 21.2729C207.599 21.0629 207.749 20.7029 207.979 20.1829C208.247 19.6297 208.583 19.1123 208.979 18.6429C209.19 18.4335 209.445 18.2737 209.725 18.1751C210.005 18.0765 210.304 18.0416 210.599 18.0729L211.229 18.2829L225.289 55.4129C225.54 56.0585 225.78 56.6469 226.008 57.2037L226.009 57.2072L226.01 57.2078C226.162 57.581 226.309 57.9402 226.449 58.2929C226.6 58.673 226.742 59.0176 226.873 59.3357L226.873 59.3362C227.045 59.7543 227.198 60.1265 227.329 60.4729C227.586 61.0119 228.02 61.4463 228.559 61.7029C229.196 62.0512 229.866 62.3359 230.559 62.5529C231.069 62.7294 231.601 62.8338 232.139 62.8629C232.329 62.8629 232.419 63.3129 232.419 64.2029C232.428 64.306 232.428 64.4097 232.419 64.5129C232.389 64.6446 232.352 64.7748 232.309 64.9029C229.969 64.8129 228.149 64.7329 226.859 64.6629L226.545 64.6458L226.544 64.6458C225.452 64.5864 224.835 64.5529 224.579 64.5529L216.419 64.9029C216.19 64.5628 216.103 64.1461 216.179 63.7429C216.179 63.1629 216.299 62.8629 216.489 62.8629C217.205 62.8421 217.915 62.7244 218.599 62.5129C219.449 62.2829 219.939 61.9729 220.079 61.6029C220.122 61.4147 220.155 61.2245 220.179 61.0329C220.194 60.8465 220.194 60.6592 220.179 60.4729C220.169 59.7549 220.098 59.0391 219.969 58.3329C219.867 57.6722 219.703 57.0226 219.479 56.3929L216.309 47.6729C216.265 47.5976 216.204 47.5333 216.131 47.4848C216.058 47.4363 215.976 47.4049 215.889 47.3929C214.056 47.2529 212.276 47.1829 210.549 47.1829C209.329 47.1829 207.979 47.1829 206.499 47.2929L201.619 47.5329L201.259 47.7429L198.259 55.4829C197.842 56.4529 197.507 57.4565 197.259 58.4829C197.12 59.1073 197.04 59.7434 197.019 60.3829C196.991 60.6457 197.027 60.9114 197.125 61.157C197.223 61.4026 197.378 61.6209 197.579 61.7929C198.184 62.1949 198.865 62.4704 199.579 62.6029C200.234 62.7713 200.904 62.8751 201.579 62.9129C201.719 62.9129 201.799 63.1929 201.819 63.7629C201.862 64.1623 201.828 64.5663 201.719 64.9529L194.479 64.6029C193.201 64.5025 191.917 64.5025 190.639 64.6029L187.239 64.9229ZM208.059 43.8329C210.159 43.8329 212.299 43.7629 214.449 43.6229L214.659 43.2629L208.999 27.7329L202.949 43.4129C202.949 43.5929 202.999 43.6929 203.089 43.6929L206.149 43.7929C206.939 43.8229 207.589 43.8329 208.059 43.8329ZM275.554 50.7178C276.689 53.6023 278.387 56.2318 280.549 58.4529C283.281 61.476 286.798 63.6813 290.709 64.8229C294.42 65.873 298.349 65.873 302.059 64.8229C305.985 63.688 309.517 61.4823 312.259 58.4529C314.42 56.2305 316.116 53.6007 317.251 50.7166C318.386 47.8325 318.936 44.7515 318.869 41.6529C318.91 35.399 316.543 29.3691 312.259 24.8129C310.222 22.6565 307.788 20.9145 305.089 19.6829C302.347 18.4504 299.375 17.8132 296.369 17.8132C293.363 17.8132 290.391 18.4504 287.649 19.6829C284.954 20.9051 282.527 22.6486 280.509 24.8129C278.451 27.0241 276.82 29.5975 275.699 32.4029C274.512 35.3411 273.914 38.484 273.939 41.6529C273.87 44.7518 274.419 47.8334 275.554 50.7178ZM305.369 59.4429C303.205 61.3786 300.393 62.4314 297.489 62.3929C294.153 62.4472 290.915 61.2564 288.409 59.0529C285.824 56.8146 283.864 53.9446 282.719 50.7229C281.494 47.3168 280.875 43.7226 280.889 40.1029C280.856 36.8424 281.453 33.6063 282.649 30.5729C283.694 27.8241 285.413 25.3824 287.649 23.4729C289.791 21.6732 292.512 20.7104 295.309 20.7629C298.637 20.7132 301.866 21.8916 304.379 24.0729C306.972 26.2935 308.938 29.1553 310.079 32.3729C311.305 35.7754 311.924 39.3664 311.909 42.9829C311.932 46.1361 311.393 49.2681 310.319 52.2329C309.326 55.0268 307.62 57.5123 305.369 59.4429ZM366.999 65.0629C360.512 65.0629 354.846 61.6829 349.999 54.9229C349.619 54.4029 349.139 53.7029 348.549 52.8129C347.959 51.9229 346.899 50.3529 345.359 48.1029C344.609 47.0229 343.939 46.1029 343.359 45.3929C342.825 44.6995 342.141 44.1355 341.359 43.7429C340.372 43.3209 339.302 43.1261 338.229 43.1729C337.808 43.1543 337.388 43.2295 336.999 43.3929C336.699 43.5329 336.549 43.8529 336.549 44.3929V54.7329C336.431 56.786 336.62 58.8453 337.109 60.8429C337.405 61.3301 337.851 61.7089 338.379 61.9229C339.132 62.2573 339.92 62.5056 340.729 62.6629C341.332 62.7925 341.944 62.8727 342.559 62.9029C342.749 62.9029 342.839 63.2329 342.839 63.9029C342.834 64.2407 342.787 64.5767 342.699 64.9029C340.359 64.8129 338.429 64.7129 336.899 64.6229C335.788 64.5359 334.673 64.5126 333.559 64.5529L324.999 64.9229C324.805 64.5331 324.732 64.0944 324.789 63.6629C324.789 63.0529 324.859 62.7429 324.999 62.7429C325.581 62.73 326.161 62.6597 326.729 62.5329C327.405 62.3951 328.073 62.2182 328.729 62.0029C329.195 61.9098 329.608 61.6458 329.889 61.2629C330.209 60.7529 330.379 58.5529 330.379 54.6629V28.0829C330.379 26.7229 330.379 25.5229 330.269 24.4929C330.229 23.6618 330.102 22.8372 329.889 22.0329C329.789 21.7529 329.429 21.4929 328.799 21.2629C328.148 21.023 327.479 20.8324 326.799 20.6929C326.23 20.571 325.651 20.5007 325.069 20.4829C324.889 20.4829 324.789 20.2029 324.789 19.6429C324.741 19.2225 324.84 18.7985 325.069 18.4429L333.509 18.5929C334.869 18.5929 336.509 18.5929 338.509 18.4829C340.509 18.3729 342.119 18.3029 343.439 18.3029C345.937 18.3002 348.41 18.8037 350.709 19.7829C352.958 20.7118 354.924 22.2153 356.409 24.1429C357.913 26.161 358.691 28.6273 358.619 31.1429C358.53 33.3832 357.759 35.543 356.409 37.3329C354.902 39.5156 352.828 41.2446 350.409 42.3329C349.939 42.5229 349.799 42.7529 349.989 43.0329C352.019 47.5462 354.719 51.7268 357.999 55.4329C362.499 60.3529 366.166 62.8129 368.999 62.8129C369.147 63.125 369.219 63.4676 369.209 63.8129C369.214 64.1576 369.142 64.4991 368.999 64.8129C368.348 64.9941 367.674 65.0783 366.999 65.0629ZM344.319 40.1729C345.562 40.1396 346.77 39.7509 347.799 39.0529C349.036 38.2491 350.065 37.1625 350.799 35.8829C351.637 34.4567 352.066 32.827 352.039 31.1729C352.039 24.6662 348.756 21.4095 342.189 21.4029C340.535 21.3464 338.88 21.5112 337.269 21.8929C336.849 21.9829 336.599 22.7529 336.529 24.1829C336.459 25.6129 336.429 27.4229 336.429 29.6229V38.1329C336.449 39.4929 338.479 40.1729 342.559 40.1729H344.319ZM382.149 65.1728C383.336 65.3278 384.532 65.4079 385.729 65.4128C388.248 65.4362 390.737 64.8712 392.999 63.7628C395.168 62.725 397.032 61.1438 398.409 59.1728C399.755 57.2238 400.455 54.9011 400.409 52.5328C400.446 50.7268 399.918 48.9542 398.899 47.4628C397.855 45.9759 396.587 44.6602 395.139 43.5628C393.639 42.4328 392.249 41.4128 390.639 40.4328C389.641 39.8252 388.677 39.2176 387.737 38.6244C387.16 38.2607 386.592 37.9024 386.029 37.5528C384.549 36.6328 383.089 35.6328 381.639 34.5528C380.63 33.7987 379.807 32.8234 379.233 31.7019C378.66 30.5804 378.35 29.3424 378.329 28.0828C378.322 26.8901 378.55 25.7077 378.999 24.6028C379.483 23.473 380.299 22.5173 381.339 21.8628C382.699 21.0638 384.264 20.6846 385.839 20.7728C387.559 20.7291 389.25 21.2105 390.689 22.1528C392.012 23.0283 393.117 24.1947 393.919 25.5628C394.684 26.8368 395.209 28.2399 395.469 29.7028C395.509 30.1728 396.119 30.4128 397.299 30.4128C397.759 30.4128 397.999 30.2428 397.999 29.9228C398.071 26.5584 397.783 23.1958 397.139 19.8928C396.099 19.6628 395.309 19.4528 394.709 19.2628C394.109 19.0728 393.119 18.8128 391.709 18.4828C391.099 18.3428 390.339 18.2228 389.429 18.1028C388.461 17.9797 387.485 17.9195 386.509 17.9228C384.17 17.911 381.859 18.4415 379.759 19.4728C377.731 20.4568 375.989 21.9441 374.699 23.7928C373.392 25.7082 372.717 27.9846 372.769 30.3028C372.739 32.1605 373.239 33.9884 374.209 35.5728C375.172 37.1077 376.398 38.4616 377.829 39.5728C379.22 40.679 380.676 41.7009 382.189 42.6328L384.999 44.3228C385.695 44.7865 386.33 45.1188 386.865 45.3981C387.022 45.4803 387.171 45.5578 387.309 45.6328C387.462 45.7154 387.615 45.7974 387.767 45.8795C388.225 46.1249 388.682 46.3704 389.139 46.6328C389.941 47.1196 390.716 47.6504 391.459 48.2228C392.579 48.9801 393.411 50.0936 393.819 51.3828C394.132 52.3843 394.307 53.4239 394.339 54.4728C394.408 55.5936 394.222 56.7155 393.796 57.7545C393.37 58.7935 392.715 59.7228 391.879 60.4728C390.21 61.8962 388.072 62.6482 385.879 62.5828C379.732 62.5895 375.839 59.2161 374.199 52.4628C373.978 52.2261 373.705 52.0448 373.401 51.9336C373.097 51.8224 372.771 51.7845 372.449 51.8228C371.699 51.8228 371.319 51.9628 371.319 52.2428C371.371 53.5839 371.511 54.9202 371.739 56.2428C372.026 58.0961 372.472 60.4728 373.079 63.3728C373.801 63.4857 374.515 63.6393 375.219 63.8328C375.979 64.0428 377.249 64.3128 378.979 64.6428C379.829 64.8328 380.879 65.0028 382.149 65.1728Z" fill="white"/>
</svg>
