<svg width="401" height="72" viewBox="0 0 401 72" fill="none" xmlns="http://www.w3.org/2000/svg">
<path d="M273.129 11.3997L261.129 15.2997C261.103 14.8434 261.103 14.386 261.129 13.9297C261.194 13.3758 261.126 12.8143 260.929 12.2923C260.732 11.7703 260.413 11.3031 259.999 10.9297C258.823 9.62732 257.364 8.61071 255.735 7.95737C254.106 7.30403 252.35 7.03122 250.599 7.15972C249.011 7.21896 247.454 7.61411 246.031 8.31911C244.607 9.0241 243.349 10.0229 242.339 11.2497C242.008 11.5987 241.758 12.016 241.606 12.4721C241.454 12.9282 241.404 13.4121 241.459 13.8897C241.459 14.3097 241.459 14.7297 241.459 15.2997L238.899 14.5397C238.902 14.9601 238.966 15.3779 239.089 15.7797C239.245 16.0088 239.335 16.2765 239.35 16.5535C239.364 16.8304 239.301 17.1059 239.169 17.3497C239.319 18.9697 239.449 20.3497 239.549 21.7497C239.549 21.8897 239.609 21.9997 239.229 22.1697C238.771 22.3342 238.278 22.3756 237.799 22.2897C237.369 22.2397 237.129 21.8997 237.239 21.2897C237.439 20.1197 237.589 18.9297 237.739 17.7497C237.739 17.6297 237.519 17.4297 237.449 17.1597C237.389 16.9066 237.389 16.6429 237.449 16.3897C237.488 16.1124 237.569 15.8426 237.689 15.5897C237.803 15.3731 237.868 15.1342 237.879 14.8897C237.879 12.0597 237.879 9.22972 237.879 6.40972C237.879 5.53972 238.119 5.18972 238.809 5.17972C241.989 5.17972 244.749 3.39972 247.579 1.88972C248.649 1.30972 249.719 0.709719 250.809 0.189719C250.965 0.113719 251.136 0.0742187 251.309 0.0742188C251.482 0.0742188 251.653 0.113719 251.809 0.189719C258.809 3.84972 265.809 7.53305 272.809 11.2397C272.918 11.2877 273.025 11.3411 273.129 11.3997Z" fill="#161F32"/>
<path d="M259.679 14.8899C259.519 17.1799 259.679 19.5099 259.679 21.8199V22.8199C254.099 19.4799 248.589 19.2599 243.029 22.8199C243.029 22.3699 243.029 22.0799 243.029 21.8199C243.029 19.1499 243.029 16.4699 243.029 13.8199C243.049 13.2869 243.226 12.7718 243.539 12.3399C244.914 10.563 246.898 9.35874 249.109 8.95993C250.632 8.596 252.219 8.59083 253.744 8.94485C255.27 9.29887 256.692 10.0024 257.899 10.9999L258.089 11.1399C258.666 11.5653 259.118 12.1377 259.397 12.7974C259.677 13.4571 259.774 14.1798 259.679 14.8899Z" fill="#161F32"/>
<path d="M236.699 7.53955V13.7596L229.369 11.3996L236.699 7.53955Z" fill="#161F32"/>
<path d="M259.469 56.8697C259.49 56.8713 259.51 56.8777 259.527 56.8885C259.545 56.8992 259.559 56.914 259.57 56.9316C259.581 56.9492 259.587 56.969 259.589 56.9896C259.59 57.0101 259.587 57.0307 259.579 57.0497L255.829 63.9297L255.619 64.3297C255.314 65.0172 254.887 65.6439 254.359 66.1797C253.869 66.5597 253.239 66.5797 251.859 66.6097C250.796 66.6299 249.733 66.5697 248.679 66.4297C248.425 66.3937 248.184 66.2939 247.979 66.1397C247.881 66.0675 247.799 65.9755 247.739 65.8697C246.239 63.2097 243.439 57.9697 242.979 56.9897C242.971 56.9745 242.967 56.9572 242.969 56.9399C242.97 56.9227 242.977 56.9062 242.987 56.8925C242.998 56.8788 243.012 56.8684 243.028 56.8626C243.045 56.8568 243.062 56.8558 243.079 56.8597C244.096 56.9325 245.116 56.7921 246.075 56.4477C247.034 56.1034 247.911 55.5625 248.649 54.8597C250.529 53.3497 252.109 53.3897 254.019 54.8597C255.173 55.9536 256.643 56.6537 258.219 56.8597C258.609 56.8897 258.999 56.8797 259.469 56.8697Z" fill="#161F32"/>
<path d="M253.389 68.3599C252.779 69.4999 252.179 70.5999 251.509 71.8399C251.482 71.8877 251.443 71.9275 251.395 71.9552C251.348 71.9829 251.294 71.9976 251.239 71.9976C251.184 71.9976 251.13 71.9829 251.083 71.9552C251.035 71.9275 250.996 71.8877 250.969 71.8399C250.299 70.6099 249.679 69.4899 249.069 68.3599H253.389Z" fill="#161F32"/>
<path d="M259.589 26.9399V51.9399C259.411 52.1433 259.178 52.2924 258.919 52.3699C258.373 52.5615 257.792 52.6278 257.217 52.5637C256.642 52.4997 256.089 52.307 255.599 51.9999C255.075 51.773 254.638 51.3849 254.35 50.8921C254.062 50.3993 253.939 49.8274 253.999 49.2599C254.089 42.8399 253.999 36.3999 254.059 29.9699C254.059 29.5799 254.059 26.8799 254.059 26.8799H259.349L259.589 26.9399Z" fill="#F5C231"/>
<path d="M242.999 26.9399V51.9399C243.178 52.1433 243.41 52.2924 243.669 52.3699C244.216 52.5631 244.8 52.6302 245.377 52.5661C245.953 52.502 246.508 52.3085 246.999 51.9999C247.523 51.773 247.96 51.3849 248.248 50.8921C248.536 50.3993 248.659 49.8274 248.599 49.2599C248.509 42.8399 248.599 36.3999 248.539 29.9699C248.539 29.5799 248.539 26.8799 248.539 26.8799H243.249L242.999 26.9399Z" fill="#F5C231"/>
<path fill-rule="evenodd" clip-rule="evenodd" d="M156.129 62.3799C158.857 63.6073 161.818 64.2315 164.809 64.2099C172.549 64.2099 178.152 63.1899 181.619 61.1499C181.921 60.6785 182.125 60.1515 182.219 59.5999C182.469 58.6599 182.729 57.5699 183.019 56.3299C183.309 55.0899 183.539 53.9199 183.729 52.9199C183.863 52.2595 183.956 51.5916 184.009 50.9199L183.659 50.7099C183.362 50.5531 183.041 50.4483 182.709 50.3999C182.379 50.3359 182.045 50.2992 181.709 50.2899C181.469 50.2899 181.249 50.6799 180.999 51.4899C180.749 52.2999 180.419 53.2199 179.999 54.2999C179.607 55.3549 179.013 56.3231 178.249 57.1499C175.742 59.8699 172.156 61.2299 167.489 61.2299C163.877 61.3191 160.335 60.2194 157.409 58.0999C154.634 56.0976 152.475 53.3572 151.179 50.1899C149.813 46.8672 149.132 43.3024 149.179 39.7099C149.177 37.2084 149.607 34.7253 150.449 32.3699C151.26 30.0595 152.461 27.905 153.999 25.9999C155.446 24.1556 157.244 22.616 159.289 21.4699C161.269 20.3748 163.496 19.8034 165.759 19.8099C168.396 19.7329 171.02 20.2134 173.459 21.2199C175.391 22.0371 177.057 23.3773 178.269 25.0899C178.798 25.8665 179.234 26.7021 179.569 27.5799C179.779 28.2199 179.959 28.8399 180.099 29.4499C180.209 29.5826 180.352 29.6846 180.513 29.7459C180.674 29.8073 180.849 29.8259 181.019 29.7999C181.999 29.7999 182.489 29.4499 182.489 28.7399L182.629 18.6199C179.772 18.0155 176.885 17.5681 173.979 17.2799C171.119 16.9999 168.309 16.8599 165.549 16.8599C162.447 16.8381 159.377 17.4862 156.549 18.7599C153.781 20.011 151.284 21.791 149.199 23.9999C147.079 26.2451 145.409 28.8759 144.279 31.7499C143.096 34.7383 142.499 37.9261 142.519 41.1399C142.5 47.1928 144.835 53.016 149.029 57.3799C151.052 59.4878 153.463 61.1855 156.129 62.3799ZM28.1591 64.0699H32.7691C32.9105 63.1469 33.1279 62.2371 33.4191 61.3499C33.7491 60.2699 34.0491 59.3099 34.3291 58.4699C34.5191 57.9399 34.7591 57.2699 35.0391 56.4699C35.0844 56.3405 35.1297 56.21 35.1752 56.0792L35.1756 56.0779C35.4108 55.4004 35.6495 54.7131 35.9091 54.1099C36.1797 53.4816 36.3817 52.9294 36.5218 52.5464L36.5791 52.3899C36.0617 52.0437 35.4372 51.8947 34.8191 51.9699C34.2391 51.9699 33.9091 52.1099 33.8191 52.3899C33.3667 54.0226 32.6687 55.577 31.7491 56.9999C31.176 57.9989 30.3826 58.8539 29.4291 59.4999C27.8391 60.2999 24.8791 60.6999 20.5691 60.6999H17.1991C14.1491 60.6999 12.5591 60.4599 12.4191 59.9899C11.8899 57.9001 11.6743 55.7432 11.7791 53.5899V42.6999C11.7791 42.2699 13.4691 42.0599 16.8391 42.0599C21.1591 42.0599 23.6391 42.2499 24.2991 42.6299C24.5067 42.7587 24.7071 42.8989 24.8991 43.0499C25.1362 43.3902 25.3122 43.7692 25.4191 44.1699C25.4583 44.2992 25.4975 44.4392 25.5396 44.5899C25.6051 44.824 25.6779 45.084 25.7691 45.3699C25.9084 45.8063 26.0563 46.3202 26.2288 46.9197L26.2691 47.0599C26.3891 47.4299 26.7791 47.6199 27.3891 47.6199C27.787 47.6625 28.1872 47.5634 28.5191 47.3399V34.0499C28.18 33.7814 27.7495 33.6558 27.3191 33.6999C26.6591 33.6999 26.2691 33.8599 26.2691 34.1899C26.0791 34.8499 25.8591 35.6699 25.5991 36.6799C25.3391 37.6899 24.9791 38.2399 24.5091 38.3399C23.7591 38.5199 23.2491 38.6699 22.9991 38.7599C22.5783 38.8927 22.1404 38.9635 21.6991 38.9699H18.4591H14.7391C12.7391 38.9699 11.7391 38.8299 11.7391 38.5499V27.2999C11.7391 25.8899 11.7791 24.6899 11.8491 23.7099C11.9191 22.7299 11.9991 21.9499 12.0891 21.3899C12.1358 20.7833 14.1991 20.4799 18.2791 20.4799H22.9991C24.8114 20.373 26.6203 20.7383 28.2491 21.5399C29.5091 22.2699 30.4991 23.9199 31.1991 26.4899C31.2591 26.8199 31.5891 26.9899 32.1991 26.9899C32.6513 27.0359 33.1044 26.9111 33.4691 26.6399C33.4382 26.4607 33.3844 26.2204 33.31 25.8882C33.2641 25.6829 33.2102 25.4426 33.1491 25.1599C33.1024 24.9439 33.0557 24.7133 33.006 24.468L33.006 24.4679C32.8855 23.8731 32.7474 23.1916 32.5491 22.4199C32.2691 21.3299 32.0391 20.3399 31.8491 19.4199C31.6591 18.4999 31.5191 17.7199 31.4291 17.0599C30.8432 17.0599 30.2032 17.0739 29.4957 17.0894H29.4956H29.4955C28.6214 17.1086 27.6444 17.1299 26.5391 17.1299L19.6891 17.3399C18.3988 17.3894 17.216 17.4217 16.1287 17.4514H16.1286H16.1286H16.1285C15.0165 17.4818 14.0044 17.5095 13.0791 17.5499C11.2491 17.6299 9.79913 17.6299 8.71913 17.6299C8.17326 17.6299 7.6402 17.6323 7.11994 17.6345L7.11913 17.6345H7.11902H7.11891H7.1188H7.1187H7.11859H7.11848C6.11433 17.6389 5.15788 17.6431 4.24913 17.6299C2.86913 17.6099 1.56913 17.5699 0.349129 17.5199C0.115079 17.8735 0.0157202 18.2993 0.0691293 18.7199C0.0691293 19.2799 0.159129 19.5599 0.349129 19.5599C0.927625 19.5779 1.50331 19.6482 2.06913 19.7699C2.74977 19.907 3.41852 20.0976 4.06913 20.3399C4.70913 20.5699 5.06913 20.8299 5.15913 21.1099C5.38101 21.9127 5.51183 22.7379 5.54913 23.5699C5.64913 24.5999 5.64913 25.7999 5.64913 27.1599V53.7399C5.6558 57.6266 5.49246 59.8266 5.15913 60.3399C4.87887 60.731 4.46703 61.0079 3.99913 61.1199C3.34413 61.3569 2.67643 61.5573 1.99913 61.7199C1.4362 61.8621 0.859473 61.9426 0.279129 61.9599C0.139129 61.9599 0.0691293 62.2699 0.0691293 62.8799C0.0174381 63.2661 0.0910473 63.6587 0.279129 63.9999L8.82913 63.8599H14.4491C16.5358 63.8799 18.8691 63.9133 21.4491 63.9599L28.1591 64.0699ZM40.5692 63C40.5323 63.3471 40.6058 63.6971 40.7792 64L49.3292 63.81C49.6307 63.81 49.9436 63.808 50.2681 63.8058H50.2683H50.2685C50.9555 63.8013 51.6947 63.7964 52.4892 63.81C52.9544 63.818 53.4385 63.8354 53.9416 63.8535L53.9418 63.8535H53.9419H53.942L53.9423 63.8536C54.7044 63.881 55.51 63.91 56.3592 63.91L61.3592 64.05C65.8881 64.2884 70.3928 63.2489 74.3592 61.05C77.9132 59.0222 80.8137 56.0211 82.7192 52.4C84.6805 48.65 85.6804 44.4717 85.6292 40.24C85.6659 36.3031 84.6731 32.425 82.7492 28.99C80.7907 25.5263 77.9199 22.666 74.4492 20.72C70.4428 18.5382 65.9293 17.4581 61.3692 17.59H59.3692H55.9992L49.1892 17.63C48.6433 17.63 48.1103 17.6323 47.59 17.6346L47.5892 17.6346H47.5891H47.589H47.5889H47.5887H47.5886H47.5885C46.5844 17.639 45.6279 17.6432 44.7192 17.63C43.3392 17.61 42.0392 17.57 40.8192 17.52C40.5851 17.8736 40.4858 18.2994 40.5392 18.72C40.5392 19.28 40.6292 19.56 40.8192 19.56C41.3977 19.578 41.9734 19.6483 42.5392 19.77C43.2198 19.907 43.8886 20.0976 44.5392 20.34C45.1792 20.57 45.5392 20.83 45.6292 21.11C45.8511 21.9128 45.9819 22.738 46.0192 23.57C46.1192 24.6 46.1192 25.8 46.1192 27.16V53.78C46.1192 57.6667 45.9559 59.8667 45.6292 60.38C45.3489 60.7711 44.9371 61.048 44.4692 61.16C43.8142 61.397 43.1465 61.5973 42.4692 61.76C41.916 61.9001 41.3495 61.9805 40.7792 62C40.6392 62 40.5692 62.3334 40.5692 63ZM78.6092 39.88C78.6092 53.8067 73.2192 60.77 62.4392 60.77C61.9278 60.77 61.3392 60.7279 60.5732 60.673C60.4254 60.6624 60.2709 60.6513 60.1092 60.64C59.1092 60.57 58.1092 60.48 57.1092 60.36C56.2459 60.2638 55.3882 60.1236 54.5392 59.94C53.8392 59.77 53.4392 59.58 53.3492 59.34C52.6311 57.6522 52.2702 55.8341 52.2892 54V26.17C52.2892 24.02 52.5992 22.54 53.2092 21.74C53.7692 20.9934 56.5792 20.62 61.6392 20.62H61.9992C65.2314 20.5048 68.4191 21.3996 71.1192 23.18C73.6046 24.9403 75.5423 27.3668 76.7092 30.18C78.0087 33.2465 78.6557 36.5499 78.6092 39.88ZM114.049 63.79C108.469 63.79 104.179 62.15 101.179 58.87C98.1791 55.59 96.6791 50.3 96.6791 43V27C96.6791 25.54 96.6791 24.29 96.5691 23.24C96.5314 22.3955 96.404 21.5575 96.1891 20.74C96.0891 20.46 95.7391 20.21 95.1291 20C94.4756 19.777 93.8073 19.5999 93.1291 19.47C92.5769 19.3473 92.0144 19.277 91.4491 19.26C91.2591 19.26 91.1691 18.96 91.1691 18.35C91.1211 17.9517 91.2207 17.5497 91.4491 17.22L99.8791 17.57C100.259 17.57 101.129 17.57 102.489 17.47L108.039 17.22C108.124 17.5469 108.171 17.8824 108.179 18.22C108.179 18.92 108.089 19.27 107.899 19.27C107.399 19.3032 106.903 19.387 106.419 19.52C105.743 19.6705 105.075 19.8574 104.419 20.08C103.809 20.29 103.419 20.51 103.419 20.75C102.941 22.8958 102.729 25.0924 102.789 27.29V43C102.789 48.3333 103.912 52.55 106.159 55.65C107.228 57.176 108.664 58.4078 110.335 59.2311C112.006 60.0544 113.858 60.4427 115.719 60.36C123.719 60.36 127.719 55.0866 127.719 44.54V27C127.796 24.9246 127.632 22.8473 127.229 20.81C127.129 20.53 126.709 20.27 125.959 20.04C125.175 19.7919 124.377 19.5915 123.569 19.44C122.945 19.2987 122.309 19.215 121.669 19.19C121.479 19.19 121.389 18.91 121.389 18.35C121.345 17.974 121.445 17.5953 121.669 17.29C122.089 17.29 122.799 17.29 123.779 17.4L126.979 17.61C128.129 17.68 129.119 17.72 129.979 17.72C131.199 17.72 132.739 17.64 134.619 17.5C136.499 17.36 137.519 17.29 137.849 17.29C137.941 17.6191 137.991 17.9584 137.999 18.3C137.999 18.86 137.909 19.14 137.719 19.14C137.126 19.1896 136.538 19.2831 135.959 19.42C135.069 19.61 134.239 19.82 133.469 20.06C132.699 20.3 132.259 20.52 132.169 20.76C131.955 21.6604 131.815 22.5768 131.749 23.5C131.649 24.58 131.609 25.85 131.609 27.3V44.38C131.609 49.21 130.919 53.04 129.609 55.88C128.4 58.5588 126.272 60.7159 123.609 61.96C120.593 63.2577 117.331 63.8822 114.049 63.79ZM187.239 64C187.028 63.7114 186.929 63.3562 186.959 63C186.959 62.34 187.049 62 187.239 62C187.978 61.9772 188.71 61.8596 189.419 61.65C190.12 61.5205 190.761 61.1701 191.249 60.65C191.863 59.8218 192.393 58.9341 192.829 58C193.369 56.93 193.939 55.59 194.559 54L206.789 22.57C206.992 22.0864 207.169 21.5924 207.319 21.09C207.389 20.81 207.459 20.56 207.529 20.35C207.599 20.14 207.749 19.78 207.979 19.26C208.247 18.7069 208.583 18.1895 208.979 17.72C209.19 17.5107 209.445 17.3509 209.725 17.2523C210.005 17.1537 210.304 17.1188 210.599 17.15L211.229 17.36L225.289 54.49C225.54 55.1356 225.78 55.724 226.008 56.2809L226.009 56.2843L226.01 56.2849C226.162 56.6582 226.309 57.0173 226.449 57.37C226.6 57.7501 226.742 58.0948 226.873 58.4129L226.873 58.4133C227.045 58.8314 227.198 59.2036 227.329 59.55C227.586 60.0891 228.02 60.5234 228.559 60.78C229.196 61.1284 229.866 61.4131 230.559 61.63C231.069 61.8066 231.601 61.9109 232.139 61.94C232.329 61.94 232.419 62.39 232.419 63.28C232.428 63.3832 232.428 63.4869 232.419 63.59C232.389 63.7218 232.352 63.852 232.309 63.98C229.969 63.89 228.149 63.81 226.859 63.74L226.545 63.723C225.452 63.6636 224.835 63.63 224.579 63.63L216.419 63.98C216.19 63.6399 216.103 63.2232 216.179 62.82C216.179 62.24 216.299 61.94 216.489 61.94C217.205 61.9193 217.915 61.8016 218.599 61.59C219.449 61.36 219.939 61.05 220.079 60.68C220.122 60.4918 220.155 60.3016 220.179 60.11C220.194 59.9237 220.194 59.7364 220.179 59.55C220.169 58.8321 220.098 58.1163 219.969 57.41C219.867 56.7493 219.703 56.0998 219.479 55.47L216.309 46.75C216.265 46.6747 216.204 46.6104 216.131 46.5619C216.058 46.5135 215.976 46.482 215.889 46.47C214.056 46.33 212.276 46.26 210.549 46.26C209.329 46.26 207.979 46.26 206.499 46.37L201.619 46.61L201.259 46.82L198.259 54.56C197.842 55.5301 197.507 56.5336 197.259 57.56C197.12 58.1845 197.04 58.8206 197.019 59.46C196.991 59.7228 197.027 59.9885 197.125 60.2341C197.223 60.4798 197.378 60.698 197.579 60.87C198.184 61.2721 198.865 61.5476 199.579 61.68C200.234 61.8484 200.904 61.9523 201.579 61.99C201.719 61.99 201.799 62.27 201.819 62.84C201.862 63.2394 201.828 63.6434 201.719 64.03L194.479 63.68C193.201 63.5797 191.917 63.5797 190.639 63.68L187.239 64ZM208.059 42.91C210.159 42.91 212.299 42.84 214.449 42.7L214.659 42.34L208.999 26.81L202.949 42.49C202.949 42.67 202.999 42.77 203.089 42.77L206.149 42.87C206.939 42.9 207.589 42.91 208.059 42.91ZM275.554 49.795C276.689 52.6794 278.387 55.3089 280.549 57.53C283.281 60.5532 286.798 62.7585 290.709 63.9C294.42 64.9501 298.349 64.9501 302.059 63.9C305.985 62.7652 309.517 60.5594 312.259 57.53C314.42 55.3076 316.116 52.6779 317.251 49.7938C318.386 46.9096 318.936 43.8286 318.869 40.73C318.91 34.4761 316.543 28.4462 312.259 23.89C310.222 21.7337 307.788 19.9917 305.089 18.76C302.347 17.5276 299.375 16.8904 296.369 16.8904C293.363 16.8904 290.391 17.5276 287.649 18.76C284.954 19.9823 282.527 21.7257 280.509 23.89C278.451 26.1013 276.82 28.6747 275.699 31.48C274.512 34.4182 273.914 37.5611 273.939 40.73C273.87 43.8289 274.419 46.9105 275.554 49.795ZM305.369 58.52C303.205 60.4557 300.393 61.5085 297.489 61.47C294.153 61.5243 290.915 60.3336 288.409 58.13C285.824 55.8918 283.864 53.0218 282.719 49.8C281.494 46.394 280.875 42.7997 280.889 39.18C280.856 35.9196 281.453 32.6834 282.649 29.65C283.694 26.9012 285.413 24.4596 287.649 22.55C289.791 20.7503 292.512 19.7876 295.309 19.84C298.637 19.7903 301.866 20.9688 304.379 23.15C306.972 25.3706 308.938 28.2325 310.079 31.45C311.305 34.8525 311.924 38.4436 311.909 42.06C311.932 45.2132 311.393 48.3453 310.319 51.31C309.326 54.1039 307.62 56.5895 305.369 58.52ZM366.999 64.14C360.512 64.14 354.846 60.76 349.999 54C349.619 53.48 349.139 52.78 348.549 51.89C347.959 51 346.899 49.43 345.359 47.18C344.609 46.1 343.939 45.18 343.359 44.47C342.825 43.7766 342.141 43.2126 341.359 42.82C340.372 42.398 339.302 42.2032 338.229 42.25C337.808 42.2315 337.388 42.3066 336.999 42.47C336.699 42.61 336.549 42.93 336.549 43.47V53.81C336.431 55.8632 336.62 57.9225 337.109 59.92C337.405 60.4073 337.851 60.786 338.379 61C339.132 61.3345 339.92 61.5827 340.729 61.74C341.332 61.8696 341.944 61.9499 342.559 61.98C342.749 61.98 342.839 62.31 342.839 62.98C342.834 63.3179 342.787 63.6538 342.699 63.98C340.359 63.89 338.429 63.79 336.899 63.7C335.788 63.6131 334.673 63.5897 333.559 63.63L324.999 64C324.805 63.6102 324.732 63.1716 324.789 62.74C324.789 62.13 324.859 61.82 324.999 61.82C325.581 61.8072 326.161 61.7368 326.729 61.61C327.405 61.4723 328.073 61.2953 328.729 61.08C329.195 60.9869 329.608 60.7229 329.889 60.34C330.209 59.83 330.379 57.63 330.379 53.74V27.16C330.379 25.8 330.379 24.6 330.269 23.57C330.229 22.7389 330.102 21.9143 329.889 21.11C329.789 20.83 329.429 20.57 328.799 20.34C328.148 20.1001 327.479 19.9096 326.799 19.77C326.23 19.6481 325.651 19.5779 325.069 19.56C324.889 19.56 324.789 19.28 324.789 18.72C324.741 18.2997 324.84 17.8756 325.069 17.52L333.509 17.67C334.869 17.67 336.509 17.67 338.509 17.56C340.509 17.45 342.119 17.38 343.439 17.38C345.937 17.3774 348.41 17.8808 350.709 18.86C352.958 19.789 354.924 21.2925 356.409 23.22C357.913 25.2381 358.691 27.7045 358.619 30.22C358.53 32.4604 357.759 34.6201 356.409 36.41C354.902 38.5927 352.828 40.3217 350.409 41.41C349.939 41.6 349.799 41.83 349.989 42.11C352.019 46.6234 354.719 50.804 357.999 54.51C362.499 59.43 366.166 61.89 368.999 61.89C369.147 62.2021 369.219 62.5448 369.209 62.89C369.214 63.2347 369.142 63.5762 368.999 63.89C368.348 64.0712 367.674 64.1555 366.999 64.14ZM344.319 39.25C345.562 39.2167 346.77 38.8281 347.799 38.13C349.036 37.3263 350.065 36.2397 350.799 34.96C351.637 33.5338 352.066 31.9041 352.039 30.25C352.039 23.7433 348.756 20.4867 342.189 20.48C340.535 20.4236 338.88 20.5883 337.269 20.97C336.849 21.06 336.599 21.83 336.529 23.26C336.459 24.69 336.429 26.5 336.429 28.7V37.21C336.449 38.57 338.479 39.25 342.559 39.25H344.319ZM382.149 64.25C383.336 64.4049 384.532 64.4851 385.729 64.4899C388.248 64.5133 390.737 63.9483 392.999 62.84C395.168 61.8021 397.032 60.2209 398.409 58.25C399.755 56.3009 400.455 53.9782 400.409 51.61C400.446 49.8039 399.918 48.0314 398.899 46.5399C397.855 45.0531 396.587 43.7374 395.139 42.6399C393.639 41.5099 392.249 40.4899 390.639 39.5099C389.641 38.9024 388.677 38.2948 387.737 37.7016C387.16 37.3379 386.592 36.9796 386.029 36.63C384.549 35.7099 383.089 34.7099 381.639 33.63C380.63 32.8758 379.807 31.9006 379.233 30.7791C378.66 29.6575 378.35 28.4195 378.329 27.1599C378.322 25.9672 378.55 24.7848 378.999 23.6799C379.483 22.5502 380.299 21.5944 381.339 20.9399C382.699 20.141 384.264 19.7618 385.839 19.8499C387.559 19.8063 389.25 20.2876 390.689 21.2299C392.012 22.1054 393.117 23.2718 393.919 24.6399C394.684 25.9139 395.209 27.317 395.469 28.7799C395.509 29.2499 396.119 29.4899 397.299 29.4899C397.759 29.4899 397.999 29.3199 397.999 28.9999C398.071 25.6355 397.783 22.273 397.139 18.9699C396.099 18.7399 395.309 18.5299 394.709 18.3399C394.109 18.1499 393.119 17.8899 391.709 17.5599C391.099 17.4199 390.339 17.3 389.429 17.1799C388.461 17.0568 387.485 16.9967 386.509 16.9999C384.17 16.9881 381.859 17.5187 379.759 18.5499C377.731 19.5339 375.989 21.0212 374.699 22.8699C373.392 24.7854 372.717 27.0617 372.769 29.3799C372.739 31.2377 373.239 33.0655 374.209 34.6499C375.172 36.1849 376.398 37.5388 377.829 38.6499C379.22 39.7562 380.676 40.778 382.189 41.7099L384.999 43.3999C385.695 43.8636 386.33 44.1959 386.865 44.4753C387.022 44.5574 387.171 44.635 387.309 44.7099C387.462 44.7926 387.615 44.8746 387.767 44.9566C388.225 45.2021 388.682 45.4476 389.139 45.7099C389.941 46.1967 390.716 46.7276 391.459 47.2999C392.579 48.0572 393.411 49.1708 393.819 50.4599C394.132 51.4615 394.307 52.5011 394.339 53.5499C394.408 54.6708 394.222 55.7926 393.796 56.8316C393.37 57.8706 392.715 58.7999 391.879 59.5499C390.21 60.9733 388.072 61.7254 385.879 61.66C379.732 61.6666 375.839 58.2933 374.199 51.54C373.978 51.3033 373.705 51.122 373.401 51.0108C373.097 50.8996 372.771 50.8616 372.449 50.9C371.699 50.9 371.319 51.04 371.319 51.32C371.371 52.6611 371.511 53.9973 371.739 55.32C372.026 57.1733 372.472 59.5499 373.079 62.45C373.801 62.5628 374.515 62.7164 375.219 62.91C375.979 63.1199 377.249 63.3899 378.979 63.72C379.829 63.91 380.879 64.0799 382.149 64.25Z" fill="#161F32"/>
</svg>
