<svg width="272" height="49" viewBox="0 0 272 49" fill="none" xmlns="http://www.w3.org/2000/svg">
<path d="M185.331 7.95097L177.211 10.5538C177.193 10.2492 177.193 9.94397 177.211 9.63944C177.255 9.26974 177.208 8.89501 177.075 8.54666C176.942 8.19831 176.726 7.88648 176.446 7.63731C175.65 6.76811 174.663 6.08965 173.56 5.65362C172.458 5.2176 171.269 5.03553 170.085 5.12129C169.01 5.16082 167.957 5.42454 166.993 5.89504C166.03 6.36554 165.178 7.03214 164.495 7.85087C164.271 8.08379 164.102 8.36226 163.999 8.66666C163.896 8.97106 163.862 9.294 163.899 9.61275C163.899 9.89305 163.899 10.1733 163.899 10.5538L162.167 10.0465C162.169 10.3271 162.212 10.6059 162.296 10.8741C162.401 11.027 162.462 11.2057 162.472 11.3905C162.481 11.5753 162.439 11.7592 162.35 11.9219C162.451 13.003 162.539 13.924 162.607 14.8583C162.607 14.9518 162.647 15.0252 162.39 15.1386C162.08 15.2484 161.747 15.276 161.423 15.2187C161.132 15.1854 160.969 14.9585 161.044 14.5514C161.179 13.7705 161.28 12.9763 161.382 12.1888C161.382 12.1087 161.233 11.9753 161.186 11.7951C161.145 11.6261 161.145 11.4502 161.186 11.2812C161.212 11.0961 161.267 10.916 161.348 10.7473C161.425 10.6027 161.469 10.4433 161.477 10.2801C161.477 8.39145 161.477 6.50276 161.477 4.62076C161.477 4.04014 161.639 3.80655 162.106 3.79988C164.258 3.79988 166.126 2.61195 168.041 1.6042C168.765 1.21712 169.489 0.816697 170.227 0.46966C170.332 0.41894 170.448 0.392578 170.565 0.392578C170.682 0.392578 170.798 0.41894 170.904 0.46966C175.641 2.91227 180.378 5.37044 185.115 7.84419C185.189 7.87619 185.261 7.91182 185.331 7.95097V7.95097Z" fill="white"/>
<path d="M176.229 10.28C176.121 11.8083 176.229 13.3633 176.229 14.9049V15.5723C172.453 13.3433 168.725 13.1964 164.962 15.5723C164.962 15.272 164.962 15.0784 164.962 14.9049C164.962 13.123 164.962 11.3345 164.962 9.5659C164.975 9.2102 165.095 8.8664 165.307 8.57818C166.237 7.3923 167.58 6.5886 169.076 6.32244C170.107 6.07956 171.181 6.07612 172.213 6.31238C173.245 6.54864 174.208 7.01815 175.025 7.68389L175.153 7.77733C175.544 8.0612 175.849 8.44323 176.039 8.88348C176.228 9.32373 176.294 9.80604 176.229 10.28Z" fill="white"/>
<path d="M160.678 5.375V9.5261L155.718 7.95108L160.678 5.375Z" fill="white"/>
<path d="M176.087 38.2962C176.101 38.2973 176.115 38.3016 176.127 38.3087C176.138 38.3159 176.148 38.3258 176.156 38.3375C176.163 38.3492 176.167 38.3625 176.168 38.3762C176.169 38.3899 176.167 38.4037 176.162 38.4164L173.624 43.0079L173.482 43.2749C173.275 43.7337 172.986 44.1519 172.629 44.5095C172.298 44.7631 171.871 44.7765 170.937 44.7965C170.218 44.8099 169.499 44.7698 168.785 44.6764C168.613 44.6523 168.451 44.5858 168.312 44.4828C168.245 44.4346 168.19 44.3733 168.149 44.3027C167.134 42.5274 165.239 39.0304 164.928 38.3763C164.923 38.3661 164.92 38.3546 164.921 38.3431C164.922 38.3316 164.926 38.3206 164.934 38.3114C164.941 38.3023 164.95 38.2953 164.961 38.2915C164.972 38.2876 164.984 38.2869 164.996 38.2896C165.684 38.3381 166.374 38.2445 167.023 38.0146C167.672 37.7848 168.266 37.4238 168.765 36.9548C170.037 35.9471 171.107 35.9738 172.399 36.9548C173.18 37.6848 174.175 38.1521 175.241 38.2896C175.505 38.3096 175.769 38.3029 176.087 38.2962Z" fill="white"/>
<path d="M171.973 45.9648C171.56 46.7257 171.154 47.4598 170.701 48.2873C170.682 48.3193 170.656 48.3458 170.624 48.3643C170.591 48.3828 170.555 48.3926 170.518 48.3926C170.481 48.3926 170.444 48.3828 170.412 48.3643C170.38 48.3458 170.353 48.3193 170.335 48.2873C169.882 47.4664 169.462 46.719 169.049 45.9648H171.973Z" fill="white"/>
<path d="M176.169 18.3223V35.0067C176.048 35.1425 175.891 35.242 175.715 35.2937C175.346 35.4216 174.952 35.4658 174.563 35.4231C174.174 35.3803 173.8 35.2517 173.468 35.0468C173.114 34.8954 172.818 34.6364 172.623 34.3075C172.428 33.9786 172.345 33.5969 172.386 33.2182C172.447 28.9336 172.386 24.6357 172.426 20.3444C172.426 20.0841 172.426 18.2822 172.426 18.2822H176.006L176.169 18.3223Z" fill="#00924B"/>
<path d="M164.942 18.3223V35.0067C165.062 35.1425 165.22 35.242 165.395 35.2937C165.765 35.4227 166.16 35.4674 166.55 35.4247C166.941 35.3819 167.316 35.2527 167.648 35.0468C168.003 34.8954 168.299 34.6364 168.494 34.3075C168.689 33.9786 168.772 33.5969 168.731 33.2182C168.67 28.9336 168.731 24.6357 168.691 20.3444C168.691 20.0841 168.691 18.2822 168.691 18.2822H165.111L164.942 18.3223Z" fill="#00924B"/>
<path fill-rule="evenodd" clip-rule="evenodd" d="M106.154 41.9742C108 42.7933 110.004 43.2099 112.028 43.1955C117.266 43.1955 121.058 42.5147 123.404 41.1533C123.608 40.8387 123.746 40.4869 123.81 40.1188C123.979 39.4915 124.155 38.7641 124.351 37.9365C124.548 37.109 124.703 36.3281 124.832 35.6608C124.922 35.22 124.986 34.7743 125.021 34.326L124.785 34.1858C124.584 34.0812 124.366 34.0112 124.142 33.979C123.919 33.9363 123.692 33.9117 123.465 33.9056C123.303 33.9056 123.154 34.1658 122.984 34.7064C122.815 35.247 122.592 35.861 122.308 36.5817C122.043 37.2858 121.64 37.932 121.123 38.4838C119.427 40.299 117 41.2067 113.842 41.2067C111.397 41.2662 109.001 40.5323 107.02 39.1178C105.142 37.7815 103.682 35.9526 102.804 33.8388C101.88 31.6213 101.419 29.2422 101.451 26.8447C101.45 25.1752 101.74 23.5181 102.31 21.9461C102.859 20.4042 103.672 18.9664 104.713 17.6949C105.692 16.4641 106.909 15.4366 108.293 14.6717C109.633 13.9408 111.14 13.5595 112.671 13.5638C114.456 13.5125 116.231 13.8331 117.882 14.5049C119.19 15.0502 120.317 15.9447 121.137 17.0876C121.495 17.6059 121.79 18.1636 122.017 18.7494C122.159 19.1765 122.281 19.5903 122.375 19.9974C122.45 20.086 122.546 20.154 122.656 20.1949C122.765 20.2359 122.883 20.2483 122.998 20.231C123.661 20.231 123.993 19.9974 123.993 19.5235L124.088 12.7697C122.154 12.3663 120.2 12.0677 118.234 11.8754C116.298 11.6885 114.397 11.5951 112.529 11.5951C110.43 11.5806 108.352 12.0131 106.438 12.8631C104.565 13.698 102.876 14.886 101.465 16.3602C100.03 17.8585 98.8995 19.6143 98.135 21.5323C97.3347 23.5267 96.9304 25.6542 96.944 27.799C96.9312 31.8386 98.5109 35.7249 101.349 38.6373C102.719 40.044 104.35 41.177 106.154 41.9742ZM19.5535 43.102H22.6732C22.7688 42.486 22.916 41.8789 23.1131 41.2868C23.3364 40.566 23.5394 39.9253 23.7289 39.3647C23.8575 39.011 24.0199 38.5639 24.2094 38.03C24.2401 37.9433 24.2709 37.8559 24.3017 37.7683L24.3017 37.7683C24.4609 37.3161 24.6224 36.8575 24.7981 36.455C24.9812 36.0356 25.1179 35.6671 25.2127 35.4115L25.2515 35.3071C24.9014 35.076 24.4787 34.9766 24.0605 35.0268C23.668 35.0268 23.4447 35.1202 23.3838 35.3071C23.0776 36.3967 22.6052 37.4341 21.9829 38.3837C21.5951 39.0504 21.0581 39.621 20.4129 40.0521C19.3369 40.586 17.3338 40.853 14.4171 40.853H12.1366C10.0725 40.853 8.99654 40.6928 8.9018 40.3791C8.54368 38.9844 8.39772 37.545 8.46869 36.1079V28.8402C8.46869 28.5532 9.61236 28.413 11.8929 28.413C14.8164 28.413 16.4947 28.5398 16.9413 28.7934C17.0818 28.8794 17.2174 28.973 17.3474 29.0737C17.5078 29.3009 17.6269 29.5538 17.6993 29.8212C17.7258 29.9075 17.7523 30.0009 17.7808 30.1015L17.7808 30.1015C17.8251 30.2578 17.8744 30.4313 17.9361 30.6221C18.0303 30.9132 18.1303 31.256 18.247 31.6559L18.2472 31.6563L18.2745 31.7499C18.3557 31.9969 18.6196 32.1237 19.0324 32.1237C19.3017 32.1521 19.5725 32.0859 19.7971 31.9368V23.0673C19.5676 22.8881 19.2762 22.8043 18.985 22.8338C18.5384 22.8338 18.2745 22.9405 18.2745 23.1608C18.1459 23.6012 17.997 24.1485 17.8211 24.8225C17.6451 25.4966 17.4015 25.8637 17.0834 25.9304C16.5759 26.0505 16.2308 26.1506 16.0616 26.2107C15.7768 26.2993 15.4804 26.3465 15.1818 26.3508H12.9892H10.4718C9.11835 26.3508 8.44162 26.2574 8.44162 26.0705V18.5625C8.44162 17.6215 8.46869 16.8207 8.51606 16.1666C8.56343 15.5126 8.61757 14.9921 8.67848 14.6183C8.71006 14.2135 10.1064 14.011 12.8674 14.011H16.0616C17.288 13.9397 18.5121 14.1834 19.6144 14.7184C20.4671 15.2056 21.137 16.3068 21.6107 18.022C21.6513 18.2422 21.8747 18.3556 22.2875 18.3556C22.5935 18.3864 22.9001 18.303 23.1469 18.1221C23.126 18.0024 23.0896 17.842 23.0392 17.6203L23.0392 17.6201C23.0081 17.4831 22.9717 17.3228 22.9304 17.1343C22.8988 16.9903 22.8672 16.8366 22.8336 16.673L22.8335 16.6727L22.8335 16.6726C22.7519 16.2756 22.6585 15.8208 22.5243 15.3057C22.3348 14.5783 22.1792 13.9176 22.0506 13.3036C21.922 12.6896 21.8273 12.169 21.7664 11.7286C21.3698 11.7286 20.9367 11.7379 20.458 11.7483C19.8665 11.761 19.2052 11.7753 18.4572 11.7753L13.8216 11.9154C12.9484 11.9484 12.148 11.97 11.4122 11.9898C10.6596 12.0101 9.97461 12.0286 9.34844 12.0556C8.11002 12.109 7.12877 12.109 6.3979 12.109C6.02831 12.109 5.66739 12.1105 5.31514 12.1121C4.63544 12.115 3.98804 12.1178 3.37293 12.109C2.43905 12.0956 1.5593 12.0689 0.733697 12.0356C0.575309 12.2715 0.50807 12.5557 0.544214 12.8364C0.544214 13.2102 0.605119 13.397 0.733697 13.397C1.12518 13.409 1.51476 13.4559 1.89767 13.5372C2.35828 13.6286 2.81084 13.7558 3.25112 13.9176C3.68423 14.0711 3.92785 14.2446 3.98876 14.4315C4.13891 14.9672 4.22744 15.5179 4.25268 16.0732C4.32035 16.7606 4.32035 17.5615 4.32035 18.4691V18.4691V36.208C4.32486 38.8019 4.21433 40.2701 3.98876 40.6127C3.79909 40.8737 3.52039 41.0585 3.20375 41.1333C2.7605 41.2915 2.30864 41.4251 1.8503 41.5337C1.46935 41.6286 1.07906 41.6823 0.686326 41.6939C0.591584 41.6939 0.544214 41.9008 0.544214 42.3079C0.509233 42.5656 0.559046 42.8276 0.686326 43.0553L6.47234 42.9619H10.2756C11.6877 42.9752 13.2667 42.9975 15.0126 43.0286L19.5535 43.102ZM27.9517 42.388C27.9267 42.6197 27.9765 42.8532 28.0938 43.0554L33.8798 42.9286C34.0837 42.9286 34.2953 42.9272 34.5147 42.9258L34.5155 42.9258C34.9804 42.9228 35.4806 42.9195 36.0183 42.9286C36.3332 42.9339 36.6609 42.9455 37.0015 42.9576C37.5173 42.976 38.0625 42.9953 38.6372 42.9953L42.0209 43.0888C45.0857 43.2479 48.1341 42.5541 50.8183 41.0866C53.2234 39.7333 55.1863 37.7304 56.4758 35.3138C57.8031 32.8111 58.4797 30.0226 58.445 27.1985C58.4699 24.5711 57.7981 21.9829 56.4961 19.6905C55.1707 17.3789 53.228 15.4699 50.8792 14.1712C48.168 12.7151 45.1136 11.9943 42.0276 12.0823H40.6742H38.3936L33.7851 12.109C33.4155 12.109 33.0546 12.1106 32.7023 12.1121C32.0226 12.115 31.3752 12.1178 30.7601 12.109C29.8262 12.0957 28.9465 12.069 28.1209 12.0356C27.9625 12.2716 27.8953 12.5558 27.9314 12.8365C27.9314 13.2102 27.9923 13.3971 28.1209 13.3971C28.5124 13.4091 28.902 13.456 29.2849 13.5372C29.7455 13.6287 30.198 13.7559 30.6383 13.9176C31.0714 14.0711 31.315 14.2447 31.376 14.4315C31.5261 14.9673 31.6146 15.518 31.6399 16.0733C31.7075 16.7607 31.7075 17.5615 31.7075 18.4692V36.2348C31.7075 38.8287 31.597 40.2969 31.376 40.6395C31.1863 40.9005 30.9076 41.0853 30.5909 41.16C30.1477 41.3182 29.6958 41.4519 29.2375 41.5605C28.8632 41.6539 28.4797 41.7076 28.0938 41.7206C27.9991 41.7206 27.9517 41.9431 27.9517 42.388ZM53.6944 26.9582C53.6944 36.2526 50.0469 40.8998 42.7517 40.8998C42.4057 40.8998 42.0074 40.8716 41.489 40.835C41.3889 40.8279 41.2844 40.8206 41.175 40.813C40.4982 40.7663 39.8215 40.7062 39.1448 40.6261C38.5606 40.5619 37.9801 40.4683 37.4056 40.3458C36.9319 40.2324 36.6612 40.1056 36.6003 39.9454C36.1144 38.819 35.8701 37.6056 35.883 36.3816V17.8085C35.883 16.3736 36.0927 15.3859 36.5055 14.852C36.8845 14.3537 38.7861 14.1045 42.2104 14.1045H42.454C44.6413 14.0276 46.7985 14.6248 48.6257 15.813C50.3077 16.9878 51.6189 18.6072 52.4086 20.4846C53.288 22.5311 53.7259 24.7358 53.6944 26.9582ZM77.6776 42.9152C73.9014 42.9152 70.9983 41.8207 68.9681 39.6317C66.9379 37.4427 65.9228 33.9123 65.9228 29.0404V18.3623C65.9228 17.388 65.9228 16.5537 65.8484 15.853C65.8229 15.2894 65.7367 14.7301 65.5912 14.1846C65.5235 13.9977 65.2867 13.8308 64.8739 13.6907C64.4316 13.5419 63.9794 13.4237 63.5204 13.337C63.1468 13.2551 62.7661 13.2082 62.3835 13.1968C62.2549 13.1968 62.194 12.9966 62.194 12.5895C62.1616 12.3237 62.229 12.0554 62.3835 11.8354L68.0883 12.069C68.3455 12.069 68.9342 12.069 69.8546 12.0022L73.6104 11.8354C73.6678 12.0535 73.6995 12.2775 73.7052 12.5028C73.7052 12.9699 73.6443 13.2035 73.5157 13.2035C73.177 13.2257 72.8414 13.2816 72.5141 13.3704C72.0565 13.4708 71.6047 13.5956 71.1607 13.7441C70.7479 13.8842 70.4839 14.0311 70.4839 14.1912C70.1604 15.6233 70.0173 17.0892 70.0576 18.5559V29.0404C70.0576 32.5998 70.8178 35.4139 72.3382 37.4827C73.0612 38.5012 74.0332 39.3233 75.1641 39.8727C76.295 40.4222 77.5482 40.6813 78.8077 40.6261C84.2215 40.6261 86.9284 37.1068 86.9284 30.0682V18.3623C86.9808 16.9773 86.8695 15.5909 86.5968 14.2313C86.5292 14.0444 86.2449 13.8709 85.7374 13.7174C85.2069 13.5518 84.6668 13.4181 84.12 13.317C83.6975 13.2227 83.2671 13.1669 82.8342 13.1501C82.7056 13.1501 82.6447 12.9633 82.6447 12.5895C82.6151 12.3386 82.6828 12.0859 82.8342 11.8821C83.1184 11.8821 83.5989 11.8821 84.2621 11.9555L86.4276 12.0957C87.2059 12.1424 87.8758 12.1691 88.4578 12.1691C89.2834 12.1691 90.3256 12.1157 91.5978 12.0222C92.8701 11.9288 93.5603 11.8821 93.7837 11.8821C93.8456 12.1018 93.8797 12.3282 93.8852 12.5561C93.8852 12.9299 93.8243 13.1167 93.6957 13.1167C93.2945 13.1498 92.8964 13.2123 92.5047 13.3036C91.9024 13.4304 91.3407 13.5706 90.8196 13.7307C90.2985 13.8909 90.0008 14.0377 89.9399 14.1979C89.7951 14.7989 89.7001 15.4104 89.6556 16.0265C89.588 16.7473 89.5609 17.5949 89.5609 18.5626V29.9614C89.5609 33.1848 89.0939 35.7409 88.2074 37.6362C87.3895 39.4241 85.9489 40.8636 84.1471 41.6939C82.1062 42.56 79.8985 42.9768 77.6776 42.9152ZM127.207 43.0554C127.064 42.8628 126.997 42.6257 127.018 42.388C127.018 41.9475 127.079 41.7206 127.207 41.7206C127.707 41.7054 128.203 41.6269 128.682 41.4871C129.157 41.4006 129.591 41.1668 129.921 40.8197C130.336 40.267 130.695 39.6745 130.99 39.0511C131.356 38.337 131.741 37.4427 132.161 36.3816L140.437 15.4059C140.574 15.0831 140.694 14.7534 140.796 14.4182C140.843 14.2313 140.891 14.0645 140.938 13.9243C140.985 13.7842 141.087 13.5439 141.243 13.1969C141.424 12.8277 141.651 12.4824 141.919 12.1691C142.062 12.0294 142.234 11.9228 142.424 11.857C142.614 11.7912 142.816 11.7678 143.016 11.7887L143.442 11.9288L152.957 36.7086C153.127 37.1406 153.29 37.5341 153.444 37.9066C153.548 38.1557 153.647 38.3953 153.742 38.6307C153.844 38.8845 153.94 39.1146 154.029 39.327C154.145 39.606 154.249 39.8544 154.337 40.0856C154.511 40.4453 154.805 40.7352 155.17 40.9064C155.601 41.1389 156.054 41.3289 156.523 41.4737C156.868 41.5915 157.228 41.6612 157.592 41.6806C157.721 41.6806 157.782 41.9809 157.782 42.5749C157.788 42.6437 157.788 42.7129 157.782 42.7818C157.761 42.8697 157.737 42.9566 157.707 43.042C156.124 42.982 154.892 42.9286 154.019 42.8819L153.807 42.8705C153.067 42.8308 152.65 42.8085 152.476 42.8085L146.954 43.042C146.799 42.8151 146.741 42.537 146.792 42.2679C146.792 41.8808 146.873 41.6806 147.002 41.6806C147.486 41.6668 147.966 41.5882 148.429 41.447C149.005 41.2935 149.336 41.0866 149.431 40.8397C149.46 40.7141 149.483 40.5871 149.499 40.4593C149.509 40.3349 149.509 40.2099 149.499 40.0856C149.492 39.6064 149.444 39.1287 149.357 38.6574C149.288 38.2164 149.177 37.7829 149.025 37.3627L146.88 31.5431C146.85 31.4929 146.809 31.4499 146.759 31.4176C146.71 31.3852 146.654 31.3643 146.595 31.3562C145.355 31.2628 144.15 31.2161 142.982 31.2161C142.156 31.2161 141.243 31.2161 140.241 31.2895L136.939 31.4497L136.695 31.5898L134.665 36.7553C134.382 37.4027 134.156 38.0725 133.988 38.7575C133.894 39.1742 133.839 39.5987 133.826 40.0255C133.807 40.2009 133.831 40.3782 133.897 40.5421C133.963 40.7061 134.069 40.8517 134.205 40.9665C134.614 41.2348 135.075 41.4187 135.558 41.5071C136.001 41.6195 136.455 41.6888 136.911 41.714C137.006 41.714 137.06 41.9008 137.074 42.2812C137.103 42.5478 137.08 42.8174 137.006 43.0754L132.107 42.8418C131.242 42.7749 130.373 42.7749 129.508 42.8418L127.207 43.0554ZM141.297 28.9804C142.718 28.9804 144.166 28.9337 145.621 28.8402L145.763 28.6L141.933 18.2356L137.839 28.7001C137.839 28.8202 137.872 28.8869 137.933 28.8869L140.004 28.9537C140.539 28.9737 140.979 28.9804 141.297 28.9804ZM186.972 33.5753C187.74 35.5003 188.89 37.2551 190.353 38.7374C192.201 40.755 194.581 42.2268 197.228 42.9886C199.739 43.6895 202.398 43.6895 204.909 42.9886C207.566 42.2313 209.956 40.7592 211.812 38.7374C213.274 37.2543 214.422 35.4992 215.19 33.5744C215.958 31.6496 216.33 29.5934 216.285 27.5255C216.313 23.3518 214.711 19.3275 211.812 16.2868C210.433 14.8477 208.786 13.6851 206.96 12.8632C205.104 12.0407 203.093 11.6154 201.059 11.6154C199.024 11.6154 197.013 12.0407 195.158 12.8632C193.334 13.6789 191.691 14.8424 190.326 16.2868C188.933 17.7626 187.829 19.48 187.071 21.3522C186.267 23.3131 185.863 25.4106 185.88 27.5255C185.833 29.5936 186.204 31.6502 186.972 33.5753ZM207.149 39.3981C205.684 40.69 203.781 41.3926 201.816 41.3669C199.558 41.4032 197.368 40.6085 195.672 39.1379C193.923 37.6441 192.596 35.7287 191.821 33.5786C190.992 31.3055 190.573 28.9067 190.583 26.491C190.56 24.3151 190.965 22.1554 191.774 20.1309C192.481 18.2965 193.644 16.6669 195.158 15.3925C196.607 14.1915 198.448 13.549 200.341 13.5839C202.593 13.5508 204.778 14.3373 206.479 15.793C208.234 17.2749 209.564 19.1849 210.336 21.3322C211.166 23.603 211.585 25.9996 211.575 28.4131C211.59 30.5175 211.226 32.6078 210.499 34.5863C209.827 36.4509 208.672 38.1098 207.149 39.3981ZM248.856 43.1488C244.466 43.1488 240.631 40.8931 237.351 36.3816C237.094 36.0346 236.769 35.5674 236.37 34.9734C235.971 34.3795 235.253 33.3317 234.211 31.8301C233.704 31.1093 233.25 30.4953 232.858 30.0215C232.496 29.5587 232.034 29.1823 231.504 28.9203C230.836 28.6387 230.112 28.5087 229.386 28.5399C229.101 28.5275 228.817 28.5777 228.554 28.6867C228.351 28.7802 228.249 28.9937 228.249 29.3541V36.2548C228.17 37.625 228.297 38.9994 228.628 40.3325C228.829 40.6577 229.13 40.9104 229.488 41.0532C229.997 41.2764 230.531 41.4421 231.078 41.5471C231.486 41.6336 231.9 41.6872 232.316 41.7073C232.445 41.7073 232.506 41.9275 232.506 42.3747C232.503 42.6001 232.471 42.8243 232.411 43.042C230.828 42.982 229.522 42.9152 228.486 42.8552C227.734 42.7972 226.98 42.7816 226.226 42.8085L220.433 43.0554C220.302 42.7952 220.253 42.5025 220.291 42.2145C220.291 41.8074 220.338 41.6005 220.433 41.6005C220.827 41.5919 221.219 41.545 221.604 41.4603C222.062 41.3684 222.514 41.2503 222.957 41.1066C223.272 41.0445 223.552 40.8683 223.742 40.6128C223.959 40.2724 224.074 38.8042 224.074 36.2081V18.4692C224.074 17.5615 224.074 16.7607 224 16.0733C223.973 15.5186 223.886 14.9683 223.742 14.4315C223.675 14.2446 223.431 14.0711 223.005 13.9176C222.564 13.7575 222.111 13.6304 221.651 13.5372C221.266 13.4559 220.874 13.409 220.481 13.3971C220.359 13.3971 220.291 13.2102 220.291 12.8365C220.258 12.556 220.325 12.2729 220.481 12.0356L226.192 12.1357C227.112 12.1357 228.222 12.1357 229.576 12.0623C230.929 11.9889 232.019 11.9422 232.912 11.9422C234.603 11.9404 236.276 12.2764 237.832 12.9299C239.354 13.5499 240.684 14.5533 241.689 15.8397C242.707 17.1865 243.234 18.8325 243.185 20.5113C243.125 22.0065 242.603 23.4479 241.689 24.6424C240.67 26.0991 239.266 27.253 237.629 27.9793C237.311 28.1061 237.216 28.2596 237.345 28.4465C238.718 31.4586 240.546 34.2486 242.765 36.722C245.81 40.0055 248.292 41.6472 250.209 41.6472C250.309 41.8555 250.358 42.0842 250.351 42.3146C250.354 42.5447 250.306 42.7726 250.209 42.982C249.769 43.1029 249.313 43.1591 248.856 43.1488ZM233.508 26.5378C234.349 26.5156 235.166 26.2562 235.863 25.7903C236.7 25.2539 237.396 24.5287 237.893 23.6747C238.46 22.7229 238.75 21.6353 238.732 20.5314C238.732 16.1889 236.51 14.0155 232.066 14.0111C230.946 13.9734 229.827 14.0834 228.737 14.3381C228.452 14.3981 228.283 14.912 228.236 15.8664C228.188 16.8207 228.168 18.0287 228.168 19.4969V25.1763C228.182 26.0839 229.555 26.5378 232.316 26.5378H233.508ZM259.108 43.2222C259.912 43.3256 260.721 43.3791 261.531 43.3824C263.235 43.398 264.92 43.0209 266.451 42.2812C267.919 41.5886 269.18 40.5333 270.112 39.2179C271.023 37.9172 271.496 36.367 271.465 34.7865C271.49 33.5812 271.133 32.3983 270.443 31.4029C269.737 30.4106 268.879 29.5325 267.899 28.8001C266.884 28.046 265.943 27.3653 264.854 26.7112C264.178 26.3057 263.526 25.9001 262.889 25.5041C262.499 25.2615 262.114 25.0225 261.734 24.7892C260.732 24.1752 259.744 23.5078 258.763 22.7871C258.08 22.2837 257.523 21.6329 257.135 20.8844C256.747 20.136 256.537 19.3097 256.523 18.4691C256.518 17.6731 256.673 16.884 256.977 16.1466C257.304 15.3926 257.856 14.7548 258.56 14.318C259.48 13.7848 260.54 13.5317 261.605 13.5906C262.769 13.5614 263.914 13.8827 264.887 14.5116C265.783 15.0958 266.53 15.8743 267.073 16.7873C267.591 17.6376 267.946 18.5739 268.122 19.5503C268.149 19.8639 268.562 20.0241 269.361 20.0241C269.672 20.0241 269.834 19.9106 269.834 19.6971C269.883 17.4517 269.688 15.2077 269.252 13.0033C268.549 12.8498 268.014 12.7096 267.608 12.5828C267.202 12.456 266.532 12.2825 265.578 12.0623C265.165 11.9688 264.651 11.8888 264.035 11.8087C263.379 11.7265 262.719 11.6864 262.059 11.6885C260.476 11.6807 258.912 12.0347 257.491 12.723C256.118 13.3797 254.939 14.3723 254.067 15.6061C253.182 16.8844 252.725 18.4035 252.76 19.9507C252.74 21.1905 253.078 22.4104 253.735 23.4678C254.387 24.4922 255.216 25.3957 256.185 26.1373C257.126 26.8756 258.111 27.5575 259.135 28.1795L261.037 29.3073C261.508 29.6168 261.938 29.8386 262.3 30.025C262.406 30.0798 262.506 30.1316 262.6 30.1816C262.703 30.2368 262.807 30.2915 262.91 30.3462C263.22 30.5101 263.529 30.6739 263.839 30.849C264.381 31.1739 264.905 31.5281 265.409 31.9101C266.167 32.4155 266.729 33.1587 267.006 34.019C267.218 34.6874 267.336 35.3812 267.358 36.0812C267.404 36.8293 267.278 37.578 266.99 38.2714C266.702 38.9648 266.258 39.5849 265.693 40.0855C264.563 41.0354 263.116 41.5373 261.632 41.4937C257.473 41.4981 254.838 39.2468 253.728 34.7398C253.579 34.5818 253.394 34.4608 253.188 34.3866C252.982 34.3124 252.762 34.2871 252.544 34.3127C252.036 34.3127 251.779 34.4061 251.779 34.593C251.814 35.488 251.909 36.3798 252.063 37.2625C252.257 38.4994 252.56 40.0855 252.97 42.0209C253.458 42.0962 253.942 42.1987 254.418 42.3279C254.933 42.468 255.792 42.6482 256.963 42.8685C257.538 42.9953 258.249 43.1087 259.108 43.2222Z" fill="white"/>
</svg>
