<svg width="61" height="61" viewBox="0 0 61 61" fill="none" xmlns="http://www.w3.org/2000/svg">
<path d="M56.1055 22.3496C56.1055 22.0844 56.0001 21.83 55.8126 21.6425C55.625 21.455 55.3707 21.3496 55.1055 21.3496H38.1055V5.34961C38.1055 5.08439 38.0001 4.83004 37.8126 4.6425C37.625 4.45497 37.3707 4.34961 37.1055 4.34961C36.1001 4.355 35.0968 4.44196 34.1055 4.60961V1.34961C34.1055 1.08439 34.0001 0.830039 33.8126 0.642503C33.625 0.454966 33.3707 0.349609 33.1055 0.349609H9.10547C8.84036 0.351584 8.58615 0.455414 8.39547 0.639609L0.395469 8.63961C0.211273 8.83029 0.107443 9.0845 0.105469 9.34961V59.3496C0.105469 59.6148 0.210826 59.8692 0.398362 60.0567C0.585898 60.2443 0.840252 60.3496 1.10547 60.3496H33.1055C33.3707 60.3496 33.625 60.2443 33.8126 60.0567C34.0001 59.8692 34.1055 59.6148 34.1055 59.3496V42.0896C35.0968 42.2573 36.1001 42.3442 37.1055 42.3496C42.1432 42.3451 46.9733 40.3419 50.5355 36.7797C54.0977 33.2175 56.101 28.3873 56.1055 23.3496C56.1055 23.0796 56.0955 22.8096 56.0855 22.5396C56.0976 22.477 56.1043 22.4134 56.1055 22.3496ZM36.1055 6.37961V21.9396L23.9455 34.0996C21.9624 31.6754 20.6881 28.7502 20.2631 25.6472C19.8381 22.5443 20.279 19.3842 21.5372 16.516C22.7954 13.6479 24.8218 11.1833 27.3927 9.39454C29.9636 7.60576 32.9788 6.56236 36.1055 6.37961ZM8.10547 3.75961V8.34961H3.51547L8.10547 3.75961ZM32.1055 58.3496H2.10547V10.3496H9.10547C9.37069 10.3496 9.62504 10.2443 9.81258 10.0567C10.0001 9.86918 10.1055 9.61483 10.1055 9.34961V2.34961H32.1055V5.03961C28.0853 6.13123 24.5361 8.5156 22.0057 11.8247C19.4753 15.1339 18.1043 19.1839 18.1043 23.3496C18.1043 27.5154 19.4753 31.5653 22.0057 34.8745C24.5361 38.1836 28.0853 40.568 32.1055 41.6596V58.3496ZM37.1055 40.3496C32.6986 40.3498 28.4654 38.6314 25.3055 35.5596L37.5155 23.3496H54.1055C54.0991 27.8563 52.306 32.1767 49.1193 35.3634C45.9325 38.5502 41.6122 40.3433 37.1055 40.3496Z" fill="#EEEEEE"/>
<path d="M41.1055 19.3496H59.1055V19.3436C59.2386 19.3406 59.3698 19.3108 59.4912 19.2561C59.6126 19.2014 59.7217 19.1228 59.8121 19.025C59.9025 18.9272 59.9723 18.8123 60.0174 18.687C60.0625 18.5617 60.0819 18.4286 60.0745 18.2956C59.8091 13.4453 57.6945 8.88126 54.1658 5.54291C50.6372 2.20456 45.963 0.345944 41.1055 0.349615C40.8403 0.349615 40.5859 0.454972 40.3984 0.642508C40.2108 0.830044 40.1055 1.0844 40.1055 1.34961V18.3496C40.1055 18.6148 40.2108 18.8692 40.3984 19.0567C40.5859 19.2443 40.8403 19.3496 41.1055 19.3496ZM57.9875 17.3496H42.1055V2.37861C46.0899 2.61024 49.8654 4.23765 52.7696 6.97527C55.6738 9.71289 57.5212 13.3858 57.9875 17.3496Z" fill="#EEEEEE"/>
<path d="M17.1055 38.3496C15.3254 38.3496 13.5854 38.8774 12.1053 39.8664C10.6253 40.8553 9.47175 42.2609 8.79056 43.9055C8.10937 45.55 7.93114 47.3596 8.27841 49.1054C8.62567 50.8513 9.48284 52.4549 10.7415 53.7136C12.0002 54.9722 13.6038 55.8294 15.3497 56.1767C17.0955 56.5239 18.9051 56.3457 20.5496 55.6645C22.1942 54.9833 23.5998 53.8298 24.5887 52.3497C25.5776 50.8697 26.1055 49.1296 26.1055 47.3496C26.1018 44.9638 25.1524 42.6768 23.4653 40.9897C21.7783 39.3027 19.4913 38.3533 17.1055 38.3496ZM17.1055 54.3496C15.721 54.3496 14.3676 53.9391 13.2165 53.1699C12.0653 52.4007 11.1681 51.3075 10.6383 50.0284C10.1085 48.7493 9.96988 47.3418 10.24 45.984C10.5101 44.6261 11.1768 43.3788 12.1557 42.3999C13.1347 41.4209 14.382 40.7542 15.7398 40.4841C17.0977 40.214 18.5052 40.3526 19.7843 40.8825C21.0633 41.4123 22.1566 42.3095 22.9258 43.4606C23.6949 44.6118 24.1055 45.9651 24.1055 47.3496C24.1034 49.2055 23.3652 50.9847 22.0529 52.297C20.7406 53.6093 18.9613 54.3475 17.1055 54.3496Z" fill="#EEEEEE"/>
<path d="M20.1055 49.3496C20.1023 49.9682 19.9086 50.5708 19.5507 51.0754C19.1929 51.58 18.6882 51.962 18.1055 52.1696V53.3496H16.1055V52.1696C15.5227 51.962 15.0181 51.58 14.6602 51.0754C14.3024 50.5708 14.1087 49.9682 14.1055 49.3496H16.1055C16.1055 49.5474 16.1641 49.7407 16.274 49.9052C16.3839 50.0696 16.5401 50.1978 16.7228 50.2735C16.9055 50.3492 17.1066 50.369 17.3006 50.3304C17.4945 50.2918 17.6727 50.1966 17.8126 50.0567C17.9524 49.9169 18.0477 49.7387 18.0863 49.5447C18.1248 49.3507 18.105 49.1497 18.0293 48.9669C17.9537 48.7842 17.8255 48.628 17.661 48.5181C17.4966 48.4083 17.3033 48.3496 17.1055 48.3496C16.4019 48.3442 15.7227 48.0916 15.1865 47.6361C14.6503 47.1806 14.2912 46.5511 14.1721 45.8577C14.0529 45.1643 14.1813 44.4511 14.5347 43.8427C14.8881 43.2344 15.4441 42.7696 16.1055 42.5296V41.3496H18.1055V42.5296C18.6882 42.7372 19.1929 43.1192 19.5507 43.6238C19.9086 44.1284 20.1023 44.731 20.1055 45.3496H18.1055C18.1055 45.1518 18.0468 44.9585 17.9369 44.794C17.8271 44.6296 17.6709 44.5014 17.4882 44.4257C17.3054 44.35 17.1044 44.3302 16.9104 44.3688C16.7164 44.4074 16.5382 44.5026 16.3984 44.6425C16.2585 44.7824 16.1633 44.9605 16.1247 45.1545C16.0861 45.3485 16.1059 45.5496 16.1816 45.7323C16.2573 45.915 16.3854 46.0712 16.5499 46.1811C16.7143 46.291 16.9077 46.3496 17.1055 46.3496C17.9004 46.352 18.6621 46.6688 19.2242 47.2309C19.7863 47.793 20.1031 48.5547 20.1055 49.3496Z" fill="#EEEEEE"/>
<path d="M6.10547 14.3496H16.1055V16.3496H6.10547V14.3496Z" fill="#EEEEEE"/>
<path d="M6.10547 20.3496H16.1055V22.3496H6.10547V20.3496Z" fill="#EEEEEE"/>
<path d="M6.10547 26.3496H16.1055V28.3496H6.10547V26.3496Z" fill="#EEEEEE"/>
<path d="M6.10547 32.3496H16.1055V34.3496H6.10547V32.3496Z" fill="#EEEEEE"/>
<path d="M38.1055 46.3496H42.1055V48.3496H38.1055V46.3496Z" fill="#EEEEEE"/>
<path d="M44.1055 46.3496H60.1055V48.3496H44.1055V46.3496Z" fill="#EEEEEE"/>
<path d="M38.1055 52.3496H42.1055V54.3496H38.1055V52.3496Z" fill="#EEEEEE"/>
<path d="M44.1055 52.3496H60.1055V54.3496H44.1055V52.3496Z" fill="#EEEEEE"/>
<path d="M38.1055 58.3496H42.1055V60.3496H38.1055V58.3496Z" fill="#EEEEEE"/>
<path d="M44.1055 58.3496H60.1055V60.3496H44.1055V58.3496Z" fill="#EEEEEE"/>
</svg>
