<svg width="66" height="65" viewBox="0 0 66 65" fill="none" xmlns="http://www.w3.org/2000/svg">
<path d="M32.9979 51.3313C33.5313 51.3313 33.9636 50.8989 33.9636 50.3656C33.9636 49.8323 33.5313 49.3999 32.9979 49.3999C32.4646 49.3999 32.0322 49.8323 32.0322 50.3656C32.0322 50.8989 32.4646 51.3313 32.9979 51.3313Z" fill="#EEEEEE"/>
<path d="M22.5938 30.4058H5.96739C4.98161 30.4058 4.17969 31.2077 4.17969 32.1935V36.2533C4.17969 37.2391 4.98161 38.041 5.96739 38.041H14.0999L15.5951 39.386C15.9359 39.6927 16.3632 39.8461 16.7907 39.8461C17.2181 39.8459 17.6456 39.6927 17.9864 39.3861L19.4815 38.041H22.5938C23.5796 38.041 24.3815 37.2391 24.3815 36.2533V32.1935C24.3815 31.2077 23.5796 30.4058 22.5938 30.4058ZM22.4501 36.1095H19.4264C18.9841 36.1095 18.5596 36.2723 18.2308 36.5681L16.7907 37.8636L15.3507 36.5681C15.0218 36.2723 14.5972 36.1095 14.155 36.1095H6.11109V32.3372H22.4501V36.1095Z" fill="#EEEEEE"/>
<path d="M63.0875 11.3833H55.1222C54.5497 10.9065 53.8789 10.5445 53.1457 10.3303C52.7634 4.69998 48.0639 0.235352 42.3383 0.235352H41.6835C35.9773 0.235352 31.2905 4.66998 30.8806 10.2734C30.066 10.4769 29.3226 10.8618 28.6963 11.3833H12.514C11.9806 11.3833 11.5482 11.8157 11.5482 12.349C11.5482 12.8823 11.9806 13.3147 12.514 13.3147H27.2133C26.8894 14.0157 26.7072 14.7952 26.7072 15.6168C26.7072 18.6539 29.178 21.1246 32.215 21.1246C32.3932 21.1246 32.5708 21.1134 32.7475 21.0964C33.3476 23.9464 34.7609 26.2054 36.9631 27.835C36.9631 27.835 36.9503 31.2272 36.9394 31.2402C36.9387 31.2409 36.9381 31.2416 36.9374 31.2424C36.927 31.2542 29.4484 34.2074 29.4484 34.2074C28.1587 34.7159 27.1057 35.7383 26.5592 37.0124C25.4142 39.6822 24.8218 42.5054 24.7939 45.4067H1.96656V14.2562C1.96656 13.737 2.38889 13.3147 2.90805 13.3147H8.87648C9.4098 13.3147 9.84218 12.8823 9.84218 12.349C9.84218 11.8157 9.4098 11.3833 8.87648 11.3833H2.90805C1.32392 11.3833 0.0351562 12.672 0.0351562 14.2562V52.4513C0.0351562 54.0355 1.32392 55.3242 2.90805 55.3242H25.5459L24.5373 62.3039H22.3582C21.8249 62.3039 21.3925 62.7363 21.3925 63.2696C21.3925 63.803 21.8249 64.2353 22.3582 64.2353H43.6372C44.1705 64.2353 44.6029 63.803 44.6029 63.2696C44.6029 62.7363 44.1705 62.3039 43.6372 62.3039H41.4581L40.4495 55.3242H49.8746C50.4079 55.3242 50.8403 54.8919 50.8403 54.3585C50.8403 53.8252 50.4079 53.3928 49.8746 53.3928H2.90805C2.38889 53.3928 1.96656 52.9705 1.96656 52.4513V47.3384H64.029V52.4513C64.029 52.9705 63.6066 53.3928 63.0875 53.3928H53.7377C53.2044 53.3928 52.772 53.8252 52.772 54.3585C52.772 54.8919 53.2044 55.3242 53.7377 55.3242H63.0875C64.6716 55.3242 65.9604 54.0355 65.9604 52.4513V14.2562C65.9604 12.672 64.6716 11.3833 63.0875 11.3833ZM27.4973 55.3242H38.4981L39.5066 62.3039H26.4888L27.4973 55.3242ZM55.1798 15.6169C55.1798 17.5889 53.5754 19.1934 51.6034 19.1934C51.5846 19.1934 51.5659 19.1922 51.5471 19.1919C51.7476 16.7174 51.3879 14.2266 50.8768 12.1144C51.1146 12.0655 51.3579 12.0405 51.6034 12.0405C53.5754 12.0405 55.1798 13.6448 55.1798 15.6169ZM35.3439 11.3547C36.0294 8.97534 38.0456 7.21518 40.4804 6.87049L40.6116 6.85234C41.5402 6.72654 42.4817 6.72654 43.4098 6.85234L43.5419 6.87062C45.9737 7.21493 47.9866 8.96388 48.6698 11.3262C48.9007 12.1247 49.0846 12.8809 49.2302 13.5989C47.0977 13.2419 45.4582 11.9945 44.3488 9.87975C44.1909 9.57896 43.8859 9.38467 43.5467 9.36561C43.2081 9.34642 42.8824 9.50853 42.692 9.78975C42.5847 9.94812 40.0764 13.5644 34.689 14.1672C34.8742 13.1201 35.1121 12.1594 35.3439 11.3547ZM41.6835 2.16675H42.3383C46.9287 2.16675 50.718 5.6586 51.1917 10.1254C50.9074 10.1465 50.6259 10.1897 50.3494 10.2538C49.3192 7.43575 46.8094 5.38254 43.8125 4.95828L43.6695 4.93845C42.569 4.78921 41.4528 4.78934 40.3529 4.93845L40.2096 4.95828C37.2023 5.38409 34.6844 7.45687 33.657 10.3016C33.3853 10.2282 33.1089 10.1746 32.8279 10.1436C33.2931 5.668 37.0869 2.16675 41.6835 2.16675ZM28.6387 15.6169C28.6387 13.645 30.2431 12.0405 32.2152 12.0405C32.5295 12.0405 32.8371 12.0809 33.1349 12.1601C32.6585 14.1519 32.2753 16.6694 32.4759 19.1831C32.3892 19.1894 32.3023 19.1934 32.215 19.1934C30.2431 19.1932 28.6387 17.5889 28.6387 15.6169ZM34.4413 19.4677C34.3168 18.352 34.3295 17.22 34.4256 16.1318C39.0817 15.7575 41.9984 13.4145 43.3698 11.9798C45.1856 14.5602 47.602 15.394 49.5481 15.5881C50.2076 24.1389 46.1178 26.1816 45.316 26.6898C43.3252 27.9514 40.7569 27.968 38.7727 26.7316C36.2621 25.1673 34.8048 22.7234 34.4413 19.4677ZM45.1379 31.3759C44.151 31.7802 43.0848 31.9921 42.011 31.9921C40.9371 31.9921 39.8709 31.7802 38.884 31.3759C38.8906 31.3096 38.8947 28.9585 38.8947 28.9585C39.8843 29.3703 40.9421 29.5772 42.0018 29.5771C43.0653 29.577 44.1299 29.3689 45.1274 28.9549C45.1274 28.9549 45.1314 31.3096 45.1379 31.3759ZM51.2423 45.4069H44.9246V41.8785C44.9246 41.7819 45.0031 41.7033 45.0997 41.7033H51.0671C51.1636 41.7033 51.2422 41.7819 51.2422 41.8785V45.4069H51.2423ZM53.1737 45.4069V41.8785C53.1737 40.7169 52.2288 39.7719 51.0672 39.7719H45.0998C43.9383 39.7719 42.9933 40.7169 42.9933 41.8785V45.4069H26.7242C26.752 42.7687 27.2932 40.2017 28.3345 37.7737C28.6792 36.97 29.3433 36.325 30.1568 36.0043C30.1568 36.0043 37.7112 33.0195 37.7619 32.9944C39.0872 33.6036 40.5439 33.9235 42.011 33.9235C43.4781 33.9235 44.9347 33.6036 46.2601 32.9944C46.3108 33.0195 53.865 36.0043 53.865 36.0043C54.6785 36.325 55.3428 36.97 55.6874 37.7737C56.7287 40.2017 57.2698 42.7687 57.2976 45.4069H53.1737ZM64.029 45.4069H59.2279C59.2 42.5055 58.6075 39.6823 57.4626 37.0125C56.9161 35.7384 55.8631 34.716 54.5735 34.2076C54.5735 34.2076 47.095 31.2545 47.0844 31.2425C47.0837 31.2417 47.083 31.2409 47.0822 31.2402C47.0713 31.227 47.0568 27.856 47.0557 27.8368C47.7336 27.334 48.3416 26.767 48.8695 26.1446C48.8702 26.144 48.8706 26.1432 48.8712 26.1424C49.5032 25.3969 50.0333 24.5565 50.4471 23.6443C50.8175 22.8276 51.0848 21.9782 51.2692 21.1137C51.3805 21.1204 51.492 21.1248 51.6032 21.1248C54.6403 21.1248 57.1111 18.654 57.1111 15.6169C57.1111 14.7953 56.929 14.0158 56.605 13.3148H63.0874C63.6065 13.3148 64.0288 13.7371 64.0288 14.2563V45.4069H64.029Z" fill="#EEEEEE"/>
<path d="M24.3815 20.0563C24.3815 19.0705 23.5796 18.2686 22.5938 18.2686H5.96739C4.98161 18.2686 4.17969 19.0705 4.17969 20.0563V24.1161C4.17969 25.1019 4.98161 25.9038 5.96739 25.9038H9.07966L10.5748 27.2489C10.9156 27.5555 11.3431 27.7089 11.7705 27.7089C12.198 27.7089 12.6253 27.5555 12.9662 27.2489L14.4613 25.9038H22.5938C23.5796 25.9038 24.3815 25.1019 24.3815 24.1161V20.0563ZM22.4501 23.9724H14.4062C13.9639 23.9724 13.5394 24.1353 13.2105 24.431L11.7705 25.7266L10.3304 24.431C10.0016 24.1353 9.57706 23.9724 9.13477 23.9724H6.11109V20.2001H22.4501V23.9724Z" fill="#EEEEEE"/>
</svg>
