<svg width="64" height="65" viewBox="0 0 64 65" fill="none" xmlns="http://www.w3.org/2000/svg">
<path d="M4.3727 45.1995C2.31199 45.1995 0.635254 43.5226 0.635254 41.4621C0.635254 39.4015 2.31219 37.7246 4.3727 37.7246C6.43322 37.7246 8.11015 39.4015 8.11015 41.4621C8.11015 43.5226 6.43322 45.1995 4.3727 45.1995ZM4.3727 39.8603C3.48937 39.8603 2.77097 40.5787 2.77097 41.4621C2.77097 42.3454 3.48957 43.0638 4.3727 43.0638C5.25584 43.0638 5.97444 42.3452 5.97444 41.4621C5.97444 40.5789 5.25584 39.8603 4.3727 39.8603Z" fill="#EEEEEE"/>
<path d="M3.83838 16.3677H5.97409V17.4354H3.83838V16.3677Z" fill="#EEEEEE"/>
<path d="M5.97409 35.4701H3.83838V33.2156H5.97409V35.4701ZM5.97409 30.9613H3.83838V28.7068H5.97409V30.9613ZM5.97409 26.4527H3.83838V24.1982H5.97409V26.4527ZM5.97409 21.9441H3.83838V19.6895H5.97409V21.9441Z" fill="#EEEEEE"/>
<path d="M3.83838 37.7246H5.97409V38.7924H3.83838V37.7246Z" fill="#EEEEEE"/>
<path d="M14.4104 38.2483C12.5146 38.2483 10.9722 36.5282 10.9722 34.4144C10.9722 33.4785 11.2797 32.5811 11.8378 31.8872C12.4519 31.0675 13.3979 30.5811 14.4104 30.5811C14.8984 30.5811 15.3186 30.6766 15.6952 30.8735C16.0477 31.0575 16.2688 31.422 16.2688 31.8199V36.3902C16.2688 36.5841 16.2787 36.7682 16.2887 36.9522C16.3116 37.3803 16.0764 37.7812 15.6906 37.9694C15.6666 37.9809 15.6047 38.0074 15.5796 38.0174C15.5546 38.0277 15.4909 38.0528 15.4648 38.0607L15.1551 38.1572C15.0914 38.1771 15.0263 38.191 14.9605 38.1984C14.7842 38.2322 14.607 38.2483 14.4104 38.2483ZM14.1331 32.7574C13.9021 32.8256 13.6888 32.978 13.5241 33.1974C13.2477 33.5416 13.1081 33.964 13.1081 34.4144C13.1081 35.2267 13.5476 35.9077 14.1333 36.074L14.1331 32.7574Z" fill="#EEEEEE"/>
<path d="M32.6062 38.2483C32.1671 38.2483 31.7244 38.1515 31.3271 37.9684C30.8928 37.7687 30.6445 37.3051 30.7185 36.8332C30.7414 36.6856 30.7482 36.5453 30.7482 36.39V31.8199C30.7482 31.4294 30.9614 31.0701 31.304 30.8829C31.6701 30.6827 32.1086 30.5811 32.606 30.5811C33.6447 30.6123 34.5509 31.081 35.1802 31.8685C35.747 32.591 36.0551 33.4927 36.0551 34.4146C36.0553 36.5282 34.5083 38.2483 32.6062 38.2483ZM32.8841 32.7585V36.0726C33.468 35.9027 33.9196 35.2124 33.9196 34.4146C33.9196 33.9745 33.769 33.5293 33.5062 33.194C33.3329 32.9774 33.1171 32.8274 32.8841 32.7585Z" fill="#EEEEEE"/>
<path d="M12.6698 33.6242C12.5811 33.6242 12.4915 33.6132 12.4028 33.5904C11.984 33.4823 11.6719 33.132 11.6124 32.704L10.9825 28.1871C10.9757 28.1382 10.9722 28.089 10.9722 28.0395C10.9722 24.7228 12.515 21.55 15.205 19.3341C17.5341 17.4017 20.5641 16.3359 23.7327 16.3359H25.1855C25.4942 16.3359 25.8121 16.3642 26.1872 16.4241C27.5714 16.6753 28.7608 17.4007 29.5502 18.4504H29.6274C31.3871 18.4504 33.0109 19.1735 34.199 20.4864C35.5662 21.997 36.2585 24.1415 36.0506 26.2225L35.912 27.6215C35.9052 27.6872 35.8927 27.7524 35.8744 27.8161L34.7742 31.575C34.6407 32.0302 34.2235 32.343 33.749 32.343C33.5493 32.343 33.2683 32.2866 33.0982 32.1808L31.2572 31.0311C29.2987 30.6161 27.4284 29.4638 26.1677 28.3009C24.0023 29.5559 18.9926 31.0337 16.2688 31.1811V31.8199C16.2688 32.1933 16.0738 32.5395 15.7541 32.7335C15.435 32.9269 15.0371 32.9404 14.7066 32.7663C14.6426 32.7329 14.5455 32.7168 14.4104 32.7168C14.0762 32.7168 13.7535 32.892 13.5241 33.1974C13.3194 33.4698 13.0008 33.6242 12.6698 33.6242ZM13.1083 27.9673L13.4915 30.7181C13.6996 30.6545 13.9138 30.6123 14.1329 30.5924V30.0568C14.1329 29.6997 14.3111 29.3665 14.6084 29.1683C14.905 28.9702 15.2804 28.9338 15.6111 29.0708C16.7138 29.3273 23.5984 27.6464 25.3667 26.285C25.4282 26.236 25.4596 26.2135 25.4871 26.1865C25.6972 25.9822 26.0079 25.8433 26.302 25.8574C26.595 25.8694 26.8964 25.9732 27.0892 26.1942C28.0444 27.2887 29.9475 28.6262 31.8679 28.9744C31.9055 28.9811 31.9426 28.9901 31.979 29.001C32.0114 29.0068 32.041 29.0125 32.0691 29.0193C32.2985 29.0756 32.4956 29.2033 32.6385 29.3754L33.1062 29.6675L33.796 27.3111L33.9247 26.0112C33.9247 26.0106 33.9247 26.0106 33.9247 26.0102C34.0717 24.542 33.5696 22.9741 32.6148 21.9186C32.0641 21.3107 31.099 20.5855 29.6266 20.5855H28.9754C28.5907 20.5855 28.2361 20.3786 28.0463 20.0443C27.6063 19.2674 26.7766 18.7012 25.8267 18.5286C25.6359 18.4983 25.4142 18.4713 25.1849 18.4713H23.7321C21.0605 18.4713 18.5149 19.3623 16.5654 20.9798C14.3867 22.7747 13.1302 25.3171 13.1083 27.9673Z" fill="#EEEEEE"/>
<path d="M34.3469 33.603C34.0284 33.603 33.7192 33.4602 33.5131 33.2021C33.2706 32.8991 32.9557 32.7266 32.6256 32.7161C32.4076 32.7167 32.3361 32.7525 32.3284 32.7567C31.9983 32.9391 31.5969 32.9308 31.2716 32.7384C30.9473 32.546 30.7485 32.1966 30.7485 31.8196V30.1214C30.7485 29.7335 30.9592 29.3758 31.2986 29.1875C31.6364 28.9983 32.0514 29.0087 32.3821 29.2158L33.1063 29.6678L33.8237 27.2162C33.9785 26.686 34.5093 26.3615 35.0532 26.4679C35.5943 26.5732 35.9662 27.0737 35.9115 27.6224L35.4119 32.6081C35.3822 33.0471 35.0854 33.423 34.6652 33.5545C34.5608 33.5875 34.4534 33.603 34.3469 33.603Z" fill="#EEEEEE"/>
<path d="M24.7148 49.3645H21.3409C19.6645 49.3645 18.2228 48.1111 17.9876 46.4493C17.9808 46.3997 17.9773 46.3496 17.9773 46.2996C17.9699 46.1375 17.9663 46.0639 17.9663 45.9905V43.1602C17.9663 42.7739 18.1754 42.4172 18.5122 42.2286C18.85 42.0404 19.2625 42.0481 19.5921 42.2498C21.5864 43.4702 23.1131 43.2352 23.1131 43.2352C24.2111 43.2122 25.7004 42.6955 26.168 42.5099C26.2018 42.4963 26.3502 42.4369 26.5579 42.3933C26.8742 42.3268 27.2514 42.1685 27.5775 42.3666C27.8956 42.56 28.0896 42.9058 28.0896 43.278V45.9905C28.0896 46.1385 28.0765 46.2871 28.0614 46.4206C28.0614 46.4206 28.0196 46.7383 27.9175 47.0437C27.6225 47.9263 26.8695 48.5563 26.8695 48.5563C26.0046 49.2799 25.0363 49.3537 24.7148 49.3645ZM20.1092 46.1922C20.214 46.7861 20.7359 47.2287 21.3407 47.2287H24.7146C24.7942 47.2265 25.3334 47.2031 25.6885 46.7529C25.9322 46.4441 25.9521 46.1081 25.9537 45.9907V44.8857C25.3153 45.1105 24.3247 45.3753 23.0934 45.3775C21.7925 45.3799 20.7534 45.0881 20.102 44.8497L20.1092 46.1922Z" fill="#EEEEEE"/>
<path d="M38.0106 64.3503H7.04286C6.45317 64.3503 5.9751 63.8726 5.9751 63.2825V53.3435C5.9751 46.3968 18.4128 45.2809 18.942 45.2365C19.5062 45.1931 20.0302 45.5952 20.1084 46.1505C20.1956 46.7662 20.7242 47.2308 21.3385 47.2308H24.7147C25.0018 47.214 25.3871 47.1414 25.6374 46.8567C25.8373 46.6293 25.8236 46.4117 25.9452 46.1469C25.9452 46.1469 26.1113 45.144 27.1194 45.2365C27.6074 45.2813 39.0784 46.4045 39.0784 53.3429V63.2819C39.0784 63.8726 38.6003 64.3503 38.0106 64.3503ZM8.11081 62.2146H36.9427V53.3433C36.9427 49.259 30.1372 47.8445 27.7445 47.4743C27.5831 47.7681 27.2479 48.2844 26.6365 48.7121C25.8495 49.2626 25.0575 49.3494 24.7145 49.3667H21.3383C20.0229 49.3667 18.8523 48.5904 18.2986 47.449C14.9095 47.874 8.11081 49.5111 8.11081 53.3435V62.2146Z" fill="#EEEEEE"/>
<path d="M11.9673 57.29H14.103V63.2832H11.9673V57.29Z" fill="#EEEEEE"/>
<path d="M30.9487 57.29H33.0844V63.353H30.9487V57.29Z" fill="#EEEEEE"/>
<path d="M41.7477 7.825C39.687 7.825 38.0103 6.14806 38.0103 4.08755C38.0103 2.02704 39.687 0.350098 41.7477 0.350098C43.8084 0.350098 45.4852 2.02704 45.4852 4.08755C45.4852 6.14806 43.8082 7.825 41.7477 7.825ZM41.7477 2.48581C40.8644 2.48581 40.146 3.20441 40.146 4.08755C40.146 4.97068 40.8646 5.68928 41.7477 5.68928C42.6308 5.68928 43.3494 4.97068 43.3494 4.08755C43.3494 3.20441 42.6308 2.48581 41.7477 2.48581Z" fill="#EEEEEE"/>
<path d="M6.50845 17.4358C4.44774 17.4358 2.771 15.7589 2.771 13.6984C2.771 11.6379 4.44793 9.96094 6.50845 9.96094C8.56896 9.96094 10.2459 11.6379 10.2459 13.6984C10.2459 15.7589 8.56896 17.4358 6.50845 17.4358ZM6.50845 12.0967C5.62511 12.0967 4.90671 12.8151 4.90671 13.6984C4.90671 14.5817 5.62531 15.3001 6.50845 15.3001C7.39158 15.3001 8.11018 14.5815 8.11018 13.6984C8.11018 12.8153 7.39158 12.0967 6.50845 12.0967Z" fill="#EEEEEE"/>
<path d="M59.9 33.4534C57.8393 33.4534 56.1626 31.7765 56.1626 29.716C56.1626 27.6555 57.8395 25.9785 59.9 25.9785C61.9606 25.9785 63.6375 27.6555 63.6375 29.716C63.6375 31.7765 61.9608 33.4534 59.9 33.4534ZM59.9 28.1142C59.0167 28.1142 58.2983 28.8328 58.2983 29.716C58.2983 30.5991 59.0167 31.3177 59.9 31.3177C60.7834 31.3177 61.5018 30.5993 61.5018 29.716C61.5018 28.8326 60.7834 28.1142 59.9 28.1142Z" fill="#EEEEEE"/>
<path d="M49.2223 61.2176C47.1616 61.2176 45.4849 59.5406 45.4849 57.4801C45.4849 55.4196 47.1618 53.7427 49.2223 53.7427C51.283 53.7427 52.9598 55.4196 52.9598 57.4801C52.9598 59.5406 51.2828 61.2176 49.2223 61.2176ZM49.2223 55.8784C48.339 55.8784 47.6206 56.597 47.6206 57.4801C47.6206 58.3635 48.339 59.0819 49.2223 59.0819C50.1056 59.0819 50.824 58.3633 50.824 57.4801C50.824 56.5968 50.1054 55.8784 49.2223 55.8784Z" fill="#EEEEEE"/>
<path d="M8.91748 11.0615L9.95359 10.802L10.4727 12.874L9.43656 13.1336L8.91748 11.0615Z" fill="#EEEEEE"/>
<path d="M12.6145 12.338L12.0962 10.266L14.2365 9.73101L14.7547 11.8031L12.6145 12.338ZM16.8958 11.2677L16.3776 9.19563L18.5179 8.66066L19.0361 10.7327L16.8958 11.2677ZM21.1772 10.1977L20.6589 8.12569L22.7994 7.59072L23.3177 9.66277L21.1772 10.1977ZM25.4584 9.1272L24.9401 7.05515L27.0804 6.52017L27.5987 8.59222L25.4584 9.1272ZM29.7398 8.05725L29.2215 5.9852L31.3618 5.45023L31.88 7.52228L29.7398 8.05725ZM34.0211 6.98691L33.5029 4.91486L35.6434 4.37988L36.1616 6.45193L34.0211 6.98691Z" fill="#EEEEEE"/>
<path d="M37.7817 3.84961L38.8178 3.59005L39.3369 5.66208L38.3008 5.92164L37.7817 3.84961Z" fill="#EEEEEE"/>
<path d="M56.5326 25.0471L55.1925 23.2608L56.9006 21.9791L58.2408 23.7655L56.5326 25.0471ZM53.8525 21.4744L52.513 19.688L54.2222 18.4064L55.5617 20.1928L53.8525 21.4744ZM51.1731 17.9023L49.8336 16.1159L51.5428 14.8343L52.8823 16.6207L51.1731 17.9023ZM48.4941 14.3296L47.1545 12.5432L48.8637 11.2616L50.2032 13.0479L48.4941 14.3296ZM45.8146 10.7574L44.4751 8.97108L46.1843 7.68945L47.5238 9.47581L45.8146 10.7574Z" fill="#EEEEEE"/>
<path d="M57.8774 26.8447L59.5859 25.5634L60.2265 26.4176L58.5181 27.6989L57.8774 26.8447Z" fill="#EEEEEE"/>
<path d="M58.0063 32.9775L58.3863 31.9796L60.3834 32.7399L60.0034 33.7379L58.0063 32.9775Z" fill="#EEEEEE"/>
<path d="M52.9096 52.3349L50.9136 51.5757L51.6206 49.7185L53.6167 50.4787L52.9096 52.3349ZM54.3243 48.6213L52.3283 47.8611L53.0358 46.004L55.0318 46.7641L54.3243 48.6213ZM55.7395 44.9068L53.7434 44.1466L54.4509 42.2894L56.4469 43.0496L55.7395 44.9068ZM57.1544 41.1928L55.1583 40.4326L55.8654 38.5754L57.8615 39.3356L57.1544 41.1928ZM58.5691 37.4782L56.5731 36.718L57.2805 34.8608L59.2766 35.621L58.5691 37.4782Z" fill="#EEEEEE"/>
<path d="M49.7876 54.4292L50.1674 53.4327L52.1626 54.1931L51.7827 55.1897L49.7876 54.4292Z" fill="#EEEEEE"/>
<path d="M7.24463 45.8457L8.75444 44.3359L10.0306 45.6121L8.52081 47.1219L7.24463 45.8457Z" fill="#EEEEEE"/>
<path d="M9.79736 48.3989L11.3072 46.8891L12.0621 47.644L10.5523 49.1538L9.79736 48.3989Z" fill="#EEEEEE"/>
<path d="M47.3599 60.8569L47.9729 58.8107L48.996 59.1172L48.383 61.1634L47.3599 60.8569Z" fill="#EEEEEE"/>
<path d="M45.6315 60.3478L43.905 59.8296L44.5192 57.7836L46.2456 58.3018L45.6315 60.3478ZM42.1781 59.3123L40.4517 58.794L41.0658 56.748L42.7923 57.2663L42.1781 59.3123Z" fill="#EEEEEE"/>
<path d="M37.7056 57.9609L38.3186 55.9147L39.3417 56.2212L38.7287 58.2674L37.7056 57.9609Z" fill="#EEEEEE"/>
<path d="M35.8741 27.8148L33.8237 27.2172L40.1893 5.38672L42.2373 5.99152L41.9599 6.93116L35.8741 27.8148Z" fill="#EEEEEE"/>
<path d="M6.28163 40.8828L5.66748 38.8378L6.09442 38.7095L14.5016 36.117C14.5376 36.1054 14.5746 36.0967 14.6116 36.0893L14.8297 36.0215L15.2222 37.0194L15.5146 38.0466L15.1549 38.1566C15.1169 38.1685 15.0783 38.1785 15.0398 38.1858L6.28163 40.8828Z" fill="#EEEEEE"/>
<path d="M33.7017 30.208L57.182 29.1738L57.2759 31.3074L33.7956 32.3416L33.7017 30.208Z" fill="#EEEEEE"/>
<path d="M23.1134 45.3709C22.6105 45.3735 20.6141 45.3013 18.4765 44.0706C17.8843 43.7296 17.2992 43.2776 16.7632 42.741C15.2432 41.2085 14.3193 39.2069 14.1578 37.102C14.1442 36.8455 14.1333 36.6239 14.1333 36.3904V30.0578C14.1333 29.7007 14.3116 29.3675 14.6088 29.1693C14.9054 28.9712 15.2808 28.9348 15.6115 29.0718C16.7143 29.3283 23.5989 27.6474 25.3671 26.2859C25.4286 26.237 25.46 26.2145 25.4875 26.1875C25.6976 25.9832 26.0084 25.8443 26.3024 25.8584C26.5954 25.8703 26.8969 25.9742 27.0896 26.1952C28.0448 27.2896 29.9479 28.6272 31.8684 28.9753C32.017 29.0024 32.1588 29.0609 32.2834 29.1468L32.4227 29.2427C32.7121 29.4419 32.8846 29.7703 32.8846 30.1219V36.3904C32.8846 36.6625 32.8695 36.906 32.8289 37.1641C32.7853 37.4412 31.5777 42.0779 27.511 44.2271C26.8415 44.5811 26.2405 44.7904 26.0782 44.8455C24.5894 45.3522 23.3637 45.3695 23.1134 45.3709ZM16.269 31.1813V36.3902C16.269 36.5841 16.279 36.7682 16.2889 36.9522C16.4121 38.5617 17.0996 40.0472 18.2766 41.234C18.6775 41.6348 19.113 41.9729 19.5682 42.2351C20.1326 42.5806 20.7356 42.8387 21.3621 43.006C22.1547 43.2179 22.8049 43.2366 23.1138 43.2352C24.2067 43.23 25.02 42.9517 25.4638 42.7955C25.6073 42.745 26.0434 42.587 26.5334 42.3286C29.7257 40.6443 30.6844 37.0815 30.7115 36.8975C30.7427 36.6858 30.7495 36.5455 30.7495 36.3902V30.9069C28.9789 30.4157 27.3196 29.3631 26.1683 28.3009C24.0025 29.5555 18.9928 31.0337 16.269 31.1813Z" fill="#EEEEEE"/>
<path d="M15.3169 21.0634L7.55615 16.2127L8.6637 14.3867L9.01624 14.6006L16.4504 19.2532L15.3169 21.0634Z" fill="#EEEEEE"/>
<path d="M46.7009 55.3539L32.8169 31.8577L33.6684 31.3587L34.195 30.3486C34.3566 30.4415 34.5657 30.6176 34.6596 30.7784L35.2791 31.8358L48.5396 54.2674L46.7009 55.3539Z" fill="#EEEEEE"/>
</svg>
