<svg width="64" height="65" viewBox="0 0 64 65" fill="none" xmlns="http://www.w3.org/2000/svg">
<path d="M62.2619 57.3501H56.2619V41.1501C56.2619 38.1501 54.1619 35.6501 51.2619 35.1501L37.9619 32.6501C37.9619 32.5501 37.9619 32.4501 37.9619 32.3501V30.8501C43.3619 27.6501 47.0619 20.4501 47.0619 14.2501C47.1619 6.1501 40.4619 0.350098 32.1619 0.350098C23.5619 0.350098 17.1619 6.3501 17.1619 14.2501C17.1619 20.4501 20.9619 27.6501 26.2619 30.8501V32.3501V32.6501L12.9619 35.1501C10.0619 35.6501 7.96192 38.2501 7.96192 41.1501V57.3501H1.96191C1.36191 57.3501 0.961914 57.7501 0.961914 58.3501V63.3501C0.961914 63.9501 1.36191 64.3501 1.96191 64.3501H62.1619C62.7619 64.3501 63.1619 63.9501 63.1619 63.3501V58.3501C63.2619 57.8501 62.7619 57.3501 62.2619 57.3501ZM45.1619 14.2501C45.1619 14.9501 45.0619 15.7501 44.9619 16.4501C41.2619 16.1501 38.0619 13.5501 36.9619 9.9501C38.1619 8.1501 38.8619 6.1501 39.1619 4.0501C42.8619 6.0501 45.1619 9.7501 45.1619 14.2501ZM32.1619 2.3501C33.9619 2.3501 35.6619 2.6501 37.1619 3.1501C36.7619 10.5501 28.9619 16.4501 19.3619 16.7501C19.2619 15.8501 19.1619 15.0501 19.1619 14.2501C19.1619 7.3501 24.6619 2.3501 32.1619 2.3501ZM19.8619 18.7501C26.3619 18.4501 32.0619 15.7501 35.5619 11.8501C37.1619 15.4501 40.6619 18.0501 44.6619 18.4501C42.9619 24.6501 37.9619 30.5501 32.2619 30.5501C26.5619 30.5501 21.5619 24.8501 19.8619 18.7501ZM36.0619 31.8501V32.3501C36.0619 34.4501 34.3619 36.2501 32.1619 36.2501C30.0619 36.2501 28.2619 34.5501 28.2619 32.3501V31.7501C30.8619 32.7501 33.4619 32.7501 36.0619 31.8501ZM10.0619 41.1501C10.0619 39.1501 11.4619 37.4501 13.4619 37.1501L26.7619 34.6501C28.7619 39.4501 35.5619 39.4501 37.5619 34.6501L50.8619 37.1501C52.8619 37.5501 54.2619 39.2501 54.2619 41.1501V57.3501H45.4619V57.2501L49.2619 43.6501C49.7619 41.8501 48.3619 40.0501 46.4619 40.0501H17.7619C15.8619 40.0501 14.4619 41.8501 14.9619 43.6501L18.7619 57.2501V57.3501H9.96192V41.1501H10.0619ZM20.6619 56.7501L16.8619 43.1501C16.6619 42.5501 17.1619 42.0501 17.6619 42.0501H46.4619C47.0619 42.0501 47.4619 42.6501 47.2619 43.1501L43.4619 56.7501C43.5619 57.0501 43.1619 57.3501 42.7619 57.3501H21.5619C21.1619 57.3501 20.7619 57.0501 20.6619 56.7501ZM61.2619 62.3501H3.06191V59.3501H61.2619V62.3501Z" fill="#EEEEEE"/>
<path d="M32.1617 45.3501C28.8617 45.3501 26.2617 47.2501 26.2617 49.6501C26.2617 52.0501 28.8617 53.9501 32.1617 53.9501C35.4617 53.9501 38.0617 52.0501 38.0617 49.6501C38.0617 47.2501 35.4617 45.3501 32.1617 45.3501ZM32.1617 51.9501C30.0617 51.9501 28.2617 50.8501 28.2617 49.6501C28.2617 48.3501 30.0617 47.3501 32.1617 47.3501C34.2617 47.3501 36.0617 48.4501 36.0617 49.6501C36.0617 50.9501 34.2617 51.9501 32.1617 51.9501Z" fill="#EEEEEE"/>
</svg>
