<svg width="123" height="56" viewBox="0 0 123 56" fill="none" xmlns="http://www.w3.org/2000/svg">
<path fill-rule="evenodd" clip-rule="evenodd" d="M4.87346 4.25068e-05C4.09119 0.00545345 3.32802 0.242257 2.68021 0.680573C2.03241 1.11889 1.52896 1.73909 1.23334 2.46299C0.937726 3.1869 0.863182 3.98208 1.01911 4.74827C1.17504 5.51446 1.55446 6.21736 2.10952 6.76832C2.66459 7.31929 3.37044 7.69367 4.13809 7.84422C4.90574 7.99478 5.7008 7.9148 6.42303 7.61435C7.14525 7.3139 7.7623 6.80643 8.19637 6.15596C8.63043 5.50548 8.86207 4.74109 8.86209 3.95921C8.86069 3.43737 8.75638 2.92095 8.5551 2.43944C8.35381 1.95794 8.05952 1.52082 7.68906 1.1531C7.3186 0.785379 6.87925 0.494261 6.39612 0.29641C5.91299 0.0985581 5.39556 -0.00215637 4.87346 4.25068e-05ZM27.5992 4.25068e-05C26.8169 0.00545345 26.0538 0.242257 25.406 0.680573C24.7582 1.11889 24.2547 1.73909 23.9591 2.46299C23.6635 3.1869 23.5889 3.98208 23.7449 4.74827C23.9008 5.51446 24.2802 6.21736 24.8353 6.76832C25.3903 7.31929 26.0962 7.69367 26.8638 7.84422C27.6315 7.99478 28.4266 7.9148 29.1488 7.61435C29.871 7.3139 30.4881 6.80643 30.9221 6.15596C31.3562 5.50548 31.5878 4.74109 31.5878 3.95921C31.5864 3.43737 31.4821 2.92095 31.2809 2.43944C31.0796 1.95794 30.7853 1.52082 30.4148 1.1531C30.0443 0.785379 29.605 0.494261 29.1218 0.29641C28.6387 0.0985581 28.1213 -0.00215637 27.5992 4.25068e-05ZM50.3249 4.25068e-05C49.5427 0.00545345 48.7795 0.242257 48.1317 0.680573C47.4839 1.11889 46.9804 1.73909 46.6848 2.46299C46.3892 3.1869 46.3147 3.98208 46.4706 4.74827C46.6265 5.51446 47.0059 6.21736 47.561 6.76832C48.1161 7.31929 48.8219 7.69367 49.5896 7.84422C50.3572 7.99478 51.1523 7.9148 51.8745 7.61435C52.5968 7.3139 53.2138 6.80643 53.6479 6.15596C54.0819 5.50548 54.3136 4.74109 54.3136 3.95921C54.3124 3.43731 54.2082 2.92078 54.007 2.43918C53.8058 1.95757 53.5115 1.52037 53.141 1.1526C52.7705 0.784834 52.3311 0.493749 51.8479 0.295975C51.3646 0.0982003 50.8471 -0.00237322 50.3249 4.25068e-05V4.25068e-05ZM73.0507 4.25068e-05C72.2684 0.00545345 71.5053 0.242257 70.8575 0.680573C70.2097 1.11889 69.7062 1.73909 69.4106 2.46299C69.115 3.1869 69.0404 3.98208 69.1963 4.74827C69.3523 5.51446 69.7317 6.21736 70.2867 6.76832C70.8418 7.31929 71.5477 7.69367 72.3153 7.84422C73.083 7.99478 73.878 7.9148 74.6003 7.61435C75.3225 7.3139 75.9396 6.80643 76.3736 6.15596C76.8077 5.50548 77.0393 4.74109 77.0394 3.95921C77.0379 3.43739 76.9335 2.92098 76.7322 2.43951C76.5309 1.95804 76.2366 1.52098 75.8661 1.15327C75.4957 0.78556 75.0564 0.494421 74.5733 0.296543C74.0902 0.0986662 73.5728 -0.00208416 73.0507 4.25068e-05V4.25068e-05ZM95.7764 4.25068e-05C94.994 0.00491309 94.2306 0.241245 93.5825 0.679235C92.9343 1.11723 92.4304 1.73726 92.1343 2.46112C91.8383 3.18498 91.7634 3.98026 91.919 4.74663C92.0746 5.51301 92.4538 6.21615 93.0088 6.76739C93.5637 7.31863 94.2696 7.69325 95.0373 7.84402C95.805 7.9948 96.6003 7.91499 97.3227 7.61462C98.045 7.31424 98.6622 6.80676 99.0964 6.15623C99.5306 5.50569 99.7623 4.74121 99.7624 3.95921C99.7609 3.43762 99.6566 2.92144 99.4555 2.44015C99.2543 1.95885 98.9603 1.52191 98.5901 1.15424C98.22 0.786566 97.7809 0.495385 97.2982 0.297346C96.8154 0.0993072 96.2983 -0.00172328 95.7764 4.25068e-05V4.25068e-05ZM118.502 7.91841C119.284 7.913 120.048 7.67619 120.695 7.23788C121.343 6.79956 121.847 6.17936 122.142 5.45546C122.438 4.73155 122.512 3.93637 122.357 3.17018C122.201 2.40399 121.821 1.70109 121.266 1.15013C120.711 0.599161 120.005 0.224785 119.238 0.0742263C118.47 -0.076332 117.675 0.00365309 116.953 0.304102C116.23 0.604552 115.613 1.11202 115.179 1.76249C114.745 2.41297 114.514 3.17733 114.514 3.95921C114.515 4.48094 114.62 4.99721 114.821 5.47854C115.023 5.95986 115.317 6.39683 115.687 6.76448C116.058 7.13212 116.497 7.42325 116.98 7.62124C117.463 7.81923 117.98 7.92021 118.502 7.91841V7.91841ZM4.87346 23.9716C4.09119 23.977 3.32802 24.2138 2.68021 24.6521C2.03241 25.0904 1.52896 25.7106 1.23334 26.4345C0.937726 27.1584 0.863182 27.9536 1.01911 28.7198C1.17504 29.486 1.55446 30.1889 2.10952 30.7399C2.66459 31.2908 3.37044 31.6652 4.13809 31.8157C4.90574 31.9663 5.7008 31.8863 6.42303 31.5859C7.14525 31.2854 7.7623 30.778 8.19637 30.1275C8.63043 29.477 8.86207 28.7126 8.86209 27.9308C8.8603 27.409 8.75572 26.8928 8.55429 26.4114C8.35287 25.9301 8.05857 25.4931 7.68819 25.1255C7.3178 24.7579 6.87861 24.4667 6.39565 24.2687C5.9127 24.0707 5.39545 23.9698 4.87346 23.9716V23.9716ZM27.5992 23.9716C26.8169 23.977 26.0538 24.2138 25.406 24.6521C24.7582 25.0904 24.2547 25.7106 23.9591 26.4345C23.6635 27.1584 23.5889 27.9536 23.7449 28.7198C23.9008 29.486 24.2802 30.1889 24.8353 30.7399C25.3903 31.2908 26.0962 31.6652 26.8638 31.8157C27.6315 31.9663 28.4266 31.8863 29.1488 31.5859C29.871 31.2854 30.4881 30.778 30.9221 30.1275C31.3562 29.477 31.5878 28.7126 31.5878 27.9308C31.586 27.409 31.4815 26.8928 31.28 26.4114C31.0786 25.9301 30.7843 25.4931 30.4139 25.1255C30.0436 24.7579 29.6044 24.4667 29.1214 24.2687C28.6385 24.0707 28.1212 23.9698 27.5992 23.9716V23.9716ZM50.3249 23.9716C49.5427 23.977 48.7795 24.2138 48.1317 24.6521C47.4839 25.0904 46.9804 25.7106 46.6848 26.4345C46.3892 27.1584 46.3147 27.9536 46.4706 28.7198C46.6265 29.486 47.0059 30.1889 47.561 30.7399C48.1161 31.2908 48.8219 31.6652 49.5896 31.8157C50.3572 31.9663 51.1523 31.8863 51.8745 31.5859C52.5968 31.2854 53.2138 30.778 53.6479 30.1275C54.0819 29.477 54.3136 28.7126 54.3136 27.9308C54.3122 27.4089 54.2079 26.8925 54.0066 26.411C53.8053 25.9295 53.511 25.4924 53.1406 25.1246C52.7701 24.7569 52.3307 24.4658 51.8476 24.2679C51.3645 24.0701 50.847 23.9694 50.3249 23.9716V23.9716ZM73.0507 23.9716C72.2684 23.977 71.5053 24.2138 70.8575 24.6521C70.2097 25.0904 69.7062 25.7106 69.4106 26.4345C69.115 27.1584 69.0404 27.9536 69.1963 28.7198C69.3523 29.486 69.7317 30.1889 70.2867 30.7399C70.8418 31.2908 71.5477 31.6652 72.3153 31.8157C73.083 31.9663 73.878 31.8863 74.6003 31.5859C75.3225 31.2854 75.9396 30.778 76.3736 30.1275C76.8077 29.477 77.0393 28.7126 77.0394 27.9308C77.0376 27.409 76.9329 26.8928 76.7315 26.4114C76.5301 25.9301 76.2358 25.4931 75.8654 25.1255C75.495 24.7579 75.0558 24.4667 74.5729 24.2687C74.0899 24.0707 73.5727 23.9698 73.0507 23.9716V23.9716ZM95.7764 23.9716C94.994 23.9764 94.2306 24.2128 93.5825 24.6508C92.9343 25.0888 92.4304 25.7088 92.1343 26.4326C91.8383 27.1565 91.7634 27.9518 91.919 28.7182C92.0746 29.4845 92.4538 30.1877 93.0088 30.7389C93.5637 31.2902 94.2696 31.6648 95.0373 31.8155C95.805 31.9663 96.6003 31.8865 97.3227 31.5861C98.045 31.2858 98.6622 30.7783 99.0964 30.1278C99.5306 29.4772 99.7623 28.7128 99.7624 27.9308C99.7587 26.8776 99.3368 25.8689 98.5894 25.1265C97.842 24.3841 96.8302 23.9687 95.7764 23.9716V23.9716ZM118.502 23.9716C117.72 23.9764 116.956 24.2128 116.308 24.6508C115.66 25.0888 115.156 25.7088 114.86 26.4326C114.564 27.1565 114.489 27.9518 114.645 28.7182C114.8 29.4845 115.18 30.1877 115.735 30.7389C116.29 31.2902 116.995 31.6648 117.763 31.8155C118.531 31.9663 119.326 31.8865 120.048 31.5861C120.771 31.2858 121.388 30.7783 121.822 30.1278C122.256 29.4772 122.488 28.7128 122.488 27.9308C122.484 26.8776 122.063 25.8689 121.315 25.1265C120.568 24.3841 119.556 23.9687 118.502 23.9716V23.9716ZM4.87346 47.9431C4.09091 47.9482 3.32739 48.1848 2.67921 48.6231C2.03103 49.0613 1.52721 49.6816 1.23124 50.4056C0.935264 51.1297 0.860415 51.9251 1.01613 52.6917C1.17185 53.4582 1.55114 54.1614 2.10621 54.7128C2.66128 55.2641 3.36725 55.6388 4.13511 55.7897C4.90298 55.9406 5.69834 55.8609 6.42092 55.5606C7.1435 55.2603 7.76095 54.7528 8.1954 54.1023C8.62984 53.4517 8.8618 52.6872 8.86209 51.905C8.86065 51.3831 8.75632 50.8665 8.55506 50.3849C8.3538 49.9032 8.05957 49.4659 7.68916 49.098C7.31874 48.7301 6.87942 48.4387 6.39629 48.2405C5.91316 48.0424 5.39568 47.9413 4.87346 47.9431V47.9431ZM27.5992 47.9431C26.8167 47.9482 26.0531 48.1848 25.405 48.6231C24.7568 49.0613 24.2529 49.6816 23.957 50.4056C23.661 51.1297 23.5861 51.9251 23.7419 52.6917C23.8976 53.4582 24.2769 54.1614 24.832 54.7128C25.387 55.2641 26.093 55.6388 26.8609 55.7897C27.6287 55.9406 28.4241 55.8609 29.1467 55.5606C29.8693 55.2603 30.4867 54.7528 30.9211 54.1023C31.3556 53.4517 31.5876 52.6872 31.5878 51.905C31.5864 51.3831 31.4821 50.8665 31.2808 50.3849C31.0796 49.9032 30.7853 49.4659 30.4149 49.098C30.0445 48.7301 29.6051 48.4387 29.122 48.2405C28.6389 48.0424 28.1214 47.9413 27.5992 47.9431V47.9431ZM50.3249 47.9431C49.5424 47.9482 48.7789 48.1848 48.1307 48.6231C47.4825 49.0613 46.9787 49.6816 46.6827 50.4056C46.3867 51.1297 46.3119 51.9251 46.4676 52.6917C46.6233 53.4582 47.0026 54.1614 47.5577 54.7128C48.1128 55.2641 48.8188 55.6388 49.5866 55.7897C50.3545 55.9406 51.1498 55.8609 51.8724 55.5606C52.595 55.2603 53.2124 54.7528 53.6469 54.1023C54.0813 53.4517 54.3133 52.6872 54.3136 51.905C54.3125 51.383 54.2084 50.8663 54.0072 50.3845C53.8061 49.9027 53.5118 49.4653 53.1414 49.0973C52.7709 48.7293 52.3314 48.4379 51.8482 48.2399C51.3649 48.0418 50.8472 47.941 50.3249 47.9431V47.9431ZM73.0507 47.9431C72.2681 47.9482 71.5047 48.1848 70.8565 48.6231C70.2083 49.0613 69.7044 49.6816 69.4085 50.4056C69.1125 51.1297 69.0376 51.9251 69.1934 52.6917C69.3491 53.4582 69.7284 54.1614 70.2834 54.7128C70.8385 55.2641 71.5445 55.6388 72.3123 55.7897C73.0802 55.9406 73.8756 55.8609 74.5982 55.5606C75.3208 55.2603 75.9382 54.7528 76.3726 54.1023C76.8071 53.4517 77.0391 52.6872 77.0394 51.905C77.0379 51.3831 76.9336 50.8665 76.7323 50.3849C76.5311 49.9032 76.2368 49.4659 75.8664 49.098C75.496 48.7301 75.0566 48.4387 74.5735 48.2405C74.0904 48.0424 73.5729 47.9413 73.0507 47.9431V47.9431ZM95.7764 47.9431C94.9938 47.9477 94.23 48.1839 93.5815 48.6218C92.9329 49.0597 92.4286 49.6798 92.1322 50.4038C91.8358 51.1278 91.7606 51.9233 91.916 52.69C92.0714 53.4567 92.4505 54.1602 93.0055 54.7118C93.5604 55.2635 94.2664 55.6385 95.0343 55.7896C95.8023 55.9406 96.5978 55.8611 97.3206 55.5608C98.0433 55.2606 98.6609 54.7532 99.0955 54.1026C99.53 53.452 99.7621 52.6873 99.7624 51.905C99.7609 51.3833 99.6567 50.867 99.4556 50.3855C99.2545 49.904 98.9605 49.4669 98.5904 49.099C98.2202 48.7311 97.7812 48.4397 97.2984 48.2413C96.8156 48.043 96.2984 47.9417 95.7764 47.9431V47.9431ZM118.502 47.9431C117.72 47.9477 116.956 48.1839 116.307 48.6218C115.659 49.0597 115.154 49.6798 114.858 50.4038C114.562 51.1278 114.486 51.9233 114.642 52.69C114.797 53.4567 115.176 54.1602 115.731 54.7118C116.286 55.2635 116.992 55.6385 117.76 55.7896C118.528 55.9406 119.324 55.8611 120.046 55.5608C120.769 55.2606 121.387 54.7532 121.821 54.1026C122.256 53.452 122.488 52.6873 122.488 51.905C122.485 50.8515 122.063 49.8424 121.316 49.0995C120.568 48.3566 119.556 47.9406 118.502 47.9431V47.9431Z" fill="#161F32"/>
</svg>
