<svg width="85" height="211" viewBox="0 0 85 211" fill="none" xmlns="http://www.w3.org/2000/svg">
<path d="M46.3793 -19H44.3909V131.968H46.3793V-19Z" fill="url(#paint0_linear_102_4936)"/>
<path d="M39.9676 161.411C40.1913 158.667 38.1473 156.262 35.4022 156.038C32.657 155.814 30.2503 157.857 30.0265 160.601C29.8027 163.345 31.8467 165.75 34.5919 165.974C37.337 166.197 39.7438 164.155 39.9676 161.411Z" fill="white"/>
<path d="M50.6674 208.576C50.2853 208.177 49.9309 207.752 49.6065 207.306C49.1431 206.665 48.6105 206.077 48.0182 205.553C48.2109 204.526 48.3319 203.486 48.3804 202.442C48.59 200.95 48.8251 199.483 48.9521 197.997C49.2062 195.083 49.2507 192.181 49.2444 189.26C49.2444 188.562 48.2533 188.593 48.1834 189.26C47.8658 192.105 47.5481 194.943 47.3766 197.807C47.2877 199.229 47.2813 200.645 47.2495 202.074C47.2495 202.55 47.1733 203.077 47.1225 203.604C46.1404 203.947 45.1795 204.348 44.2446 204.804C43.3235 205.255 42.1482 205.636 41.4938 206.461C41.335 206.658 41.4112 207.026 41.7225 207.014C42.7199 206.956 43.5903 206.34 44.4606 205.902C45.331 205.464 46.2013 205.007 47.0462 204.512C47.0462 204.721 47.0462 204.931 47.0462 205.147C46.9853 205.187 46.9351 205.242 46.8997 205.306C46.8643 205.37 46.8449 205.442 46.843 205.515C46.2775 206.207 45.7121 206.906 45.1594 207.61C44.4872 208.329 43.9204 209.139 43.4759 210.017C43.4526 210.112 43.4574 210.211 43.4897 210.303C43.5221 210.395 43.5807 210.476 43.6582 210.535C43.7358 210.595 43.829 210.63 43.9263 210.637C44.0237 210.644 44.1211 210.623 44.2065 210.576C44.9618 209.934 45.6058 209.173 46.1124 208.322C46.5698 207.687 47.0018 206.994 47.383 206.309C47.9674 207.064 48.4312 207.921 48.9966 208.683C49.562 209.445 50.318 210.474 51.3281 210.506C51.4228 210.505 51.5156 210.479 51.5974 210.431C51.6791 210.383 51.7471 210.315 51.7945 210.233C51.8419 210.151 51.8672 210.058 51.8678 209.964C51.8685 209.869 51.8445 209.776 51.7982 209.693C51.46 209.283 51.0811 208.909 50.6674 208.576V208.576Z" fill="#4D4D4D"/>
<path d="M73.0171 201.674C72.6239 201.183 72.1691 200.746 71.6639 200.372C71.1494 199.889 70.692 199.369 70.2282 198.842C69.437 197.914 68.5271 197.094 67.5219 196.403C67.5249 196.374 67.5249 196.344 67.5219 196.315C67.472 195.482 67.3292 194.658 67.0962 193.857L66.4609 190.981C66.1734 189.242 65.7637 187.525 65.2348 185.844C65.2174 185.748 65.1648 185.662 65.0873 185.602C65.0097 185.542 64.9128 185.514 64.8153 185.522C64.7178 185.53 64.6268 185.574 64.5599 185.645C64.493 185.716 64.455 185.81 64.4534 185.908C64.3708 187.609 64.9743 189.444 65.3301 191.095C65.6859 192.746 65.8447 194.594 66.4546 196.175C65.3365 197.273 64.2247 198.378 63.132 199.502C62.2807 200.378 60.8513 201.451 60.521 202.677C60.5055 202.734 60.5054 202.794 60.5206 202.851C60.5359 202.909 60.566 202.961 60.6079 203.003C60.6498 203.045 60.702 203.075 60.7592 203.09C60.8165 203.105 60.8767 203.105 60.9339 203.09C62.1473 202.683 63.1002 201.229 63.9388 200.315C64.7774 199.4 65.6859 198.378 66.5435 197.394C66.5517 198.071 66.6112 198.746 66.7214 199.413C66.8739 200.524 67.0009 201.832 67.6298 202.791C67.683 202.877 67.7626 202.944 67.8569 202.982C67.9511 203.019 68.0549 203.025 68.1528 202.998C68.2507 202.972 68.3374 202.915 68.4 202.835C68.4626 202.755 68.4978 202.657 68.5002 202.556C68.3995 201.512 68.2039 200.479 67.9157 199.47C67.8077 198.835 67.7569 198.2 67.6743 197.616C68.3858 198.385 69.0021 199.235 69.6755 200.035C70.4378 200.937 71.3781 202.201 72.6169 202.366C72.6992 202.369 72.781 202.35 72.8533 202.311C72.9256 202.271 72.9856 202.212 73.0269 202.141C73.0681 202.07 73.089 201.988 73.0873 201.906C73.0856 201.823 73.0613 201.743 73.0171 201.674V201.674Z" fill="#4D4D4D"/>
<path d="M28.1338 174.358C27.8521 175.007 27.439 175.59 26.9204 176.072L26.8315 176.154C25.7838 177.034 24.5395 177.648 23.204 177.945C21.7995 178.279 20.365 178.47 18.9221 178.517C15.6377 178.656 12.2198 178.65 9.22124 177.297C7.3789 176.472 5.63821 174.923 5.49209 172.91C5.47746 172.491 5.54694 172.074 5.69643 171.682C5.84591 171.291 6.07238 170.933 6.36244 170.63C6.82505 170.096 7.46638 169.749 8.16666 169.652C8.43547 169.622 8.70768 169.646 8.96713 169.722C7.04523 168.888 5.25928 167.771 3.66881 166.408C2.47447 165.386 1.33094 163.665 2.2267 162.37L2.3347 162.23C3.1034 161.328 4.6281 161.43 5.7208 161.9C6.47679 162.217 7.19467 162.668 7.94431 162.979C8.34779 163.16 8.77603 163.28 9.21489 163.335C6.34959 161.991 4.01529 159.73 2.5824 156.909C1.14952 154.088 0.700122 150.87 1.30553 147.765C1.64372 146.19 2.39839 144.734 3.49093 143.549C3.92905 143.057 4.46209 142.658 5.05812 142.377C5.65415 142.095 6.3009 141.937 6.95961 141.911C8.77654 141.911 10.4029 142.978 11.8132 144.121C12.7916 144.921 13.7191 145.765 14.6212 146.661C15.601 147.63 16.5278 148.652 17.3974 149.721C18.7369 151.357 19.9395 153.101 20.9932 154.934L28.1338 174.358Z" fill="white"/>
<path d="M27.9049 174.555C27.6596 175.117 27.3154 175.631 26.8885 176.072L26.8122 176.155C25.8367 177.071 24.6459 177.726 23.3499 178.06C21.8294 178.466 20.2664 178.691 18.6932 178.733C15.4024 178.873 11.9909 178.866 8.98599 177.514C7.15 176.688 5.40931 175.139 5.26319 173.133C5.24741 172.666 5.33488 172.201 5.51937 171.772C5.70385 171.343 5.98081 170.96 6.33048 170.65C6.63587 170.335 7.01753 170.105 7.43834 169.981C7.85915 169.858 8.30477 169.845 8.73187 169.945L8.1347 169.672C6.45475 168.873 4.88702 167.857 3.47167 166.65C2.27733 165.602 1.1338 163.868 2.02956 162.599C2.11413 162.47 2.21684 162.355 2.3345 162.256C3.14767 161.57 4.49449 161.671 5.51095 162.103C6.68624 162.605 7.76623 163.418 9.03681 163.538C8.65987 163.373 8.2914 163.189 7.93141 162.986C2.82368 160.116 -0.162187 153.709 1.10839 147.994C1.45663 146.314 2.28404 144.77 3.49073 143.55C4.35469 142.666 5.52679 142.149 6.76247 142.108C8.5794 142.108 10.2057 143.175 11.6097 144.324C12.3933 144.959 13.145 145.622 13.865 146.312C15.1022 147.474 16.2609 148.717 17.3337 150.033C18.6243 151.632 19.7863 153.33 20.8087 155.112L27.9049 174.555Z" fill="url(#paint1_linear_102_4936)"/>
<path opacity="0.2" d="M26.8122 176.154C25.8366 177.07 24.6458 177.725 23.3498 178.059C21.8293 178.465 20.2664 178.691 18.6932 178.732C15.4024 178.872 11.9909 178.866 8.98594 177.513C7.14995 176.688 5.40926 175.139 5.26314 173.132C5.24736 172.665 5.33484 172.201 5.51932 171.772C5.70381 171.342 5.98076 170.959 6.33043 170.649C6.79303 170.115 7.43437 169.768 8.13465 169.672C6.4547 168.872 4.88697 167.856 3.47162 166.649C2.27728 165.601 1.13376 163.868 2.02952 162.598C2.11409 162.47 2.2168 162.354 2.33445 162.255C3.10316 161.328 4.62785 161.43 5.72055 161.9C6.47654 162.217 7.19442 162.668 7.94406 162.979C2.82363 160.115 -0.162235 153.709 1.10835 147.994C1.45659 146.314 2.28399 144.77 3.49068 143.549C3.9288 143.057 4.46185 142.658 5.05787 142.377C5.6539 142.095 6.30065 141.937 6.95937 141.911C8.77629 141.911 10.4026 142.978 11.813 144.121C12.7913 144.921 13.7188 145.765 14.621 146.661C14.3753 146.533 14.123 146.418 13.865 146.318C12.3285 145.757 10.6432 145.757 9.10665 146.318C4.32927 147.911 10.7012 161.83 11.2984 163.424C11.8956 165.017 7.9123 165.614 7.31513 166.408C6.71795 167.202 12.6897 170.186 12.0925 171.78C11.4953 173.373 9.90076 174.364 11.8956 175.361C13.8904 176.358 17.6704 178.434 22.111 177.431L22.4414 177.348L26.7995 176.205L26.8122 176.154Z" fill="white"/>
<path style="mix-blend-mode:multiply" opacity="0.3" d="M28.1337 174.358C27.852 175.007 27.4388 175.59 26.9203 176.072L26.8441 176.155C25.8685 177.07 24.6777 177.725 23.3817 178.059L23.2038 177.964C22.8798 177.78 22.5241 177.59 22.1429 177.399C21.0739 176.854 19.9777 176.365 18.8585 175.932C15.2754 174.535 15.2754 172.548 16.2728 170.561C17.2702 168.573 16.4698 165.983 15.0785 162.401C13.6872 158.82 13.6872 158.026 15.4787 154.845C16.3078 153.33 16.9317 151.712 17.3338 150.032C17.3338 149.918 17.3909 149.804 17.4164 149.696C18.7558 151.332 19.9584 153.076 21.0121 154.909L28.1337 174.358Z" fill="url(#paint2_linear_102_4936)"/>
<path d="M84.1346 146.47C83.9179 149.429 82.9847 152.29 81.4155 154.807C81.117 155.296 80.7803 155.766 80.4499 156.223C79.9221 156.93 79.3424 157.596 78.7156 158.217L78.5631 158.37C77.965 158.944 77.3282 159.476 76.6572 159.963L69.4276 137.835C69.0193 136.05 68.7621 134.234 68.6589 132.406C68.6081 131.562 68.5954 130.711 68.6081 129.866C68.6046 129.852 68.6046 129.836 68.6081 129.822C68.6081 128.755 68.7606 127.599 69.453 126.825C69.5052 126.761 69.5626 126.701 69.6246 126.647C70.6791 125.675 72.458 125.929 73.557 126.857C74.5924 127.861 75.3084 129.149 75.6153 130.558C76.3339 132.99 76.7081 135.509 76.7271 138.044C76.7271 138.375 76.7271 138.679 76.7271 139.029C76.7961 137.971 77.1233 136.946 77.68 136.044C77.7275 135.974 77.7806 135.909 77.8389 135.848C78.1425 135.468 78.5635 135.2 79.036 135.085C79.5085 134.97 80.0057 135.015 80.4499 135.213C81.0583 135.646 81.4732 136.3 81.6061 137.035C82.1261 138.941 82.1129 140.952 81.568 142.851C81.6485 142.813 81.7341 142.788 81.8221 142.775C82.244 142.747 82.6641 142.851 83.0239 143.073C83.3838 143.295 83.6654 143.624 83.8296 144.013C84.142 144.792 84.247 145.639 84.1346 146.47V146.47Z" fill="white"/>
<path d="M83.9374 146.667C83.7225 149.495 82.8525 152.234 81.3963 154.668C81.0933 155.183 80.7647 155.683 80.4116 156.166C79.8886 156.891 79.3132 157.576 78.6899 158.217L78.5375 158.37C77.8844 159.022 77.1813 159.623 76.4347 160.166L69.1987 138.038C68.7887 136.243 68.5295 134.416 68.4237 132.577C68.3792 131.746 68.3601 130.914 68.3792 130.082C68.3792 128.926 68.5444 127.65 69.3956 126.869H69.4274C70.4883 125.923 72.2418 126.183 73.3344 127.098C74.4271 128.012 74.9862 129.428 75.3928 130.806C76.2023 133.554 76.5732 136.413 76.4918 139.276C76.5554 138.883 76.6125 138.476 76.7015 138.089C76.8233 137.443 77.0763 136.83 77.4448 136.286C77.5518 136.142 77.6731 136.011 77.8069 135.892C78.1141 135.58 78.5099 135.37 78.9407 135.29C79.3714 135.211 79.8162 135.266 80.2146 135.447C80.8268 135.881 81.2443 136.538 81.3772 137.276C81.8939 139.18 81.8786 141.19 81.3327 143.086C81.4167 143.053 81.5041 143.03 81.5932 143.016C82.0141 142.99 82.4328 143.094 82.7922 143.314C83.1515 143.535 83.4339 143.861 83.6007 144.248C83.9138 145.014 84.0296 145.845 83.9374 146.667Z" fill="url(#paint3_linear_102_4936)"/>
<path opacity="0.2" d="M84.1346 146.47C83.9179 149.429 82.9848 152.29 81.4156 154.807C81.4156 154.763 81.4156 154.719 81.4156 154.668C81.5172 152.128 81.6824 148.909 81.1424 146.864C80.145 143.054 79.5478 147.461 79.1539 145.473C78.76 143.486 79.948 139.905 78.7537 139.905C77.5593 139.905 76.1681 141.295 74.9419 139.308C73.7158 137.321 72.35 129.784 70.1646 129.149C69.8657 129.081 69.5535 129.106 69.2689 129.219C68.9843 129.333 68.7407 129.529 68.57 129.784C68.4972 129.869 68.4293 129.958 68.3667 130.05V130.05C68.3667 128.895 68.5319 127.618 69.3832 126.837H69.4149C69.4671 126.774 69.5245 126.714 69.5865 126.66C70.641 125.688 72.4198 125.942 73.5189 126.869C74.5543 127.874 75.2703 129.162 75.5772 130.571C76.2958 133.002 76.67 135.522 76.689 138.057C76.8109 137.412 77.0638 136.798 77.4323 136.254C77.5393 136.111 77.6606 135.979 77.7944 135.86C78.0981 135.481 78.5191 135.212 78.9915 135.098C79.464 134.983 79.9612 135.028 80.4054 135.225C81.0138 135.659 81.4287 136.313 81.5617 137.048C82.0816 138.953 82.0685 140.965 81.5236 142.864C81.604 142.826 81.6897 142.8 81.7777 142.788C82.1996 142.76 82.6197 142.864 82.9795 143.086C83.3393 143.308 83.6209 143.636 83.7852 144.026C84.1104 144.797 84.2308 145.639 84.1346 146.47V146.47Z" fill="white"/>
<path style="mix-blend-mode:multiply" opacity="0.3" d="M80.4498 156.249C79.922 156.955 79.3423 157.622 78.7155 158.242L78.563 158.395C77.91 159.048 77.2069 159.648 76.4602 160.192L69.2243 138.063C68.8143 136.268 68.555 134.441 68.4492 132.603C68.5091 132.537 68.5774 132.479 68.6525 132.431C69.0845 132.139 69.6182 132.266 70.2026 133.365C71.7972 136.349 75.5772 143.111 77.1908 146.292C78.3493 148.653 79.2831 151.117 79.9797 153.652C80.056 153.963 80.2529 155.017 80.4626 156.191C80.4614 156.211 80.4571 156.23 80.4498 156.249V156.249Z" fill="url(#paint4_linear_102_4936)"/>
<path d="M53.1767 119.694C53.1264 120.454 53.0374 121.21 52.9098 121.961C52.5986 123.904 52.1538 125.86 52.3127 127.822L48.304 127.441L30.2808 131.485C30.0744 131.553 29.8519 131.553 29.6455 131.485C29.4827 131.378 29.3547 131.226 29.2771 131.047L26.342 125.802L25.7067 124.704C25.0714 123.58 24.4361 122.443 23.9089 121.275C23.3146 120.026 22.8874 118.705 22.6383 117.345C22.1936 114.703 22.7844 111.732 24.811 109.979C27.3521 107.782 31.4688 108.227 34.0544 110.367C35.7942 111.897 37.0245 113.922 37.5803 116.17C37.5365 115.21 37.6112 114.248 37.8026 113.306C38.0441 112.106 38.6031 110.811 39.753 110.386C41.3158 109.814 42.9294 111.186 43.7744 112.621C44.3395 113.583 44.7672 114.619 45.045 115.7C45.4261 114.132 46.7348 112.735 48.3739 112.697C48.9997 112.704 49.6163 112.848 50.1804 113.119C50.7445 113.39 51.2425 113.781 51.6393 114.265C52.1095 114.804 52.4776 115.423 52.7256 116.094C53.1139 117.252 53.2672 118.476 53.1767 119.694V119.694Z" fill="white"/>
<path d="M52.9734 119.891C52.9271 120.644 52.8422 121.394 52.7192 122.139C52.408 124.082 51.9569 126.037 52.084 128.006L48.0816 127.618L30.0521 131.688C29.8462 131.759 29.6228 131.759 29.4168 131.688C29.254 131.581 29.126 131.429 29.0483 131.25C28.0615 129.506 27.0811 127.758 26.107 126.006L25.4717 124.907C24.8364 123.79 24.2011 122.653 23.6738 121.478C23.084 120.218 22.6611 118.886 22.4159 117.516C21.9712 114.881 22.562 111.903 24.5823 110.151C27.1234 107.954 31.2465 108.398 33.8257 110.538C35.5696 112.064 36.8007 114.091 37.3516 116.341C37.3134 115.381 37.3902 114.42 37.5803 113.478C37.8217 112.278 38.3808 110.982 39.5306 110.557C41.0934 109.986 42.7071 111.363 43.5457 112.792C44.107 113.756 44.5344 114.792 44.8162 115.872C45.1911 114.31 46.5061 112.913 48.1452 112.868C48.7726 112.875 49.3907 113.02 49.956 113.292C50.5213 113.564 51.02 113.957 51.4169 114.443C51.8938 114.978 52.2646 115.598 52.5096 116.272C52.9088 117.434 53.0666 118.665 52.9734 119.891V119.891Z" fill="url(#paint5_linear_102_4936)"/>
<path style="mix-blend-mode:multiply" opacity="0.3" d="M52.7195 122.139C52.4082 124.082 51.9571 126.038 52.0842 128.006L48.0819 127.619L30.0523 131.689C29.8464 131.759 29.623 131.759 29.417 131.689C29.2543 131.581 29.1262 131.429 29.0486 131.251C28.0618 129.507 27.0813 127.758 26.1072 126.006C27.6446 125.771 27.3778 124.895 30.9926 123.599C35.9669 121.809 35.9669 122.806 39.7469 123.199C43.5268 123.593 40.7443 125.79 45.9155 123.199C48.0437 122.139 50.6484 120.939 52.9672 119.897C52.9228 120.648 52.8401 121.396 52.7195 122.139V122.139Z" fill="url(#paint6_linear_102_4936)"/>
<path opacity="0.2" d="M51.4487 114.468C50.8486 114.487 50.2568 114.614 49.7016 114.843C45.5278 116.43 46.1249 121.408 42.5419 118.653C38.9589 115.897 37.3643 119.846 34.1815 119.446C30.9987 119.046 33.1841 115.072 29.0102 115.637C26.5135 115.992 24.8046 118.964 23.6992 121.472C23.1012 120.215 22.6698 118.885 22.4159 117.516C21.9712 114.881 22.562 111.903 24.5823 110.151C27.1234 107.954 31.2465 108.398 33.8257 110.538C35.5696 112.064 36.8007 114.091 37.3516 116.341C37.3134 115.381 37.3902 114.42 37.5803 113.478C37.8217 112.278 38.3808 110.982 39.5306 110.557C41.0934 109.986 42.7071 111.363 43.5457 112.792C44.107 113.756 44.5344 114.792 44.8162 115.872C45.1911 114.31 46.5061 112.913 48.1452 112.868C48.78 112.874 49.4056 113.02 49.9769 113.297C50.5482 113.574 51.0509 113.974 51.4487 114.468V114.468Z" fill="white"/>
<path d="M80.2277 168.993C79.1223 173.933 75.7807 178.714 71.3908 182.365C67.2043 185.844 62.0584 188.314 56.9697 188.93C36.4626 191.432 24.7288 187.343 19.7545 159.894C17.1434 145.48 22.5942 136.883 28.3626 131.955C30.4178 130.221 32.69 128.761 35.1221 127.612C37.4564 126.506 39.9975 125.902 42.5804 125.841C43.5207 125.841 44.607 125.841 45.795 125.885C49.8482 126.014 53.843 126.888 57.5796 128.463C71.8864 134.933 79.3192 152.134 80.5644 163.97C80.725 165.651 80.6113 167.348 80.2277 168.993V168.993Z" fill="white"/>
<path d="M80.0307 169.189C78.9189 174.135 75.5837 178.91 71.1938 182.561C67.0072 186.047 61.8614 188.511 56.7664 189.133C36.2592 191.628 24.5318 187.539 19.5574 160.09C16.9464 145.683 22.3972 137.085 28.1656 132.152C30.2169 130.415 32.4847 128.951 34.9124 127.796C37.2441 126.688 39.7834 126.085 42.3644 126.024C43.3046 126.024 44.3973 126.024 45.5853 126.069C49.6359 126.201 53.627 127.082 57.3572 128.666C71.6703 135.136 79.0968 152.331 80.342 164.166C80.5144 165.846 80.4092 167.543 80.0307 169.189V169.189Z" fill="url(#paint7_linear_102_4936)"/>
<path d="M62.503 154.68C60.3874 154.807 58.5769 153.004 57.0395 151.55C56.9869 151.511 56.9429 151.461 56.9102 151.404C56.8774 151.348 56.8565 151.285 56.8489 151.22C56.8489 151.048 57.0268 150.934 57.1792 150.858L62.1917 148.318C62.1917 148.318 63.4368 154.623 62.503 154.68Z" fill="#FF931E"/>
<path d="M50.6548 155.385C49.3041 154.842 47.8447 154.622 46.3939 154.745C44.9431 154.867 43.5412 155.328 42.3007 156.09C41.4113 156.649 40.541 157.671 40.9412 158.63C41.2588 159.392 42.2118 159.658 43.0186 159.747C45.1253 159.969 47.2536 159.639 49.1936 158.789C50.2291 158.331 51.3409 157.449 51.1757 156.325" fill="#FFBFCA"/>
<path d="M76.9302 150.928C76.1944 151.56 75.3406 152.04 74.418 152.339C73.4954 152.639 72.5225 152.753 71.5556 152.674C70.5455 152.591 69.4337 152.185 69.0144 151.258C68.5952 150.331 69.0589 149.258 69.726 148.515C70.4084 147.787 71.2832 147.267 72.2489 147.016C73.2146 146.764 74.2319 146.791 75.1831 147.093L76.9302 150.928Z" fill="#FFBFCA"/>
<path style="mix-blend-mode:multiply" opacity="0.3" d="M80.0307 169.189C78.9189 174.135 75.5837 178.91 71.1938 182.561C67.0072 186.047 61.8614 188.511 56.7664 189.133C36.2592 191.628 24.5318 187.539 19.5574 160.09C16.9464 145.683 22.3972 137.085 28.1656 132.152C30.2169 130.415 32.4847 128.951 34.9124 127.796C37.2441 126.688 39.7834 126.085 42.3644 126.024C43.3046 126.024 44.3973 126.024 45.5853 126.069C38.8004 129.079 26.444 137.206 30.9736 155.404C37.0851 179.742 69.6882 176.294 80.0307 169.189Z" fill="url(#paint8_linear_102_4936)"/>
<path style="mix-blend-mode:multiply" opacity="0.3" d="M71.1938 182.561C67.0072 186.047 61.8614 188.511 56.7664 189.133C36.2592 191.628 24.5318 187.539 19.5574 160.09C16.9464 145.683 22.3972 137.085 28.1656 132.152C25.5292 137.638 24.4873 144.73 26.8188 153.817C34.582 184.047 54.0855 187.228 68.4112 183.025C69.3161 182.756 70.2507 182.6 71.1938 182.561Z" fill="url(#paint9_linear_102_4936)"/>
<path opacity="0.2" d="M67.6424 168.497C68.7982 168.358 69.9106 167.973 70.9046 167.367C71.8986 166.762 72.751 165.95 73.4044 164.987C74.0577 164.024 74.4967 162.932 74.6919 161.785C74.887 160.638 74.8336 159.463 74.5353 158.338C72.3881 150.16 67.7377 138.019 58.4625 133.308C43.9334 125.949 41.7417 144.642 44.5306 152.001C46.9256 158.363 51.9698 170.434 67.6424 168.497Z" fill="url(#paint10_linear_102_4936)"/>
<path d="M38.9337 157.118C37.6279 156.81 36.2921 156.646 34.9504 156.629C33.8069 156.572 32.3076 156.356 31.2721 156.915C31.2064 156.956 31.1537 157.014 31.1206 157.084C31.0874 157.154 31.0751 157.231 31.0852 157.308C31.0953 157.384 31.1273 157.456 31.1773 157.515C31.2274 157.574 31.2934 157.617 31.3674 157.639C32.422 158.045 33.826 157.747 34.9504 157.791C36.221 157.836 37.4916 158.045 38.8003 158.103C38.9211 158.102 39.0376 158.057 39.1283 157.977C39.219 157.898 39.2779 157.788 39.2941 157.668C39.3103 157.549 39.2828 157.427 39.2166 157.326C39.1504 157.225 39.0499 157.151 38.9337 157.118V157.118Z" fill="#4D4D4D"/>
<path d="M39.3401 160.262C37.9743 160.522 36.6465 161.297 35.3886 161.855C34.1308 162.414 32.5997 162.84 31.5769 163.722C31.1767 164.059 31.6214 164.573 32.0343 164.51C33.3621 164.3 34.7406 163.379 35.954 162.802C37.2691 162.293 38.5223 161.637 39.6896 160.846C39.9881 160.611 39.6514 160.211 39.3528 160.262H39.3401Z" fill="#4D4D4D"/>
<path d="M40.363 163.392C39.3727 164.33 38.4373 165.324 37.5614 166.37C36.799 167.202 35.6936 168.027 35.287 169.1C35.268 169.166 35.2667 169.236 35.2833 169.302C35.2999 169.369 35.3338 169.429 35.3816 169.478C35.4294 169.527 35.4893 169.563 35.5553 169.581C35.6212 169.6 35.6909 169.6 35.7572 169.583C36.8626 169.119 37.663 167.894 38.4571 167.011C39.3818 166.039 40.2055 164.975 40.9157 163.837C40.9521 163.763 40.9618 163.679 40.9432 163.599C40.9246 163.519 40.8788 163.448 40.8137 163.398C40.7486 163.347 40.6681 163.321 40.5859 163.324C40.5038 163.326 40.425 163.357 40.363 163.411V163.392Z" fill="#4D4D4D"/>
<path d="M52.6433 149.112C51.3727 146.75 47.7961 145.137 45.185 145.785C44.5376 145.946 43.9518 146.294 43.5001 146.785C43.0484 147.276 42.7507 147.888 42.6439 148.547C42.4533 149.62 42.5041 151.721 43.565 152.293C43.7242 152.382 43.9118 152.406 44.0883 152.36C44.2648 152.314 44.4165 152.201 44.5116 152.045C44.9881 151.226 44.4036 150.261 44.4354 149.359C44.4269 149.128 44.4648 148.898 44.5471 148.682C44.6293 148.466 44.7541 148.268 44.9141 148.101C45.074 147.934 45.2659 147.801 45.4783 147.71C45.6907 147.618 45.9194 147.57 46.1507 147.569C48.2852 147.359 49.9624 148.839 51.4871 150.026C51.6196 150.145 51.7897 150.214 51.9678 150.221C52.1458 150.228 52.3207 150.172 52.4618 150.063C52.603 149.954 52.7017 149.8 52.7406 149.626C52.7796 149.452 52.7564 149.27 52.6751 149.112H52.6433Z" fill="#4D4D4D"/>
<path d="M64.0402 144.876C63.7416 144.032 63.0809 143.384 62.7696 142.508C62.5727 142.015 62.5028 141.48 62.5663 140.952C62.6997 140.381 63.2397 140.387 63.7543 140.387C64.5941 140.377 65.4247 140.562 66.1811 140.927C67.0387 141.365 67.331 141.975 67.8646 142.711C68.2394 143.232 69.2622 143.13 69.2051 142.349C68.9891 139.536 65.0249 138.444 62.7378 138.87C59.6694 139.435 60.9971 144.87 63.3731 145.486C63.4616 145.516 63.5566 145.52 63.6474 145.499C63.7383 145.477 63.8214 145.431 63.8874 145.365C63.9534 145.299 63.9997 145.216 64.021 145.125C64.0424 145.034 64.038 144.939 64.0084 144.851L64.0402 144.876Z" fill="#4D4D4D"/>
<defs>
<linearGradient id="paint0_linear_102_4936" x1="44.3909" y1="56.4839" x2="46.3793" y2="56.4839" gradientUnits="userSpaceOnUse">
<stop stop-color="white"/>
<stop offset="1" stop-color="#F2F2F2"/>
</linearGradient>
<linearGradient id="paint1_linear_102_4936" x1="22.8671" y1="178.955" x2="0.24147" y2="145.634" gradientUnits="userSpaceOnUse">
<stop stop-color="#F79472"/>
<stop offset="1" stop-color="#F9AB90"/>
</linearGradient>
<linearGradient id="paint2_linear_102_4936" x1="14.0811" y1="163.868" x2="28.1019" y2="163.868" gradientUnits="userSpaceOnUse">
<stop stop-color="#F79472"/>
<stop offset="1" stop-color="#F9AB90"/>
</linearGradient>
<linearGradient id="paint3_linear_102_4936" x1="83.5944" y1="155.328" x2="65.8697" y2="129.223" gradientUnits="userSpaceOnUse">
<stop stop-color="#F79472"/>
<stop offset="1" stop-color="#F9AB90"/>
</linearGradient>
<linearGradient id="paint4_linear_102_4936" x1="68.4492" y1="146.216" x2="80.4498" y2="146.216" gradientUnits="userSpaceOnUse">
<stop stop-color="#F79472"/>
<stop offset="1" stop-color="#F9AB90"/>
</linearGradient>
<linearGradient id="paint5_linear_102_4936" x1="39.4353" y1="130.952" x2="36.2367" y2="107.033" gradientUnits="userSpaceOnUse">
<stop stop-color="#F79472"/>
<stop offset="1" stop-color="#F9AB90"/>
</linearGradient>
<linearGradient id="paint6_linear_102_4936" x1="43.2409" y1="133.168" x2="37.9031" y2="118.378" gradientUnits="userSpaceOnUse">
<stop stop-color="#F79472"/>
<stop offset="1" stop-color="#F9AB90"/>
</linearGradient>
<linearGradient id="paint7_linear_102_4936" x1="30.9673" y1="190.885" x2="79.8586" y2="104.02" gradientUnits="userSpaceOnUse">
<stop stop-color="#F8C87B"/>
<stop offset="0.46" stop-color="#F9CD88"/>
<stop offset="0.7" stop-color="#F9D190"/>
</linearGradient>
<linearGradient id="paint8_linear_102_4936" x1="31.107" y1="190.631" x2="77.1418" y2="108.847" gradientUnits="userSpaceOnUse">
<stop stop-color="#F8C87B"/>
<stop offset="0.46" stop-color="#F9CD88"/>
<stop offset="0.7" stop-color="#F9D190"/>
</linearGradient>
<linearGradient id="paint9_linear_102_4936" x1="30.8021" y1="189.184" x2="65.9693" y2="126.714" gradientUnits="userSpaceOnUse">
<stop stop-color="#F8C87B"/>
<stop offset="0.46" stop-color="#F9CD88"/>
<stop offset="0.7" stop-color="#F9D190"/>
</linearGradient>
<linearGradient id="paint10_linear_102_4936" x1="50.4261" y1="166.605" x2="74.3703" y2="124.071" gradientUnits="userSpaceOnUse">
<stop offset="0.17" stop-color="white"/>
<stop offset="1" stop-color="white"/>
</linearGradient>
</defs>
</svg>
