<svg width="332" height="264" viewBox="0 0 332 264" fill="none" xmlns="http://www.w3.org/2000/svg">
<path d="M288.499 577.104C231.439 577.104 175.661 560.184 128.217 528.483C80.7735 496.783 43.7958 451.725 21.9599 399.009C0.124026 346.292 -5.58924 288.284 5.5426 232.321C16.6744 176.357 44.1514 124.952 84.4988 84.6043C124.846 44.2569 176.252 16.7799 232.216 5.64807C288.179 -5.48377 346.187 0.229495 398.903 22.0654C451.62 43.9012 496.677 80.879 528.378 128.323C560.079 175.766 576.999 231.545 576.999 288.605C576.933 365.099 546.517 438.442 492.427 492.532C438.337 546.622 364.994 577.039 288.499 577.104ZM288.499 124.563C256.06 124.551 224.345 134.158 197.366 152.171C170.387 170.184 149.356 195.793 136.932 225.759C124.508 255.725 121.249 288.703 127.568 320.521C133.887 352.339 149.499 381.569 172.431 404.514C195.363 427.458 224.584 443.088 256.398 449.424C288.213 455.761 321.192 452.521 351.165 440.114C381.139 427.707 406.759 406.691 424.788 379.722C442.816 352.753 452.442 321.044 452.448 288.605C452.415 245.124 435.134 203.433 404.398 172.679C373.661 141.925 331.979 124.62 288.499 124.563Z" fill="#161F32"/>
</svg>
