<svg width="212" height="44" viewBox="0 0 212 44" fill="none" xmlns="http://www.w3.org/2000/svg">
<path fill-rule="evenodd" clip-rule="evenodd" d="M0.113281 21.4814L15.5226 7.88942C18.3781 11.1184 22.3985 13.0834 26.7017 13.3535C31.005 13.6236 35.2397 12.1767 38.477 9.33011C45.8062 2.88491 55.3941 -0.391399 65.1371 0.219908C74.8802 0.831215 83.9829 5.28022 90.4482 12.5909C93.1114 15.6016 96.7949 17.5211 100.789 17.98C104.784 18.4389 108.807 17.4047 112.084 15.0765L113.346 13.965C120.675 7.5201 130.262 4.24391 140.004 4.85523C149.746 5.46654 158.848 9.91543 165.313 17.2258C168.168 20.4548 172.189 22.4199 176.492 22.69C180.795 22.9601 185.03 21.5131 188.267 18.6665C195.596 12.2216 205.184 8.94526 214.927 9.55621C224.67 10.1672 233.773 14.6155 240.238 21.9255L224.829 35.5165C221.973 32.2877 217.953 30.3228 213.65 30.0529C209.346 29.783 205.112 31.23 201.875 34.0767C194.545 40.5217 184.958 43.7981 175.215 43.187C165.472 42.576 156.369 38.1275 149.903 30.8173C147.241 27.8061 143.558 25.8859 139.563 25.4261C135.569 24.9663 131.545 25.9996 128.268 28.327L127.005 29.4385C119.677 35.8835 110.09 39.1599 100.348 38.5488C90.6055 37.9378 81.5035 33.4892 75.0388 26.1791C72.1823 22.9501 68.1611 20.9852 63.8571 20.7153C59.5531 20.4454 55.3177 21.8925 52.0798 24.7393C44.7516 31.1844 35.1647 34.461 25.4225 33.8502C15.6802 33.2394 6.57825 28.7911 0.113281 21.4814Z" fill="white"/>
</svg>
