<svg width="61" height="28" viewBox="0 0 61 28" fill="none" xmlns="http://www.w3.org/2000/svg">
<path fill-rule="evenodd" clip-rule="evenodd" d="M1.97637 2.12538e-05C1.58523 0.00272677 1.20364 0.12113 0.879733 0.340293C0.555824 0.559455 0.304098 0.869558 0.156286 1.23152C0.00847478 1.59348 -0.0287978 1.99107 0.0491672 2.37418C0.127132 2.75728 0.316846 3.10873 0.594384 3.38422C0.871921 3.65971 1.22485 3.8469 1.60869 3.92218C1.99252 3.99746 2.39005 3.95747 2.75117 3.80724C3.11229 3.65701 3.42082 3.40328 3.63786 3.07803C3.85489 2.75279 3.97072 2.37059 3.97073 1.97964C3.97003 1.71871 3.91787 1.4605 3.81723 1.21974C3.71658 0.978987 3.56943 0.760426 3.3842 0.576561C3.19896 0.392696 2.97929 0.247135 2.73772 0.148207C2.49615 0.0492799 2.23743 -0.0010782 1.97637 2.12538e-05ZM13.3394 2.12538e-05C12.9483 0.00272677 12.5667 0.12113 12.2428 0.340293C11.9189 0.559455 11.6672 0.869558 11.5194 1.23152C11.3715 1.59348 11.3343 1.99107 11.4122 2.37418C11.4902 2.75728 11.6799 3.10873 11.9575 3.38422C12.235 3.65971 12.5879 3.8469 12.9718 3.92218C13.3556 3.99746 13.7531 3.95747 14.1142 3.80724C14.4754 3.65701 14.7839 3.40328 15.0009 3.07803C15.218 2.75279 15.3338 2.37059 15.3338 1.97964C15.3331 1.71871 15.2809 1.4605 15.1803 1.21974C15.0797 0.978987 14.9325 0.760426 14.7473 0.576561C14.562 0.392696 14.3423 0.247135 14.1008 0.148207C13.8592 0.0492799 13.6005 -0.0010782 13.3394 2.12538e-05ZM24.7025 2.12538e-05C24.3114 0.00272677 23.9298 0.12113 23.6059 0.340293C23.282 0.559455 23.0302 0.869558 22.8824 1.23152C22.7346 1.59348 22.6973 1.99107 22.7753 2.37418C22.8533 2.75728 23.043 3.10873 23.3205 3.38422C23.598 3.65971 23.951 3.8469 24.3348 3.92218C24.7186 3.99746 25.1162 3.95747 25.4773 3.80724C25.8384 3.65701 26.147 3.40328 26.364 3.07803C26.581 2.75279 26.6969 2.37059 26.6969 1.97964C26.6963 1.71868 26.6442 1.46042 26.5436 1.21961C26.443 0.978804 26.2958 0.760196 26.1106 0.57631C25.9253 0.392424 25.7056 0.246879 25.464 0.14799C25.2224 0.049101 24.9636 -0.00118663 24.7025 2.12538e-05V2.12538e-05ZM36.0656 2.12538e-05C35.6744 0.00272677 35.2929 0.12113 34.9689 0.340293C34.645 0.559455 34.3933 0.869558 34.2455 1.23152C34.0977 1.59348 34.0604 1.99107 34.1384 2.37418C34.2163 2.75728 34.406 3.10873 34.6836 3.38422C34.9611 3.65971 35.3141 3.8469 35.6979 3.92218C36.0817 3.99746 36.4793 3.95747 36.8404 3.80724C37.2015 3.65701 37.51 3.40328 37.7271 3.07803C37.9441 2.75279 38.0599 2.37059 38.0599 1.97964C38.0592 1.71872 38.007 1.46052 37.9064 1.21978C37.8057 0.979037 37.6586 0.760502 37.4733 0.576645C37.2881 0.392787 37.0684 0.247215 36.8269 0.148274C36.5853 0.0493339 36.3266 -0.0010421 36.0656 2.12538e-05V2.12538e-05ZM47.4286 2.12538e-05C47.0374 0.00245659 46.6557 0.120625 46.3316 0.339624C46.0075 0.558623 45.7556 0.868644 45.6076 1.23058C45.4595 1.59252 45.4221 1.99016 45.4999 2.37336C45.5777 2.75655 45.7673 3.10813 46.0448 3.38375C46.3223 3.65938 46.6752 3.84669 47.0591 3.92208C47.443 3.99747 47.8406 3.95756 48.2018 3.80737C48.563 3.65719 48.8716 3.40344 49.0887 3.07817C49.3058 2.75289 49.4216 2.37064 49.4216 1.97964C49.4209 1.71884 49.3688 1.46075 49.2682 1.22009C49.1676 0.979444 49.0206 0.760969 48.8355 0.57713C48.6504 0.39329 48.4309 0.247697 48.1895 0.148676C47.9481 0.0496544 47.6896 -0.000861655 47.4286 2.12538e-05V2.12538e-05ZM58.7917 3.95927C59.1829 3.95657 59.5644 3.83816 59.8883 3.619C60.2122 3.39984 60.464 3.08974 60.6118 2.72778C60.7596 2.36582 60.7969 1.96822 60.7189 1.58512C60.641 1.20201 60.4512 0.850559 60.1737 0.575073C59.8962 0.299586 59.5432 0.112394 59.1594 0.0371138C58.7756 -0.0381666 58.378 0.00182658 58.0169 0.152054C57.6558 0.302281 57.3473 0.556018 57.1302 0.881262C56.9132 1.20651 56.7974 1.58869 56.7973 1.97964C56.7982 2.24051 56.8506 2.49865 56.9513 2.73932C57.052 2.97998 57.1991 3.19847 57.3843 3.3823C57.5695 3.56612 57.7891 3.71169 58.0306 3.81069C58.2721 3.90968 58.5307 3.96017 58.7917 3.95927V3.95927ZM1.97637 11.986C1.58523 11.9887 1.20364 12.1071 0.879733 12.3263C0.555824 12.5454 0.304098 12.8555 0.156286 13.2175C0.00847478 13.5794 -0.0287978 13.977 0.0491672 14.3601C0.127132 14.7433 0.316846 15.0947 0.594384 15.3702C0.871921 15.6457 1.22485 15.8329 1.60869 15.9082C1.99252 15.9834 2.39005 15.9434 2.75117 15.7932C3.11229 15.643 3.42082 15.3892 3.63786 15.064C3.85489 14.7388 3.97072 14.3566 3.97073 13.9656C3.96983 13.7048 3.91754 13.4466 3.81682 13.2059C3.71611 12.9653 3.56896 12.7468 3.38376 12.563C3.19857 12.3791 2.97897 12.2336 2.73748 12.1346C2.496 12.0356 2.23738 11.9851 1.97637 11.986V11.986ZM13.3394 11.986C12.9483 11.9887 12.5667 12.1071 12.2428 12.3263C11.9189 12.5454 11.6672 12.8555 11.5194 13.2175C11.3715 13.5794 11.3343 13.977 11.4122 14.3601C11.4902 14.7433 11.6799 15.0947 11.9575 15.3702C12.235 15.6457 12.5879 15.8329 12.9718 15.9082C13.3556 15.9834 13.7531 15.9434 14.1142 15.7932C14.4754 15.643 14.7839 15.3892 15.0009 15.064C15.218 14.7388 15.3338 14.3566 15.3338 13.9656C15.3329 13.7048 15.2806 13.4466 15.1799 13.2059C15.0792 12.9653 14.932 12.7468 14.7468 12.563C14.5616 12.3791 14.342 12.2336 14.1006 12.1346C13.8591 12.0356 13.6004 11.9851 13.3394 11.986V11.986ZM24.7025 11.986C24.3114 11.9887 23.9298 12.1071 23.6059 12.3263C23.282 12.5454 23.0302 12.8555 22.8824 13.2175C22.7346 13.5794 22.6973 13.977 22.7753 14.3601C22.8533 14.7433 23.043 15.0947 23.3205 15.3702C23.598 15.6457 23.951 15.8329 24.3348 15.9082C24.7186 15.9834 25.1162 15.9434 25.4773 15.7932C25.8384 15.643 26.147 15.3892 26.364 15.064C26.581 14.7388 26.6969 14.3566 26.6969 13.9656C26.6962 13.7047 26.644 13.4465 26.5434 13.2057C26.4427 12.965 26.2956 12.7464 26.1103 12.5625C25.9251 12.3787 25.7054 12.2331 25.4638 12.1342C25.2223 12.0353 24.9636 11.9849 24.7025 11.986V11.986ZM36.0656 11.986C35.6744 11.9887 35.2929 12.1071 34.9689 12.3263C34.645 12.5454 34.3933 12.8555 34.2455 13.2175C34.0977 13.5794 34.0604 13.977 34.1384 14.3601C34.2163 14.7433 34.406 15.0947 34.6836 15.3702C34.9611 15.6457 35.3141 15.8329 35.6979 15.9082C36.0817 15.9834 36.4793 15.9434 36.8404 15.7932C37.2015 15.643 37.51 15.3892 37.7271 15.064C37.9441 14.7388 38.0599 14.3566 38.0599 13.9656C38.059 13.7048 38.0067 13.4466 37.906 13.2059C37.8053 12.9653 37.6582 12.7468 37.473 12.563C37.2878 12.3791 37.0682 12.2336 36.8267 12.1346C36.5852 12.0356 36.3266 11.9851 36.0656 11.986V11.986ZM47.4286 11.986C47.0374 11.9884 46.6557 12.1066 46.3316 12.3256C46.0075 12.5446 45.7556 12.8546 45.6076 13.2166C45.4595 13.5785 45.4221 13.9761 45.4999 14.3593C45.5777 14.7425 45.7673 15.0941 46.0448 15.3697C46.3223 15.6453 46.6752 15.8327 47.0591 15.9081C47.443 15.9834 47.8406 15.9435 48.2018 15.7933C48.563 15.6432 48.8716 15.3894 49.0887 15.0642C49.3058 14.7389 49.4216 14.3566 49.4216 13.9656C49.4198 13.439 49.2089 12.9347 48.8351 12.5635C48.4614 12.1922 47.9555 11.9845 47.4286 11.986V11.986ZM58.7917 11.986C58.4005 11.9884 58.0188 12.1066 57.6947 12.3256C57.3706 12.5446 57.1187 12.8546 56.9706 13.2166C56.8226 13.5785 56.7852 13.9761 56.863 14.3593C56.9408 14.7425 57.1304 15.0941 57.4079 15.3697C57.6854 15.6453 58.0383 15.8327 58.4222 15.9081C58.806 15.9834 59.2036 15.9435 59.5648 15.7933C59.926 15.6432 60.2346 15.3894 60.4517 15.0642C60.6688 14.7389 60.7847 14.3566 60.7847 13.9656C60.7829 13.439 60.5719 12.9347 60.1982 12.5635C59.8245 12.1922 59.3186 11.9845 58.7917 11.986V11.986ZM1.97637 23.972C1.5851 23.9745 1.20333 24.0928 0.879231 24.312C0.555134 24.5311 0.303221 24.8412 0.155232 25.2033C0.00724365 25.5653 -0.0301811 25.963 0.047678 26.3463C0.125537 26.7296 0.315189 27.0812 0.592727 27.3569C0.870266 27.6325 1.22326 27.8199 1.6072 27.8953C1.99113 27.9708 2.38882 27.9309 2.75012 27.7808C3.11141 27.6306 3.42015 27.3769 3.63737 27.0516C3.8546 26.7263 3.97058 26.3441 3.97073 25.953C3.97001 25.692 3.91784 25.4337 3.81721 25.1929C3.71658 24.952 3.56946 24.7334 3.38425 24.5494C3.19904 24.3655 2.97937 24.2198 2.7378 24.1207C2.49623 24.0216 2.23749 23.9711 1.97637 23.972V23.972ZM13.3394 23.972C12.9482 23.9745 12.5664 24.0928 12.2423 24.312C11.9182 24.5311 11.6663 24.8412 11.5183 25.2033C11.3703 25.5653 11.3329 25.963 11.4107 26.3463C11.4886 26.7296 11.6783 27.0812 11.9558 27.3569C12.2333 27.6325 12.5863 27.8199 12.9703 27.8953C13.3542 27.9708 13.7519 27.9309 14.1132 27.7808C14.4745 27.6306 14.7832 27.3769 15.0004 27.0516C15.2177 26.7263 15.3337 26.3441 15.3338 25.953C15.3331 25.692 15.2809 25.4337 15.1803 25.1929C15.0796 24.952 14.9325 24.7334 14.7473 24.5494C14.5621 24.3655 14.3424 24.2198 14.1009 24.1207C13.8593 24.0216 13.6006 23.9711 13.3394 23.972V23.972ZM24.7025 23.972C24.3112 23.9745 23.9295 24.0928 23.6054 24.312C23.2813 24.5311 23.0293 24.8412 22.8814 25.2033C22.7334 25.5653 22.6959 25.963 22.7738 26.3463C22.8517 26.7296 23.0413 27.0812 23.3189 27.3569C23.5964 27.6325 23.9494 27.8199 24.3333 27.8953C24.7173 27.9708 25.115 27.9309 25.4763 27.7808C25.8376 27.6306 26.1463 27.3769 26.3635 27.0516C26.5807 26.7263 26.6967 26.3441 26.6969 25.953C26.6963 25.6919 26.6443 25.4336 26.5437 25.1927C26.4431 24.9518 26.296 24.7331 26.1107 24.5491C25.9255 24.3651 25.7058 24.2194 25.4641 24.1204C25.2225 24.0213 24.9637 23.9709 24.7025 23.972V23.972ZM36.0656 23.972C35.6743 23.9745 35.2925 24.0928 34.9684 24.312C34.6443 24.5311 34.3924 24.8412 34.2444 25.2033C34.0964 25.5653 34.059 25.963 34.1369 26.3463C34.2147 26.7296 34.4044 27.0812 34.6819 27.3569C34.9595 27.6325 35.3125 27.8199 35.6964 27.8953C36.0803 27.9708 36.478 27.9309 36.8393 27.7808C37.2006 27.6306 37.5093 27.3769 37.7266 27.0516C37.9438 26.7263 38.0598 26.3441 38.0599 25.953C38.0592 25.692 38.0071 25.4337 37.9064 25.1929C37.8058 24.952 37.6587 24.7334 37.4734 24.5494C37.2882 24.3655 37.0686 24.2198 36.827 24.1207C36.5854 24.0216 36.3267 23.9711 36.0656 23.972V23.972ZM47.4286 23.972C47.0373 23.9743 46.6554 24.0924 46.3311 24.3113C46.0069 24.5303 45.7547 24.8403 45.6065 25.2023C45.4583 25.5643 45.4207 25.9621 45.4984 26.3455C45.5761 26.7288 45.7657 27.0806 46.0431 27.3564C46.3206 27.6322 46.6736 27.8197 47.0576 27.8953C47.4416 27.9708 47.8393 27.931 48.2007 27.7809C48.5621 27.6308 48.8709 27.3771 49.0882 27.0518C49.3055 26.7265 49.4215 26.3441 49.4216 25.953C49.4209 25.6921 49.3688 25.4339 49.2682 25.1932C49.1677 24.9525 49.0207 24.7339 48.8356 24.5499C48.6506 24.366 48.4311 24.2203 48.1897 24.1211C47.9482 24.0219 47.6896 23.9712 47.4286 23.972V23.972ZM58.7917 23.972C58.4004 23.9743 58.0185 24.0924 57.6942 24.3113C57.3699 24.5303 57.1178 24.8403 56.9696 25.2023C56.8214 25.5643 56.7838 25.9621 56.8615 26.3455C56.9392 26.7288 57.1287 27.0806 57.4062 27.3564C57.6837 27.6322 58.0367 27.8197 58.4207 27.8953C58.8046 27.9708 59.2024 27.931 59.5638 27.7809C59.9252 27.6308 60.234 27.3771 60.4512 27.0518C60.6685 26.7265 60.7846 26.3441 60.7847 25.953C60.783 25.4262 60.5722 24.9216 60.1985 24.5502C59.8247 24.1787 59.3188 23.9707 58.7917 23.972V23.972Z" fill="#161F32"/>
</svg>
