<svg width="60" height="50" viewBox="0 0 60 50" fill="none" xmlns="http://www.w3.org/2000/svg">
<path d="M34.0446 8.32067L53.1514 38.5952C54.446 40.6463 55.3031 42.0101 55.8412 43.0653C56.3903 44.1423 56.3563 44.4408 56.358 44.4179C56.3135 44.9937 56.0223 45.5221 55.5593 45.8672C55.5504 45.8732 55.2808 46.0478 54.1389 46.1526C52.9594 46.2607 51.3486 46.2638 48.9231 46.2638H10.7094C8.28387 46.2638 6.67314 46.2607 5.49358 46.1526C4.35153 46.0478 4.08205 45.8731 4.07316 45.8672C3.61044 45.5223 3.31929 44.9943 3.27453 44.4189C3.27429 44.4091 3.26962 44.0886 3.79134 43.0653C4.3294 42.0101 5.18653 40.6463 6.48106 38.5952L25.5879 8.32067C26.7422 6.49182 27.5003 5.29618 28.138 4.46447C28.7734 3.63576 29.0281 3.53006 29.0316 3.52861L29.0317 3.5286C29.5329 3.31484 30.0996 3.31484 30.6008 3.5286L30.6009 3.52861C30.6044 3.53006 30.8591 3.63576 31.4945 4.46447C32.1322 5.29618 32.8903 6.49181 34.0446 8.32067Z" stroke="#00924B" stroke-width="6" stroke-linecap="round" stroke-linejoin="round"/>
</svg>
