<svg width="160" height="89" viewBox="0 0 160 89" fill="none" xmlns="http://www.w3.org/2000/svg">
<path fill-rule="evenodd" clip-rule="evenodd" d="M0.424564 52.0382C0.53625 51.3425 0.648708 50.642 0.613545 49.947C0.412485 48.4957 2.58132 48.4783 2.90016 49.7349C3.25707 50.4827 3.29871 51.3057 3.34035 52.1287C3.93282 52.4871 4.21002 52.9208 4.05417 53.6243C4.00977 53.77 3.96746 53.9241 3.92404 54.0821C3.6999 54.8982 3.44607 55.8224 2.72051 56.2745C1.65692 56.6948 0.471969 55.9779 0.350619 54.8407C0.120349 53.9331 0.271734 52.9902 0.424564 52.0382ZM8.90986 70.1244C8.31381 68.4342 7.83555 66.5492 7.55478 64.7837C7.39536 64.1554 8.45896 63.7352 8.81587 64.483C9.29413 66.3679 9.69268 67.9387 10.604 69.5538C10.9054 70.1853 11.3402 70.7553 11.772 71.3214C12.3629 72.096 12.9482 72.8632 13.1785 73.7708C13.5354 74.5186 12.5515 75.253 11.7616 74.775C10.3791 73.9386 9.5059 71.8147 8.90986 70.1244ZM22.5022 80.2101C20.6867 79.6436 18.7915 78.7629 17.0141 77.6875C16.4216 77.3291 15.8327 78.3025 16.4252 78.6609C16.9662 78.9882 17.5939 79.4512 18.2761 79.9543C20.5823 81.6551 23.5115 83.8153 25.8215 82.7502C26.452 82.5999 26.2129 81.6574 25.8179 81.4184C25.1596 81.0201 24.3966 80.7949 23.6336 80.5696C23.2521 80.457 22.8706 80.3444 22.5022 80.2101ZM36.1562 74.8664C36.3022 74.5304 36.4498 74.1908 36.6019 73.8483C36.7577 73.1448 38.2163 72.9635 38.1401 73.9812C37.9153 78.366 34.9256 81.0781 30.9864 82.6838C30.5534 82.9537 30.2762 82.52 30.7092 82.2502C33.7141 80.4865 34.8727 77.8202 36.1562 74.8664ZM34.9177 57.7426L34.9177 57.7427C34.9879 58.2838 35.0586 58.8284 35.1044 59.3791C35.3471 61.6534 35.7075 63.733 36.2655 65.9321C36.4249 66.5604 37.5682 66.4543 37.5266 65.6314C37.1785 64.2593 37.102 62.9106 37.0233 61.5223L37.0233 61.5222L37.0233 61.5211L37.0233 61.5207L37.0232 61.5199L37.0232 61.5191L37.0231 61.5183C36.9938 61.0007 36.9641 60.4776 36.9199 59.9456C36.8601 59.2269 36.8586 58.472 36.857 57.7111C36.8543 56.3966 36.8516 55.0644 36.5487 53.8705C36.3095 52.928 34.889 52.6005 34.8129 53.6181C34.5614 54.9958 34.738 56.3575 34.9177 57.7426ZM30.3364 45.8578C29.1027 41.6542 27.7476 36.3135 28.4852 31.973C28.6411 31.2695 29.7844 31.1634 30.221 32.2253C30.5399 33.482 30.5785 34.8055 30.6171 36.1289C30.6364 36.7907 30.6557 37.4524 30.71 38.1058C30.8349 40.5748 31.1573 43.1632 31.5975 45.557C31.6391 46.38 30.6933 46.6056 30.3364 45.8578ZM31.6602 10.2258C29.4126 13.5082 28.651 17.6897 27.969 21.4342L27.9055 21.7826C27.7496 22.4861 28.6574 22.7694 29.0107 22.1854C30.0256 18.2785 31.6328 14.7301 33.4376 11.3011C33.829 10.2083 32.2491 9.25239 31.6602 10.2258ZM40.5915 2.59859C42.2856 2.02798 44.295 1.38217 46.0689 1.12571C47.9605 0.67458 50.3649 0.267748 51.9448 1.22363C52.8526 1.5069 52.9739 2.64405 52.2256 2.9891C50.9706 3.51917 49.4497 3.633 48.0439 3.73823L48.0438 3.73824C47.42 3.78493 46.8188 3.82992 46.2735 3.90885L46.2629 3.91038L46.2627 3.9104C44.4925 4.16634 42.7228 4.4222 41.1494 4.7977C39.6909 4.97897 39.2126 3.09402 40.5915 2.59859ZM58.9715 3.87938C58.1815 3.40144 57.3572 4.76384 58.1472 5.24178C59.738 6.43202 61.0974 7.67742 62.5477 9.00603L62.5479 9.00619C62.7907 9.2286 63.036 9.45334 63.2854 9.68054C63.8398 10.2073 64.3486 10.8095 64.8646 11.4204L64.8647 11.4205C65.7837 12.5084 66.7259 13.6237 67.9906 14.3888C68.9781 14.9863 70.1975 13.8625 69.4458 12.8754C67.1485 9.09213 62.6441 5.83545 58.9715 3.87938ZM75.0433 27.0323L73.8531 24.3175C73.4165 23.2555 74.7156 22.446 75.4673 23.4331C75.9628 24.3975 76.537 25.3431 77.1112 26.2887L77.1112 26.2888L77.1113 26.2889L77.1113 26.2889L77.1114 26.289L77.1114 26.2891L77.1114 26.2892L77.1115 26.2892L77.1115 26.2893C77.6858 27.2351 78.2602 28.181 78.7557 29.1456C78.8968 29.3663 79.0549 29.5974 79.2191 29.8373L79.2192 29.8373L79.2192 29.8374L79.2192 29.8374C80.0229 31.0115 80.972 32.398 80.7794 33.8271C80.6235 34.5306 79.9549 35.1898 79.1649 34.7119C78.1552 33.917 77.5767 32.6221 77.0151 31.365L77.0151 31.3649C76.7636 30.802 76.5155 30.2466 76.2335 29.7471L75.0433 27.0323ZM82.3813 42.774C82.9012 45.482 83.6567 47.8006 84.7274 50.044C85.7982 52.2874 87.4233 55.3981 89.8313 56.3231C90.9365 56.7258 91.7229 55.872 91.2863 54.81C90.7668 53.6254 89.7917 52.6208 88.836 51.6362L88.8359 51.6361C88.3316 51.1166 87.8327 50.6027 87.409 50.0708C85.5103 47.8583 84.1623 45.1812 83.1297 42.429C83.1677 41.9202 82.2219 42.1457 82.3813 42.774ZM97.9606 73.2086C96.4949 70.7262 95.5419 68.2881 95.022 65.5802C94.7829 64.6377 95.9262 64.5316 96.0856 65.1599C97.1183 67.9122 98.4665 70.5894 100.167 72.6823C100.769 73.4717 101.509 74.1748 102.249 74.8779C103.359 75.9325 104.47 76.9871 105.112 78.3332C105.587 78.8864 104.88 80.0544 103.972 79.7711C101.367 78.7267 99.4263 75.691 97.9606 73.2086ZM125.119 84.0555C124.944 84.1515 124.773 84.2467 124.604 84.3404C123.218 85.1097 122.014 85.7779 120.432 86.0065C118.263 86.024 115.658 84.9795 113.881 83.9041C113.288 83.5455 112.699 84.5189 113.292 84.8775C116.808 87.5371 123.796 90.7012 126.662 85.5204C126.935 84.6222 125.986 83.516 125.119 84.0555ZM142.255 71.5003C142.938 70.158 143.621 68.8157 144.517 67.6026C145.106 66.6292 146.841 66.8814 146.845 68.2129C145.955 74.5887 139.774 78.5618 134.141 80.7382C133.826 80.8136 133.351 80.2604 133.784 79.9904C136.66 78.8049 138.981 76.7522 140.827 74.1458C141.345 73.2895 141.8 72.3949 142.255 71.5003ZM141.099 42.9305C141.081 43.8891 141.202 44.8597 141.329 45.8742C141.445 46.8077 141.566 47.7783 141.588 48.8109C141.553 50.6516 141.006 52.4482 140.261 54.1248C139.87 55.218 141.252 56.0544 141.841 55.0807C144.159 51.696 145.683 46.5016 143.503 42.5236C142.987 41.1472 141.293 41.7179 141.099 42.9305ZM138.33 39.9253C136.231 36.2612 135.115 31.8633 134.078 27.7792C133.76 26.5228 135.336 26.1468 136.206 26.9384C137.675 29.1215 138.196 31.7153 138.71 34.2709C139.041 35.9166 139.369 37.5465 139.945 39.0406C140.381 40.1025 138.965 41.107 138.33 39.9253ZM143.11 13.2978C141.571 13.1649 139.839 14.2443 138.54 15.0539C137.123 16.0582 135.984 17.4963 135.041 19.0537C134.453 20.027 135.835 20.8632 136.424 19.8899C137.248 18.5272 138.35 17.5983 139.649 16.7887C140.24 16.481 140.9 16.2819 141.56 16.0828L141.56 16.0827C142.22 15.8837 142.88 15.6847 143.47 15.3774C144.533 14.957 144.135 13.3867 143.11 13.2978ZM146.376 5.21435C150.204 5.73847 154.042 6.26389 157.878 6.27798C159.417 6.41087 160.525 8.14545 159.621 9.19368C157.955 11.5168 156.766 13.8813 155.489 16.4214C155.44 16.5176 155.392 16.614 155.343 16.7108C155.098 17.1157 154.891 17.5116 154.692 17.8915C154.318 18.6076 153.972 19.2674 153.459 19.8256C153.223 20.2146 153.105 20.4096 152.79 20.4848C152.555 20.8741 151.529 20.7855 151.37 20.1572C151.172 20.0377 151.29 19.843 151.29 19.843L151.21 19.5294C150.879 18.7241 151.273 17.7461 151.602 16.9287C151.707 16.668 151.805 16.4236 151.871 16.2063C152.852 14.1401 153.714 12.2686 154.577 10.397C150.587 10.4479 146.643 9.89162 142.746 9.34203C141.597 9.18 140.452 9.01856 139.312 8.87343C136.55 8.53246 136.46 4.22283 139.339 4.36912C141.68 4.57132 144.026 4.89259 146.376 5.21435Z" fill="#161F32"/>
</svg>
