<svg width="100" height="14" viewBox="0 0 100 14" fill="none" xmlns="http://www.w3.org/2000/svg">
<path fill-rule="evenodd" clip-rule="evenodd" d="M37.9333 13.3333C35.4644 13.3365 33.0194 12.8558 30.7388 11.9191C28.4583 10.9823 26.3872 9.60793 24.6451 7.87501C21.7692 5.02717 17.8694 3.42735 13.8031 3.42735C9.73684 3.42735 5.83708 5.02717 2.96124 7.87501C2.80143 8.03655 2.61083 8.16506 2.40055 8.2532C2.19028 8.34134 1.96447 8.38735 1.73615 8.38849C1.50783 8.38963 1.28152 8.34589 1.07036 8.25986C0.859195 8.17383 0.667349 8.0472 0.505901 7.88726C0.344454 7.72733 0.216631 7.53728 0.129789 7.32809C0.0429473 7.1189 -0.0011311 6.89471 2.20544e-05 6.66853C0.00117521 6.44234 0.0475365 6.21865 0.136507 6.01034C0.225478 5.80203 0.355283 5.6133 0.518354 5.45498C2.263 3.72562 4.33451 2.35372 6.61455 1.41774C8.89459 0.481751 11.3384 0 13.8065 0C16.2745 0 18.7184 0.481751 20.9985 1.41774C23.2785 2.35372 25.35 3.72562 27.0947 5.45498C29.9705 8.30282 33.8704 9.90264 37.9366 9.90264C42.0029 9.90264 45.9027 8.30282 48.7785 5.45498C50.5225 3.72566 52.5935 2.35373 54.873 1.41774C57.1525 0.481742 59.5958 0 62.0634 0C64.5309 0 66.9743 0.481742 69.2538 1.41774C71.5333 2.35373 73.6042 3.72566 75.3482 5.45498C78.2254 8.3029 82.1262 9.90264 86.1934 9.90264C90.2607 9.90264 94.1616 8.3029 97.0388 5.45498C97.1986 5.29344 97.3892 5.16485 97.5994 5.07671C97.8097 4.98857 98.0355 4.94264 98.2638 4.9415C98.4922 4.94036 98.7184 4.98402 98.9296 5.07005C99.1407 5.15608 99.3326 5.28271 99.494 5.44265C99.6555 5.60258 99.7834 5.79263 99.8702 6.00182C99.9571 6.21101 100.001 6.4352 100 6.66138C99.9988 6.88757 99.9525 7.11126 99.8635 7.31957C99.7745 7.52788 99.6447 7.7167 99.4816 7.87501C97.737 9.60437 95.6655 10.9762 93.3854 11.9122C91.1054 12.8482 88.6615 13.3299 86.1934 13.3299C83.7254 13.3299 81.2816 12.8482 79.0015 11.9122C76.7215 10.9762 74.65 9.60437 72.9053 7.87501C70.0295 5.02717 66.1296 3.42735 62.0634 3.42735C57.9971 3.42735 54.0972 5.02717 51.2214 7.87501C49.4792 9.60793 47.4083 10.9823 45.1277 11.9191C42.8472 12.8558 40.4021 13.3365 37.9333 13.3333V13.3333Z" fill="#00924B"/>
</svg>
