<svg width="150" height="151" viewBox="0 0 150 151" fill="none" xmlns="http://www.w3.org/2000/svg">
<path d="M74.999 150.514C60.1654 150.514 45.665 146.115 33.3313 137.874C20.9976 129.633 11.3847 117.919 5.70809 104.215C0.0315203 90.5105 -1.45373 75.4305 1.44016 60.8819C4.33405 46.3333 11.4771 32.9696 21.966 22.4807C32.455 11.9918 45.8187 4.8487 60.3673 1.95481C74.9158 -0.939082 89.9958 0.546169 103.7 6.22274C117.405 11.8993 129.118 21.5122 137.359 33.8459C145.6 46.1796 149.999 60.6801 149.999 75.5137C149.979 95.3987 142.071 114.464 128.01 128.524C113.949 142.585 94.8841 150.494 74.999 150.514ZM74.999 32.8632C66.5636 32.8632 58.3175 35.3646 51.3037 40.0511C44.2898 44.7376 38.8232 51.3987 35.5951 59.192C32.367 66.9854 31.5223 75.561 33.168 83.8344C34.8137 92.1078 38.8758 99.7074 44.8406 105.672C50.8053 111.637 58.4049 115.699 66.6783 117.345C74.9517 118.99 83.5273 118.146 91.3207 114.918C99.1141 111.69 105.775 106.223 110.462 99.2091C115.148 92.1952 117.65 83.9492 117.65 75.5137C117.636 64.2062 113.138 53.3657 105.143 45.37C97.1471 37.3744 86.3065 32.8766 74.999 32.8632Z" fill="#00924B"/>
</svg>
