<svg width="92" height="80" viewBox="0 0 92 80" fill="none" xmlns="http://www.w3.org/2000/svg">
<path fill-rule="evenodd" clip-rule="evenodd" d="M14.1589 27.8234C14.1589 12.5938 26.4756 0.203613 41.6162 0.203613V14.3007C38.0522 14.3048 34.6352 15.7309 32.115 18.266C29.5948 20.8011 28.1772 24.2382 28.1731 27.8234H14.1589Z" fill="#161F32"/>
<path fill-rule="evenodd" clip-rule="evenodd" d="M45.8908 79.2034C71.0318 79.2034 91.4136 58.7025 91.4136 33.4136H0.366211C0.366211 58.7025 20.7481 79.2034 45.8908 79.2034Z" fill="#161F32"/>
<path fill-rule="evenodd" clip-rule="evenodd" d="M32.4067 32.1234C32.4065 29.4409 33.1971 26.8185 34.6785 24.5879C36.1599 22.3573 38.2655 20.6187 40.7292 19.5919C43.1929 18.5652 45.904 18.2964 48.5195 18.8195C51.1351 19.3426 53.5377 20.6342 55.4235 22.5309C57.3094 24.4276 58.5937 26.8443 59.1142 29.4752C59.6346 32.1062 59.3678 34.8333 58.3474 37.3117C57.3271 39.7902 55.599 41.9086 53.3818 43.3991C51.1646 44.8896 48.5577 45.6852 45.8909 45.6854C42.315 45.6856 38.8855 44.2568 36.3567 41.7135C33.8279 39.1702 32.4071 35.7205 32.4067 32.1234V32.1234Z" fill="#00924B"/>
</svg>
