<svg width="212" height="44" viewBox="0 0 212 44" fill="none" xmlns="http://www.w3.org/2000/svg">
<path fill-rule="evenodd" clip-rule="evenodd" d="M0.113281 21.5504L15.5226 7.95943C18.3776 11.1889 22.3977 13.1547 26.7009 13.4255C31.0042 13.6963 35.2393 12.25 38.477 9.40386C45.8062 2.95885 55.3938 -0.317457 65.1368 0.293579C74.8798 0.904615 83.9825 5.35313 90.4482 12.6633C93.111 15.6747 96.7945 17.5947 100.789 18.0536C104.784 18.5126 108.807 17.4779 112.084 15.1489L113.346 14.0374C120.675 7.59203 130.262 4.31589 140.005 4.92784C149.748 5.53978 158.849 9.98986 165.313 17.3015C168.168 20.5303 172.189 22.4952 176.492 22.7651C180.795 23.035 185.03 21.5879 188.267 18.7412C195.596 12.2962 205.184 9.01993 214.927 9.63097C224.67 10.242 233.773 14.6905 240.238 22.0007L224.829 35.5917C221.973 32.3629 217.953 30.398 213.65 30.1281C209.346 29.8582 205.112 31.3052 201.875 34.1519C194.545 40.5973 184.957 43.8734 175.214 43.2615C165.47 42.6496 156.368 38.1995 149.903 30.8878C147.24 27.8782 143.556 25.9594 139.562 25.5005C135.568 25.0417 131.545 26.0751 128.268 28.4022L127.005 29.5137C119.677 35.9587 110.09 39.2351 100.348 38.624C90.6055 38.013 81.5035 33.5644 75.0388 26.2543C72.183 23.0241 68.1616 21.0583 63.8572 20.7883C59.5528 20.5184 55.3171 21.9664 52.0798 24.8146C44.7507 31.2587 35.1634 34.5341 25.4212 33.9222C15.679 33.3103 6.57747 28.861 0.113281 21.5504Z" fill="#161F32"/>
</svg>
