<svg width="212" height="44" viewBox="0 0 212 44" fill="none" xmlns="http://www.w3.org/2000/svg">
<path fill-rule="evenodd" clip-rule="evenodd" d="M0.113281 21.3323L15.5272 7.74222C18.3828 10.9711 22.4032 12.9361 26.7064 13.2061C31.0097 13.4761 35.2445 12.0291 38.4817 9.18245C45.8101 2.73741 55.3972 -0.538867 65.1396 0.0724495C74.8819 0.683766 83.9838 5.13274 90.4482 12.4433C93.1114 15.4539 96.7947 17.3734 100.789 17.8323C104.784 18.2912 108.807 17.257 112.084 14.9288L113.346 13.8174C120.675 7.37217 130.263 4.09586 140.006 4.70717C149.75 5.31847 158.852 9.76747 165.317 17.0782C168.173 20.3071 172.193 22.2721 176.497 22.5421C180.8 22.8121 185.035 21.365 188.272 18.5184C195.601 12.0736 205.188 8.79765 214.93 9.40932C224.672 10.021 233.774 14.4703 240.238 21.7811L224.829 35.3707C221.973 32.1418 217.953 30.1768 213.65 29.9068C209.347 29.6368 205.112 31.0839 201.875 33.9305C194.545 40.3756 184.957 43.6518 175.214 43.0405C165.471 42.4292 156.369 37.9803 149.903 30.6697C147.24 27.6589 143.557 25.7393 139.562 25.2804C135.568 24.8215 131.545 25.8558 128.268 28.1841L127.005 29.2956C119.677 35.7407 110.09 39.0171 100.347 38.4058C90.6051 37.7944 81.5031 33.3454 75.0388 26.0347C72.1832 22.8059 68.1628 20.841 63.8595 20.5711C59.5562 20.3012 55.3216 21.7483 52.0845 24.595C44.7549 31.0397 35.1669 34.3156 25.4239 33.7039C15.6808 33.0923 6.57842 28.6431 0.113281 21.3323Z" fill="#00924B"/>
</svg>
