<svg width="78" height="60" viewBox="0 0 78 60" fill="none" xmlns="http://www.w3.org/2000/svg">
<path d="M43.1296 7.75765L71.1933 48.4389C72.6289 50.5199 73.5847 51.9108 74.1919 52.9897C74.7807 54.0359 74.7888 54.3705 74.7892 54.3773C74.7601 54.9643 74.4742 55.5087 74.0076 55.866C74.0011 55.87 73.7203 56.0529 72.5263 56.1622C71.2934 56.275 69.6058 56.2781 67.0776 56.2781H10.9503C8.42208 56.2781 6.73445 56.275 5.50157 56.1622C4.3069 56.0528 4.02642 55.8698 4.0202 55.866C3.55362 55.5087 3.26778 54.9642 3.23862 54.3773C3.23901 54.3704 3.24722 54.0359 3.83596 52.9897C4.44315 51.9108 5.39896 50.5199 6.83456 48.4389L34.8982 7.75766C36.0363 6.10788 36.7768 5.03961 37.395 4.29684C38.0039 3.56531 38.2442 3.4676 38.2593 3.46144L38.2595 3.46137C38.7432 3.26439 39.2847 3.26439 39.7683 3.46137L39.7685 3.46144C39.7836 3.46759 40.0239 3.56528 40.6328 4.29683C41.2511 5.0396 41.9915 6.10787 43.1296 7.75765Z" stroke="#00924B" stroke-width="6" stroke-linecap="round" stroke-linejoin="round"/>
</svg>
