<svg width="57" height="172" viewBox="0 0 57 172" fill="none" xmlns="http://www.w3.org/2000/svg">
<path d="M29.3023 -51H27.2327V106.129H29.3023V-51Z" fill="url(#paint0_linear_106_5170)"/>
<path d="M56.5974 137.177C56.6701 138.419 56.6899 139.668 56.6569 140.871C56.161 160.241 41.601 171.45 27.8146 171.093C15.7407 170.782 2.32463 160.658 1.26007 142.51C1.18733 141.373 1.17411 140.204 1.20056 139.027C1.72953 118.613 16.6598 96.5662 29.7321 96.9032C41.8787 97.2204 55.4402 117.522 56.5974 137.177Z" fill="#F8FBF3"/>
<path d="M56.0155 140.825C55.5857 157.585 45.112 167.319 34.3209 170.075C32.5635 170.524 30.7642 170.79 28.9519 170.868C28.4163 170.868 27.8807 170.868 27.3451 170.868C14.5902 170.538 0.367427 159.369 0.896401 138.974C1.19395 127.64 5.98117 115.844 12.3619 107.656C12.8512 107.034 13.3471 106.426 13.8497 105.845C17.817 101.285 22.267 98.1325 26.5913 97.2535L26.9285 97.1874C27.1732 97.1478 27.4244 97.1081 27.6691 97.0817C28.1957 97.0201 28.7261 96.998 29.256 97.0156C38.5858 97.2535 48.8677 109.665 53.5095 124.296C53.5095 124.369 53.5558 124.442 53.5822 124.515C54.0252 125.949 54.422 127.403 54.7592 128.87C55.674 132.787 56.096 136.803 56.0155 140.825Z" fill="url(#paint1_linear_106_5170)"/>
<path d="M23.7152 117.642C23.6525 118.093 23.4576 118.515 23.1549 118.856C22.8523 119.197 22.4555 119.44 22.0147 119.556C21.5738 119.671 21.1086 119.654 20.6777 119.505C20.2468 119.357 19.8696 119.084 19.5935 118.722C19.3174 118.359 19.1548 117.923 19.1263 117.469C19.0978 117.014 19.2047 116.561 19.4334 116.167C19.662 115.773 20.0023 115.456 20.4113 115.255C20.8203 115.054 21.2797 114.978 21.7315 115.038C22.0336 115.077 22.325 115.175 22.5887 115.328C22.8524 115.48 23.0832 115.683 23.2677 115.926C23.4522 116.168 23.5868 116.444 23.6636 116.739C23.7404 117.033 23.758 117.34 23.7152 117.642Z" fill="white"/>
<path d="M13.4831 140.892C13.7921 139.656 13.0402 138.404 11.8037 138.095C10.5673 137.786 9.31446 138.538 9.00549 139.774C8.69652 141.009 9.44839 142.262 10.6848 142.57C11.9213 142.879 13.1741 142.128 13.4831 140.892Z" fill="white"/>
<path d="M37.5478 110.253C37.4841 110.702 37.2888 111.123 36.9867 111.461C36.6846 111.8 36.2891 112.041 35.8499 112.156C35.4106 112.27 34.9474 112.252 34.5184 112.104C34.0894 111.956 33.7138 111.684 33.4388 111.323C33.1638 110.963 33.0018 110.528 32.9731 110.076C32.9444 109.623 33.0503 109.172 33.2775 108.779C33.5047 108.386 33.843 108.07 34.2498 107.869C34.6567 107.667 35.114 107.591 35.5641 107.649C35.8666 107.687 36.1584 107.785 36.4225 107.938C36.6867 108.09 36.9178 108.293 37.1025 108.535C37.2872 108.778 37.4217 109.054 37.4981 109.349C37.5746 109.644 37.5915 109.952 37.5478 110.253Z" fill="white"/>
<path d="M30.4529 131.956C30.3915 132.408 30.1975 132.831 29.8955 133.173C29.5935 133.514 29.197 133.759 28.756 133.875C28.3151 133.992 27.8495 133.975 27.4181 133.827C26.9867 133.679 26.6087 133.407 26.332 133.045C26.0553 132.682 25.8922 132.246 25.8633 131.791C25.8344 131.336 25.941 130.883 26.1697 130.489C26.3984 130.094 26.7389 129.777 27.1481 129.575C27.5574 129.374 28.0171 129.299 28.4693 129.359C28.7703 129.399 29.0606 129.498 29.3234 129.65C29.5862 129.802 29.8163 130.005 30.0006 130.246C30.1849 130.487 30.3197 130.762 30.3973 131.056C30.4749 131.349 30.4938 131.655 30.4529 131.956Z" fill="white"/>
<path d="M34.0235 152.232C33.962 152.684 33.768 153.107 33.466 153.449C33.164 153.79 32.7675 154.035 32.3266 154.151C31.8857 154.268 31.4201 154.251 30.9887 154.103C30.5572 153.955 30.1793 153.683 29.9026 153.321C29.6258 152.958 29.4627 152.522 29.4338 152.067C29.4049 151.612 29.5116 151.159 29.7403 150.765C29.9689 150.37 30.3094 150.052 30.7187 149.851C31.128 149.65 31.5877 149.575 32.0398 149.635C32.3409 149.675 32.6312 149.773 32.8939 149.926C33.1567 150.078 33.3869 150.28 33.5711 150.522C33.7554 150.763 33.8902 151.038 33.9679 151.332C34.0455 151.625 34.0644 151.931 34.0235 152.232Z" fill="white"/>
<path d="M47.6315 125.625C47.5688 126.076 47.3738 126.499 47.0712 126.839C46.7686 127.18 46.3718 127.423 45.9309 127.539C45.4901 127.654 45.0249 127.637 44.594 127.489C44.1631 127.34 43.7858 127.068 43.5097 126.705C43.2336 126.343 43.0711 125.907 43.0426 125.452C43.0141 124.997 43.1209 124.545 43.3496 124.151C43.5783 123.757 43.9186 123.439 44.3276 123.238C44.7366 123.037 45.196 122.962 45.6478 123.021C45.9495 123.061 46.2404 123.16 46.5037 123.313C46.7669 123.465 46.9974 123.669 47.1817 123.911C47.3661 124.153 47.5008 124.429 47.578 124.723C47.6551 125.017 47.6733 125.324 47.6315 125.625Z" fill="white"/>
<path d="M50.1309 141.096C50.0694 141.548 49.8755 141.971 49.5734 142.313C49.2714 142.654 48.8749 142.899 48.434 143.015C47.9931 143.132 47.5275 143.115 47.0961 142.967C46.6647 142.82 46.2867 142.547 46.01 142.185C45.7333 141.823 45.5701 141.386 45.5413 140.932C45.5124 140.477 45.619 140.023 45.8477 139.629C46.0764 139.235 46.4168 138.917 46.8261 138.716C47.2354 138.515 47.6951 138.439 48.1472 138.499C48.7546 138.581 49.3045 138.901 49.6764 139.388C50.0483 139.875 50.2117 140.489 50.1309 141.096Z" fill="white"/>
<path style="mix-blend-mode:multiply" d="M56.0155 140.825C55.4931 161.22 40.1 171.225 27.3451 170.882C14.5902 170.538 0.367427 159.382 0.896401 138.988C1.39231 119.823 14.7357 99.3355 26.9285 97.2075C18.5641 109.308 5.00256 133.694 17.2285 150.771C33.0316 172.838 52.9673 149.654 53.5095 124.336C55.2497 129.657 56.0965 135.228 56.0155 140.825Z" fill="url(#paint2_linear_106_5170)"/>
<path style="mix-blend-mode:multiply" d="M56.0155 140.825C55.4931 161.219 40.1 171.225 27.3451 170.881C14.5902 170.538 0.367427 159.382 0.896401 138.988C1.39231 119.822 14.7357 99.3353 26.9285 97.2073C27.1732 97.1676 27.4244 97.128 27.6691 97.1016C23.2654 107.471 12.5735 136.027 25.4143 142.484C37.6469 148.656 48.5966 134.236 53.5822 124.534C55.2775 129.795 56.0995 135.298 56.0155 140.825Z" fill="url(#paint3_linear_106_5170)"/>
<path opacity="0.2" d="M56.0156 140.825C55.5859 157.585 45.1122 167.32 34.3211 170.075C42.9169 161.933 53.4964 147.857 48.1339 130.892C43.2013 115.276 25.1368 110.729 12.3621 107.669C16.7724 102.012 21.9497 98.0798 26.9088 97.2075C27.1535 97.1678 27.4048 97.1282 27.6494 97.1017C28.176 97.0401 28.7065 97.018 29.2363 97.0356C38.5661 97.2736 48.848 109.685 53.4898 124.316C53.4898 124.389 53.5361 124.462 53.5625 124.535C55.2646 129.794 56.0933 135.297 56.0156 140.825Z" fill="url(#paint4_linear_106_5170)"/>
<path opacity="0.2" d="M56.0157 140.825C55.5859 157.585 45.1123 167.319 34.3212 170.075C32.5638 170.525 30.7644 170.79 28.9521 170.868C40.5565 158.001 57.0869 134.831 40.001 115.256C33.1773 107.444 28.9455 101.576 26.5916 97.2736L26.9288 97.2075C27.1734 97.1678 27.4247 97.1282 27.6693 97.1017C28.1959 97.0401 28.7264 97.018 29.2563 97.0356C38.586 97.2736 48.868 109.685 53.5097 124.316C53.5097 124.389 53.556 124.462 53.5825 124.535C55.2778 129.796 56.0997 135.299 56.0157 140.825Z" fill="url(#paint5_linear_106_5170)"/>
<path opacity="0.1" d="M53.5824 124.534C54.0254 125.968 54.4222 127.422 54.7594 128.89C50.2499 120.781 45.013 113.425 39.8423 110.385C32.4102 106.037 21.5464 106.063 13.8499 105.832C17.8172 101.272 22.2672 98.1193 26.5915 97.2403L26.9287 97.1743C27.1734 97.1346 27.4246 97.095 27.6693 97.0685C28.1959 97.0069 28.7263 96.9848 29.2562 97.0024C38.586 97.2403 48.8679 109.652 53.5097 124.283C53.5361 124.389 53.556 124.462 53.5824 124.534Z" fill="url(#paint6_linear_106_5170)"/>
<g opacity="0.8">
<path d="M33.6532 101.728C38.6345 104.903 42.8886 109.094 46.137 114.026C46.5205 114.615 47.4991 114.112 47.1156 113.518C43.7723 108.423 39.3897 104.092 34.2549 100.809C34.133 100.729 33.9844 100.701 33.8418 100.731C33.6992 100.761 33.5743 100.846 33.4945 100.968C33.4147 101.089 33.3866 101.238 33.4164 101.38C33.4461 101.523 33.5313 101.648 33.6532 101.728Z" fill="white"/>
</g>
<g opacity="0.8">
<path d="M32.0927 100.75C32.2356 100.719 32.3605 100.633 32.4398 100.51C32.5192 100.387 32.5465 100.238 32.5159 100.095C32.4852 99.9525 32.399 99.8277 32.2762 99.7484C32.1534 99.6691 32.0042 99.6418 31.8612 99.6724C31.7183 99.7031 31.5934 99.7893 31.5141 99.912C31.4347 100.035 31.4074 100.184 31.4381 100.327C31.4688 100.47 31.555 100.594 31.6777 100.674C31.8005 100.753 31.9498 100.78 32.0927 100.75Z" fill="white"/>
</g>
<defs>
<linearGradient id="paint0_linear_106_5170" x1="27.2327" y1="27.5646" x2="29.3089" y2="27.5646" gradientUnits="userSpaceOnUse">
<stop stop-color="white"/>
<stop offset="1" stop-color="#F2F2F2"/>
</linearGradient>
<linearGradient id="paint1_linear_106_5170" x1="1.10971" y1="139.58" x2="54.8349" y2="129.716" gradientUnits="userSpaceOnUse">
<stop stop-color="#F7A8B7"/>
<stop offset="0.68" stop-color="#F0ACBE"/>
</linearGradient>
<linearGradient id="paint2_linear_106_5170" x1="-19.9297" y1="148.801" x2="45.385" y2="129.841" gradientUnits="userSpaceOnUse">
<stop stop-color="#F7A8B7"/>
<stop offset="0.68" stop-color="#F0ACBE"/>
</linearGradient>
<linearGradient id="paint3_linear_106_5170" x1="-25.7505" y1="137.204" x2="63.4626" y2="132.622" gradientUnits="userSpaceOnUse">
<stop stop-color="#F7A8B7"/>
<stop offset="0.68" stop-color="#F0ACBE"/>
</linearGradient>
<linearGradient id="paint4_linear_106_5170" x1="8.55391" y1="140.539" x2="48.9345" y2="128.817" gradientUnits="userSpaceOnUse">
<stop stop-color="white"/>
<stop offset="0.83" stop-color="white"/>
</linearGradient>
<linearGradient id="paint5_linear_106_5170" x1="6.37027" y1="141.197" x2="48.6655" y2="128.922" gradientUnits="userSpaceOnUse">
<stop stop-color="white"/>
<stop offset="0.83" stop-color="white"/>
</linearGradient>
<linearGradient id="paint6_linear_106_5170" x1="6.3693" y1="123.49" x2="44.5168" y2="112.416" gradientUnits="userSpaceOnUse">
<stop stop-color="white"/>
<stop offset="0.83" stop-color="white"/>
</linearGradient>
</defs>
</svg>
