<svg width="68" height="177" viewBox="0 0 68 177" fill="none" xmlns="http://www.w3.org/2000/svg">
<path d="M27.1349 -12.3975H24.6997V160.939H27.1349V-12.3975Z" fill="url(#paint0_linear_102_4849)"/>
<path d="M67.7203 153.997C67.5268 154.574 67.2201 155.106 66.8181 155.563C65.4179 157.222 63.1819 157.554 60.8352 157.3C59.1563 157.083 57.5075 156.677 55.9205 156.088C54.2969 155.499 52.7189 154.791 51.1995 153.97L50.646 151.032C59.8501 146.524 67.2111 148.941 67.831 152.553C67.9094 153.037 67.8714 153.532 67.7203 153.997V153.997Z" fill="white"/>
<path d="M67.6759 154.141C67.4869 154.718 67.1818 155.251 66.7793 155.706C65.3791 157.366 63.1431 157.698 60.7964 157.443C59.1167 157.229 57.4675 156.82 55.8817 156.226C54.2569 155.64 52.6788 154.932 51.1606 154.108L50.6072 151.17C59.8112 146.662 67.1723 149.079 67.7977 152.692C67.876 153.177 67.8342 153.675 67.6759 154.141V154.141Z" fill="url(#paint1_linear_102_4849)"/>
<path style="mix-blend-mode:multiply" opacity="0.3" d="M67.6759 154.141C67.2608 153.383 66.2646 152.398 63.9345 151.513C59.3297 149.76 54.902 150.684 55.1732 152.459C55.4223 154.052 58.566 155.955 60.7964 157.438C59.1167 157.223 57.4675 156.815 55.8817 156.221C54.2571 155.636 52.679 154.93 51.1606 154.108L50.6072 151.17C59.8112 146.662 67.1723 149.079 67.7977 152.692C67.876 153.177 67.8342 153.675 67.6759 154.141V154.141Z" fill="url(#paint2_linear_102_4849)"/>
<path style="mix-blend-mode:multiply" opacity="0.3" d="M67.7811 152.697C67.1216 152.013 66.3155 151.487 65.4233 151.159C62.4568 150.175 53.4354 147.647 53.8006 151.774C53.9887 153.441 54.7109 155.003 55.8595 156.227C54.2424 155.639 52.6717 154.931 51.1606 154.108L50.6072 151.171C59.7946 146.668 67.1557 149.085 67.7811 152.697Z" fill="url(#paint3_linear_102_4849)"/>
<path opacity="0.2" d="M56.7451 151.818C56.7451 151.818 64.5433 150.446 65.4344 153.322C66.3255 156.199 63.8072 157.499 61.8369 156.791C59.8666 156.083 55.0072 151.95 56.7451 151.818Z" fill="white"/>
<path opacity="0.2" d="M58.1785 152.216C58.2393 152.542 63.8957 151.663 64.4769 152.896C65.058 154.13 60.9015 154.661 58.1785 152.216Z" fill="white"/>
<path d="M64.9475 155.723C65.405 155.48 65.7993 155.133 66.0987 154.711C66.118 154.679 66.1251 154.641 66.1186 154.604C66.1122 154.568 66.0928 154.534 66.0638 154.511C66.0349 154.487 65.9984 154.475 65.9611 154.476C65.9238 154.477 65.8881 154.492 65.8607 154.517C65.5649 154.861 65.2085 155.148 64.8092 155.364C64.6169 155.463 64.4171 155.546 64.2114 155.613C64.0028 155.643 63.8018 155.712 63.6192 155.817C63.6008 155.828 63.5856 155.843 63.575 155.862C63.5644 155.88 63.5588 155.901 63.5588 155.922C63.5588 155.944 63.5644 155.964 63.575 155.983C63.5856 156.001 63.6008 156.017 63.6192 156.027C64.0177 156.199 64.6099 155.9 64.9475 155.723Z" fill="white"/>
<path d="M66.8069 153.82C66.7915 153.777 66.7595 153.742 66.718 153.722C66.6765 153.702 66.6289 153.7 66.5856 153.715C66.5423 153.731 66.5069 153.762 66.4872 153.804C66.4675 153.845 66.4651 153.893 66.4805 153.936C66.4959 153.98 66.5279 154.015 66.5694 154.035C66.6108 154.054 66.6585 154.057 66.7018 154.041C66.745 154.026 66.7804 153.994 66.8001 153.953C66.8198 153.911 66.8223 153.863 66.8069 153.82Z" fill="white"/>
<path d="M57.149 140.395C56.7012 141.068 56.1714 141.683 55.5716 142.226C50.5905 146.706 48.9301 147.165 48.9301 147.165L45.5208 143.896C45.5208 143.896 46.7882 133.9 52.0461 130.714C52.5635 130.396 53.1222 130.15 53.7064 129.984C54.794 129.604 55.9879 129.67 57.0272 130.166C58.3721 130.891 59.0141 132.512 59.0252 134.404C58.9987 136.541 58.3464 138.624 57.149 140.395Z" fill="white"/>
<path d="M56.9663 140.5C56.5137 141.171 55.9822 141.786 55.3834 142.331C50.4022 146.806 48.7418 147.265 48.7418 147.265L45.3325 143.996C45.3325 143.996 46.5944 134.005 51.8634 130.819C52.3808 130.501 52.9395 130.255 53.5237 130.089C54.611 129.71 55.8037 129.774 56.8445 130.266C58.1894 130.996 58.8314 132.611 58.8425 134.503C58.8129 136.642 58.1609 138.725 56.9663 140.5V140.5Z" fill="url(#paint4_linear_102_4849)"/>
<path style="mix-blend-mode:multiply" opacity="0.3" d="M56.9663 140.5C56.5137 141.171 55.9822 141.786 55.3834 142.331C50.4022 146.806 48.7418 147.265 48.7418 147.265L45.3325 143.996C45.3325 143.996 46.5944 134.005 51.8634 130.819C52.3808 130.501 52.9395 130.255 53.5237 130.089C54.611 129.71 55.8037 129.774 56.8445 130.266C54.5643 133.032 51.5313 137.219 50.4852 140.964C48.7197 147.265 54.2875 141.722 56.7947 137.175C57.3207 136.175 58.0132 135.271 58.8425 134.503C58.8129 136.642 58.1609 138.725 56.9663 140.5V140.5Z" fill="url(#paint5_linear_102_4849)"/>
<path style="mix-blend-mode:multiply" opacity="0.3" d="M55.7099 141.429C56.1016 141.084 56.5219 140.773 56.9663 140.499C56.5137 141.171 55.9822 141.785 55.3834 142.33C50.4022 146.806 48.7418 147.265 48.7418 147.265L45.3325 143.995C45.3325 143.995 46.5944 134.005 51.8634 130.819C49.8875 134.204 48.1718 137.872 48.2105 140.328C48.3157 146.064 51.7305 144.881 55.7099 141.429Z" fill="url(#paint6_linear_102_4849)"/>
<path opacity="0.2" d="M52.561 142.22C52.5087 142.318 52.4918 142.43 52.5131 142.539C52.5344 142.648 52.5925 142.746 52.6777 142.817C52.7629 142.887 52.8699 142.927 52.9807 142.928C53.0916 142.929 53.1994 142.892 53.286 142.823C54.6475 141.716 56.3743 140.057 57.1602 138.193C58.555 134.874 58.2118 131.693 56.9444 131.804C55.677 131.914 55.118 133.917 54.4815 137.291C54.0912 139.021 53.4438 140.682 52.561 142.22V142.22Z" fill="white"/>
<path d="M58.1673 133.64C58.161 133.609 58.144 133.581 58.1193 133.561C58.0946 133.54 58.0636 133.529 58.0317 133.529C57.9998 133.529 57.9689 133.54 57.9442 133.561C57.9194 133.581 57.9025 133.609 57.8961 133.64C57.8774 134.537 57.732 135.428 57.4644 136.284C57.1272 137.111 56.716 137.905 56.2357 138.657C56.1693 138.779 56.3243 138.917 56.4295 138.812C57.041 138.132 57.4912 137.323 57.7467 136.445C58.0637 135.545 58.2064 134.593 58.1673 133.64V133.64Z" fill="white"/>
<path d="M55.9204 139.172C55.8823 139.161 55.8413 139.165 55.8066 139.185C55.7718 139.204 55.7461 139.236 55.7351 139.274C55.7241 139.312 55.7287 139.353 55.7479 139.388C55.7671 139.423 55.7993 139.449 55.8374 139.46C55.8756 139.471 55.9165 139.466 55.9513 139.447C55.9861 139.428 56.0118 139.395 56.0228 139.357C56.0338 139.319 56.0292 139.278 56.01 139.243C55.9908 139.209 55.9586 139.183 55.9204 139.172Z" fill="white"/>
<path d="M64.8201 145.583C63.7581 146.834 62.436 147.838 60.9459 148.526C59.8148 149.075 58.6413 149.532 57.437 149.892C55.2527 150.549 53.0099 150.991 50.7401 151.215L48.9026 147.304C48.9026 147.304 53.2307 142.773 57.5532 140.461C58.6847 139.81 59.9269 139.373 61.2171 139.172C61.911 139.087 62.6111 139.063 63.3092 139.1C66.8735 139.31 68.0966 141.506 64.8201 145.583Z" fill="white"/>
<path d="M64.6817 145.545C63.6192 146.795 62.2972 147.799 60.8075 148.488C59.6763 149.036 58.5029 149.493 57.2985 149.854C55.1135 150.507 52.871 150.95 50.6017 151.176L48.7642 147.265C48.7642 147.265 53.0922 142.735 57.4148 140.422C58.5463 139.771 59.7884 139.334 61.0787 139.133C61.7726 139.048 62.4726 139.024 63.1708 139.062C66.7295 139.266 67.925 141.468 64.6817 145.545Z" fill="url(#paint7_linear_102_4849)"/>
<path style="mix-blend-mode:multiply" opacity="0.3" d="M60.7965 148.488C59.6653 149.036 58.4919 149.493 57.2875 149.854C55.1025 150.507 52.86 150.95 50.5907 151.176L48.7532 147.265C48.7532 147.265 53.0812 142.735 57.4038 140.422C58.5353 139.771 59.7774 139.334 61.0677 139.133C61.7616 139.048 62.4617 139.024 63.1598 139.062C60.1047 140.776 55.4999 143.719 54.2214 146.48C53.0978 148.919 57.1492 148.925 60.7965 148.488Z" fill="url(#paint8_linear_102_4849)"/>
<path opacity="0.2" d="M58.5218 147.68C58.5218 147.68 65.8884 146.192 65.4401 142.823C64.9918 139.454 60.6139 141.318 58.2451 144.355C57.6308 145.135 57.1382 145.732 56.7674 146.197C56.6546 146.333 56.5833 146.498 56.5621 146.673C56.5409 146.848 56.5705 147.026 56.6476 147.185C56.7247 147.343 56.8459 147.477 56.9967 147.568C57.1475 147.66 57.3215 147.706 57.4979 147.702L58.5218 147.68Z" fill="white"/>
<path d="M64.9529 143.409C64.9669 143.392 64.9732 143.369 64.9706 143.347C64.968 143.325 64.9567 143.304 64.9391 143.29C64.9215 143.276 64.899 143.27 64.8767 143.273C64.8544 143.275 64.834 143.286 64.8201 143.304C64.3773 143.725 63.9788 144.178 63.5084 144.565C63.2981 144.737 63.0822 144.897 62.8608 145.052C62.6194 145.186 62.3931 145.346 62.1856 145.528C62.178 145.538 62.1736 145.551 62.1729 145.563C62.1723 145.576 62.1753 145.589 62.1818 145.6C62.1882 145.611 62.1978 145.62 62.2093 145.626C62.2208 145.632 62.2337 145.634 62.2465 145.633C62.7802 145.426 63.2647 145.109 63.6689 144.704C64.1538 144.333 64.5858 143.897 64.9529 143.409V143.409Z" fill="white"/>
<path d="M61.9084 145.959V145.904C61.9117 145.891 61.9117 145.878 61.9084 145.865H61.8754H61.8148C61.8111 145.876 61.8111 145.888 61.8148 145.898C61.8123 145.909 61.8123 145.92 61.8148 145.931V145.959C61.8116 145.971 61.8116 145.985 61.8148 145.997H61.8809L61.9084 145.959Z" fill="white"/>
<path opacity="0.2" d="M57.5806 146.645C57.5806 146.645 61.881 141.213 63.6686 142.015C65.4563 142.817 59.241 147.271 57.5806 146.645Z" fill="white"/>
<path style="mix-blend-mode:multiply" opacity="0.3" d="M50.5907 151.176L48.7532 147.265C48.7532 147.265 53.0812 142.735 57.4038 140.422C54.1882 143.044 51.0722 146.137 51.4928 147.885C51.8968 149.5 54.5424 149.893 57.2654 149.854C55.0875 150.505 52.8525 150.948 50.5907 151.176V151.176Z" fill="url(#paint9_linear_102_4849)"/>
<path d="M45.6535 170.847C38.9234 174.912 28.6843 177.003 19.9895 176.965C19.4913 176.965 18.9988 176.965 18.5117 176.937C12.4513 176.738 6.06437 174.459 3.51291 173.286C2.36061 172.759 1.42628 171.849 0.868419 170.712C0.310559 169.575 0.163529 168.28 0.452273 167.046C4.92978 148.238 29.3817 136.069 36.87 137.302C39.0384 137.612 41.1222 138.356 42.9972 139.487C44.8723 140.619 46.5003 142.117 47.7843 143.89C47.8774 144.018 47.9625 144.151 48.0389 144.289C48.0389 144.289 53.2248 150.313 53.1141 158.671C53.0981 159.82 52.9833 160.966 52.771 162.095C52.1124 165.647 49.4391 168.562 45.6535 170.847Z" fill="white"/>
<path d="M45.3658 170.769C38.6357 174.835 28.3966 176.92 19.7018 176.887L18.224 176.86C12.1636 176.655 5.77666 174.376 3.2252 173.203C2.07392 172.675 1.14079 171.765 0.583977 170.628C0.0271683 169.491 -0.119055 168.196 0.170094 166.963C4.6476 148.155 29.094 135.986 36.5823 137.225C38.7507 137.535 40.8346 138.278 42.7103 139.409C44.5861 140.54 46.2156 142.035 47.5021 143.808C47.6737 144.062 47.7567 144.206 47.7567 144.206C47.7567 144.206 52.9371 150.235 52.832 158.588C52.8154 159.737 52.7006 160.883 52.4888 162.012C51.8247 165.564 49.1514 168.49 45.3658 170.769Z" fill="url(#paint10_linear_102_4849)"/>
<path d="M48.5151 148.996C48.0884 147.812 47.391 146.744 46.4784 145.877C46.4123 145.803 46.3198 145.759 46.2212 145.754C46.1226 145.749 46.026 145.783 45.9526 145.849C45.8792 145.915 45.8351 146.007 45.8299 146.106C45.8247 146.205 45.8589 146.301 45.9249 146.374C46.6458 147.208 47.2085 148.166 47.5853 149.201C47.7634 149.695 47.895 150.204 47.9783 150.722C47.981 151.235 48.0766 151.743 48.2605 152.221C48.286 152.268 48.3227 152.307 48.3674 152.335C48.412 152.362 48.4631 152.379 48.5157 152.381C48.5684 152.384 48.6208 152.373 48.6682 152.35C48.7155 152.327 48.7562 152.292 48.7863 152.249C49.3287 151.392 48.8251 149.865 48.5151 148.996Z" fill="white"/>
<path d="M44.5742 143.863C44.475 143.895 44.391 143.962 44.3385 144.052C44.2861 144.142 44.2688 144.248 44.2902 144.35C44.3115 144.452 44.3699 144.542 44.4541 144.603C44.5383 144.665 44.6422 144.693 44.7458 144.682C44.845 144.65 44.929 144.583 44.9815 144.493C45.034 144.403 45.0512 144.297 45.0298 144.195C45.0085 144.093 44.9501 144.003 44.8659 143.942C44.7817 143.88 44.6778 143.852 44.5742 143.863Z" fill="white"/>
<path style="mix-blend-mode:multiply" opacity="0.3" d="M12.5235 165.226C17.1449 174.63 35.4312 173.701 45.3659 170.758C38.6358 174.824 28.3967 176.909 19.7019 176.876L18.2241 176.849C12.1637 176.644 5.77677 174.365 3.22531 173.192C2.07628 172.664 1.14475 171.756 0.588112 170.621C0.031475 169.487 -0.116142 168.194 0.170202 166.963C4.64771 148.155 29.0941 135.986 36.5824 137.225C38.7508 137.535 40.8347 138.278 42.7105 139.409C44.5862 140.54 46.2157 142.035 47.5022 143.808C47.6738 144.062 47.7568 144.206 47.7568 144.206C47.7568 144.206 52.9372 150.235 52.8321 158.588C52.7767 158.168 51.5148 149.184 42.6096 144.903C33.4941 140.527 6.82281 153.599 12.5235 165.226Z" fill="url(#paint11_linear_102_4849)"/>
<path style="mix-blend-mode:multiply" opacity="0.3" d="M47.5021 143.807C45.2501 142.415 42.7098 141.554 40.0747 141.291C27.6495 140.439 -3.14514 153.897 7.07729 166.482C10.5901 170.716 14.8738 174.247 19.7018 176.887L18.224 176.86C12.1636 176.655 5.77666 174.376 3.2252 173.203C2.07392 172.675 1.14079 171.765 0.583977 170.628C0.0271683 169.491 -0.119055 168.196 0.170094 166.963C4.6476 148.155 29.094 135.986 36.5823 137.225C38.7507 137.535 40.8346 138.278 42.7103 139.409C44.5861 140.54 46.2156 142.035 47.5021 143.807V143.807Z" fill="url(#paint12_linear_102_4849)"/>
<path opacity="0.2" d="M20.0285 166.554C20.0285 166.554 37.4238 171.732 44.9343 166.891C52.4447 162.051 51.2327 153.217 46.2128 149.649C41.1929 146.081 23.2718 150.484 20.0119 156.06C16.752 161.636 15.8443 163.843 20.0285 166.554Z" fill="white"/>
<path opacity="0.2" d="M27.0298 158.118C26.6642 158.425 26.3988 158.834 26.2676 159.292C26.1365 159.751 26.1456 160.238 26.2938 160.691C26.442 161.144 26.7225 161.543 27.0993 161.836C27.476 162.128 27.9318 162.302 28.4079 162.333C36.0955 162.859 49.4394 163.163 48.0004 158.788C46.2238 153.344 37.2577 149.561 27.0298 158.118Z" fill="white"/>
<defs>
<linearGradient id="paint0_linear_102_4849" x1="24.6997" y1="74.2737" x2="27.1294" y2="74.2737" gradientUnits="userSpaceOnUse">
<stop stop-color="white"/>
<stop offset="1" stop-color="#F2F2F2"/>
</linearGradient>
<linearGradient id="paint1_linear_102_4849" x1="50.8666" y1="150.235" x2="67.4841" y2="154.886" gradientUnits="userSpaceOnUse">
<stop stop-color="#C2CE91"/>
<stop offset="1" stop-color="#D4DDB2"/>
</linearGradient>
<linearGradient id="paint2_linear_102_4849" x1="50.8666" y1="150.235" x2="67.4841" y2="154.886" gradientUnits="userSpaceOnUse">
<stop stop-color="#C2CE91"/>
<stop offset="1" stop-color="#D4DDB2"/>
</linearGradient>
<linearGradient id="paint3_linear_102_4849" x1="50.8755" y1="150.203" x2="67.2106" y2="154.775" gradientUnits="userSpaceOnUse">
<stop stop-color="#C2CE91"/>
<stop offset="1" stop-color="#D4DDB2"/>
</linearGradient>
<linearGradient id="paint4_linear_102_4849" x1="47.0262" y1="137.098" x2="57.696" y2="140.085" gradientUnits="userSpaceOnUse">
<stop stop-color="#C2CE91"/>
<stop offset="1" stop-color="#D4DDB2"/>
</linearGradient>
<linearGradient id="paint5_linear_102_4849" x1="47.0262" y1="137.098" x2="57.696" y2="140.085" gradientUnits="userSpaceOnUse">
<stop stop-color="#C2CE91"/>
<stop offset="1" stop-color="#D4DDB2"/>
</linearGradient>
<linearGradient id="paint6_linear_102_4849" x1="46.7623" y1="138.041" x2="56.8725" y2="140.871" gradientUnits="userSpaceOnUse">
<stop stop-color="#C2CE91"/>
<stop offset="1" stop-color="#D4DDB2"/>
</linearGradient>
<linearGradient id="paint7_linear_102_4849" x1="49.9377" y1="143.082" x2="65.0896" y2="147.323" gradientUnits="userSpaceOnUse">
<stop stop-color="#C2CE91"/>
<stop offset="1" stop-color="#D4DDB2"/>
</linearGradient>
<linearGradient id="paint8_linear_102_4849" x1="49.9154" y1="143.162" x2="61.4006" y2="146.377" gradientUnits="userSpaceOnUse">
<stop stop-color="#C2CE91"/>
<stop offset="1" stop-color="#D4DDB2"/>
</linearGradient>
<linearGradient id="paint9_linear_102_4849" x1="49.5292" y1="144.542" x2="58.1151" y2="146.945" gradientUnits="userSpaceOnUse">
<stop stop-color="#C2CE91"/>
<stop offset="1" stop-color="#D4DDB2"/>
</linearGradient>
<linearGradient id="paint10_linear_102_4849" x1="4.6009" y1="151.101" x2="51.9007" y2="164.341" gradientUnits="userSpaceOnUse">
<stop stop-color="#F6946C"/>
<stop offset="1" stop-color="#F9B193"/>
</linearGradient>
<linearGradient id="paint11_linear_102_4849" x1="4.60101" y1="151.101" x2="51.2879" y2="164.169" gradientUnits="userSpaceOnUse">
<stop stop-color="#F79D78"/>
<stop offset="1" stop-color="#FBC8B3"/>
</linearGradient>
<linearGradient id="paint12_linear_102_4849" x1="4.6009" y1="151.101" x2="42.4993" y2="161.709" gradientUnits="userSpaceOnUse">
<stop stop-color="#F79D78"/>
<stop offset="1" stop-color="#FBC8B3"/>
</linearGradient>
</defs>
</svg>
