<svg width="61" height="71" viewBox="0 0 61 71" fill="none" xmlns="http://www.w3.org/2000/svg">
<path fill-rule="evenodd" clip-rule="evenodd" d="M50.891 0.949223C50.5532 0.868539 50.2131 0.787299 49.9034 0.639902C49.2807 0.274001 48.8627 1.25795 49.3745 1.64066C49.6474 1.94451 50.0142 2.11905 50.3809 2.2936C50.4321 2.63106 50.5771 2.83922 50.9268 2.90128C51.0015 2.90862 51.0796 2.91849 51.1598 2.92861L51.1598 2.92861C51.5737 2.98086 52.0423 3.04004 52.3853 2.79524C52.7777 2.39054 52.6754 1.71561 52.1807 1.44539C51.8111 1.16899 51.3532 1.05963 50.891 0.949223ZM57.5196 8.23098C56.8629 7.6401 56.0952 7.06604 55.3447 6.60446C55.0888 6.4131 54.6964 6.81781 54.9694 7.12165L54.9694 7.12165C55.737 7.69572 56.3767 8.1741 56.9396 8.89428C57.17 9.15086 57.3473 9.45654 57.5233 9.76013C57.7642 10.1755 58.0028 10.587 58.3724 10.8634C58.6453 11.1673 59.1656 10.8583 59.0974 10.4083C58.978 9.6209 58.1763 8.82185 57.5196 8.23098ZM59.5408 16.3248C59.6262 15.3913 59.5836 14.3621 59.4301 13.3497C59.3789 13.0123 59.9333 12.9282 59.9845 13.2657C60.0312 13.5738 60.1233 13.9471 60.2233 14.3527C60.5615 15.7241 60.9911 17.4659 60.0695 18.316C59.8819 18.5746 59.4981 18.2876 59.464 18.0626C59.4071 17.6876 59.4488 17.2977 59.4906 16.9078C59.5114 16.7129 59.5323 16.5179 59.5408 16.3248ZM54.527 21.5299C54.3465 21.5328 54.164 21.5358 53.9793 21.5403C53.6296 21.4782 53.2714 22.1079 53.749 22.2656C55.7875 22.9923 57.5872 22.144 59.0629 20.6545C59.2676 20.5084 59.1226 20.3003 58.9179 20.4464C57.547 21.4808 56.1142 21.5041 54.527 21.5299ZM45.1088 16.9014C45.7835 17.0473 46.37 17.3852 46.9665 17.7288L46.9666 17.7289C47.1996 17.8631 47.4342 17.9982 47.6761 18.1232C48.6655 18.6636 49.544 19.2209 50.4396 19.8906C50.6954 20.082 50.431 20.5824 50.0643 20.4078C49.5055 19.9899 48.906 19.7002 48.2889 19.4019C48.0583 19.2904 47.8252 19.1777 47.5908 19.0567C47.275 18.8936 46.9316 18.7502 46.5856 18.6056L46.5855 18.6056L46.5855 18.6056C45.9877 18.3559 45.3817 18.1028 44.8956 17.7392C44.5118 17.4522 44.6312 16.7436 45.1088 16.9014ZM42.4226 13.3966C40.7423 12.0403 38.5674 10.4138 36.4521 9.92899C36.1024 9.86693 35.838 10.3673 36.2389 10.7668C36.7506 11.1495 37.3458 11.4173 37.9409 11.6851C38.2385 11.819 38.5361 11.9529 38.8232 12.1011C39.9235 12.6248 41.0408 13.2609 42.0472 13.9138C42.414 14.0884 42.6955 13.7005 42.4226 13.3966ZM25.9525 7.26281C27.8716 6.86027 29.919 7.30412 31.7524 7.70158L31.923 7.73854C32.2727 7.8006 32.2301 8.26736 31.8974 8.31779C29.9271 8.04112 28.008 8.10191 26.106 8.27519C25.5345 8.24676 25.3981 7.34686 25.9525 7.26281ZM20.792 9.88635C20.212 10.5496 19.5382 11.3422 19.0861 12.1012C18.5231 12.877 17.8833 13.8946 18.0198 14.7945C17.9771 15.2612 18.4718 15.5315 18.7703 15.2561C19.2489 14.785 19.5882 14.1142 19.9019 13.4941C20.0411 13.219 20.1753 12.9538 20.3143 12.7205L20.3169 12.7161L20.3169 12.716C20.7681 11.9586 21.2192 11.2013 21.6876 10.5561C22.0459 9.92641 21.2782 9.35235 20.792 9.88635ZM17.9003 18.495C17.832 18.0451 18.608 17.9274 18.6763 18.3774C18.9173 19.3265 19.2272 20.1808 19.5578 21.0922C19.6132 21.2448 19.6691 21.3989 19.7254 21.5554C19.8603 21.9074 20.0383 22.2529 20.2188 22.6033C20.5403 23.2273 20.8699 23.8671 20.9791 24.5874C21.0643 25.1498 20.3223 25.4925 20.015 24.9637C18.7272 23.2027 18.0963 20.5366 17.9003 18.495ZM25.403 30.1902L24.3904 29.1333C23.9895 28.7338 23.3754 29.1721 23.6826 29.7009C24.028 30.1087 24.3498 30.5489 24.6717 30.9891L24.6718 30.9891L24.6718 30.9891L24.6718 30.9892L24.6718 30.9892L24.6719 30.9892L24.6719 30.9893L24.6719 30.9893L24.672 30.9893C24.9939 31.4296 25.3159 31.8698 25.6613 32.2777C25.7351 32.3837 25.8104 32.4994 25.8886 32.6195C26.2711 33.2073 26.7228 33.9015 27.4097 34.084C27.7594 34.146 28.1859 33.9663 28.1177 33.5164C27.9468 32.9064 27.4667 32.3983 27.0006 31.905C26.7919 31.6841 26.586 31.4661 26.4119 31.2433L25.403 30.1902ZM31.1795 36.5045C32.3139 37.2531 33.2265 38.0354 34.0453 38.9469C34.8641 39.8584 35.9728 41.1863 35.9386 42.4573C35.913 43.0365 35.3757 43.2331 34.9748 42.8335C34.5338 42.3731 34.2608 41.7393 33.9933 41.1181C33.8522 40.7904 33.7125 40.4661 33.5505 40.1726C32.9023 38.89 31.9386 37.7703 30.881 36.7799C30.6422 36.7011 30.9237 36.3132 31.1795 36.5045ZM42.0881 49.3501C41.2352 48.2136 40.3055 47.3189 39.1712 46.5703C38.7873 46.2832 38.5229 46.7836 38.7788 46.975C39.8364 47.9654 40.8002 49.0853 41.4313 50.2552C41.6769 50.6783 41.857 51.1481 42.0371 51.6179C42.3073 52.3226 42.5775 53.0274 43.0688 53.5744C43.2308 53.895 43.8961 53.7942 43.9388 53.3274C43.9559 51.944 42.941 50.4866 42.0881 49.3501ZM42.1175 63.5833L42.1182 63.5828C42.7305 63.0972 43.2623 62.6754 43.6653 61.9988C44.0833 61.0148 44.1004 59.6314 43.9469 58.619C43.8957 58.2813 44.4502 58.1973 44.5013 58.5349C45.0471 60.6386 45.1663 64.4177 42.2663 64.7425C41.8058 64.6972 41.4817 64.0559 41.8911 63.7635C41.9677 63.7021 42.0432 63.6422 42.1175 63.5833ZM32.9361 69.1901C32.196 69.2471 31.4559 69.3041 30.7343 69.4825C30.1799 69.5666 29.9666 70.4043 30.572 70.6577C33.6425 71.458 36.6196 69.3957 38.6753 67.2429C38.7691 67.1137 38.6071 66.7931 38.4023 66.939C37.319 68.0238 35.9458 68.6925 34.4103 69.0402C33.9226 69.1141 33.4293 69.1521 32.9361 69.1901ZM20.1497 63.2624C20.5895 63.4354 21.0084 63.6741 21.4463 63.9235L21.4463 63.9235L21.4464 63.9235L21.4464 63.9235C21.8493 64.153 22.2682 64.3916 22.7341 64.5967C23.5785 64.929 24.4998 65.0194 25.4038 64.9975C25.9754 65.0259 26.0948 65.8133 25.5402 65.8974C23.5613 66.3124 20.9087 66.0241 19.51 64.28C18.981 63.7848 19.5612 63.1213 20.1497 63.2624ZM19.3053 61.4341C18.0344 59.7857 16.2434 58.4461 14.5803 57.2023C14.0685 56.8198 13.5994 57.4663 13.7953 58.0118C14.5114 59.0932 15.5934 59.821 16.6596 60.5381C17.3461 61 18.0261 61.4573 18.5974 62.0018C18.9982 62.4013 19.7233 61.9463 19.3053 61.4341ZM6.28076 58.5754C6.51109 57.8501 7.32994 57.2656 7.94408 56.8273C8.6691 56.3722 9.53914 56.1254 10.4262 55.9909C10.9806 55.9069 11.1 56.6941 10.5455 56.7782C9.76936 56.8958 9.1382 57.2218 8.52406 57.6602C8.2723 57.871 8.05684 58.1338 7.84142 58.3966L7.84139 58.3967C7.62606 58.6594 7.41076 58.9221 7.15926 59.1327C6.76686 59.5372 6.12739 59.059 6.28076 58.5754ZM1.98361 58.5342C1.49845 60.3759 1.01211 62.2221 0.293256 63.971C0.0629285 64.6963 0.642895 65.529 1.29096 65.3157C2.66338 64.9966 3.96457 64.9023 5.36233 64.8009C5.41526 64.7971 5.46833 64.7933 5.52155 64.7894C5.75221 64.7544 5.97155 64.735 6.18211 64.7163C6.5789 64.6811 6.94448 64.6487 7.29568 64.5204C7.51727 64.4868 7.62833 64.47 7.72216 64.3407C7.94393 64.3071 8.09748 63.8235 7.84161 63.6322C7.82456 63.5197 7.71367 63.5365 7.71367 63.5365L7.58595 63.441C7.28202 63.1379 6.76237 63.1323 6.32808 63.1275C6.18954 63.126 6.05968 63.1246 5.94829 63.1137C4.82241 63.1693 3.80741 63.2081 2.79241 63.2469C3.56982 61.4404 4.0623 59.5398 4.54888 57.6619C4.69232 57.1084 4.83525 56.5568 4.98481 56.0101C5.35165 54.6887 3.40699 53.8328 2.92928 55.171C2.57883 56.2747 2.28144 57.4036 1.98361 58.5342Z" fill="#161F32"/>
</svg>
