<svg width="56" height="122" viewBox="0 0 56 122" fill="none" xmlns="http://www.w3.org/2000/svg">
<path fill-rule="evenodd" clip-rule="evenodd" d="M55.999 4.03901C55.9936 3.25715 55.7568 2.49438 55.3185 1.84691C54.8801 1.19944 54.2599 0.696256 53.536 0.400792C52.8121 0.105328 52.0169 0.0308229 51.2508 0.186669C50.4846 0.342515 49.7817 0.721738 49.2307 1.27651C48.6797 1.83129 48.3054 2.53678 48.1548 3.30403C48.0042 4.07127 48.0842 4.86592 48.3847 5.58777C48.6851 6.30962 49.1926 6.92635 49.8431 7.36019C50.4935 7.79403 51.2579 8.02555 52.0398 8.02557C52.5617 8.02417 53.0781 7.91991 53.5596 7.71873C54.0411 7.51755 54.4782 7.22341 54.8459 6.85314C55.2136 6.48287 55.5048 6.04376 55.7026 5.56088C55.9005 5.078 56.0012 4.56084 55.999 4.03901ZM55.999 26.7529C55.9936 25.9711 55.7568 25.2083 55.3184 24.5608C54.8801 23.9134 54.2599 23.4102 53.536 23.1147C52.8121 22.8192 52.0169 22.7447 51.2508 22.9006C50.4846 23.0564 49.7817 23.4357 49.2307 23.9904C48.6797 24.5452 48.3054 25.2507 48.1548 26.0179C48.0042 26.7852 48.0842 27.5798 48.3847 28.3017C48.6851 29.0235 49.1926 29.6403 49.8431 30.0741C50.4935 30.5079 51.2579 30.7395 52.0398 30.7395C52.5617 30.7381 53.0781 30.6338 53.5596 30.4326C54.0411 30.2315 54.4782 29.9373 54.8459 29.5671C55.2136 29.1968 55.5048 28.7576 55.7026 28.2748C55.9005 27.7919 56.0012 27.2748 55.999 26.7529ZM55.999 49.4668C55.9936 48.6849 55.7568 47.9222 55.3184 47.2747C54.8801 46.6273 54.2599 46.1241 53.536 45.8286C52.8121 45.5331 52.0169 45.4586 51.2507 45.6145C50.4846 45.7703 49.7817 46.1495 49.2307 46.7043C48.6797 47.2591 48.3054 47.9646 48.1548 48.7318C48.0042 49.4991 48.0842 50.2937 48.3847 51.0156C48.6851 51.7374 49.1926 52.3542 49.8431 52.788C50.4935 53.2219 51.2579 53.4534 52.0398 53.4534C52.5617 53.4522 53.0782 53.3481 53.5598 53.147C54.0414 52.9459 54.4787 52.6517 54.8464 52.2814C55.2142 51.9111 55.5053 51.4719 55.703 50.9889C55.9008 50.506 56.0014 49.9887 55.999 49.4668ZM55.999 72.1807C55.9936 71.3989 55.7568 70.6361 55.3184 69.9886C54.8801 69.3412 54.2599 68.838 53.536 68.5425C52.8121 68.247 52.0169 68.1725 51.2507 68.3284C50.4846 68.4842 49.7817 68.8634 49.2307 69.4182C48.6797 69.973 48.3054 70.6785 48.1548 71.4457C48.0042 72.213 48.0842 73.0076 48.3847 73.7295C48.6851 74.4513 49.1926 75.0681 49.8431 75.5019C50.4935 75.9358 51.2579 76.1673 52.0398 76.1673C52.5616 76.1658 53.078 76.0615 53.5595 75.8603C54.041 75.6591 54.478 75.365 54.8458 74.9947C55.2135 74.6245 55.5046 74.1854 55.7025 73.7025C55.9004 73.2197 56.0011 72.7025 55.999 72.1807ZM55.999 94.8946C55.9941 94.1126 55.7578 93.3496 55.3198 92.7018C54.8818 92.054 54.2618 91.5503 53.5379 91.2544C52.814 90.9586 52.0188 90.8837 51.2524 91.0392C50.486 91.1948 49.7829 91.5738 49.2316 92.1284C48.6804 92.6831 48.3058 93.3886 48.155 94.1559C48.0042 94.9232 48.084 95.718 48.3844 96.44C48.6848 97.1621 49.1923 97.7789 49.8428 98.2129C50.4933 98.6469 51.2578 98.8785 52.0398 98.8785C52.5614 98.877 53.0776 98.7728 53.5589 98.5717C54.0402 98.3707 54.4771 98.0768 54.8448 97.7069C55.2125 97.3369 55.5036 96.8981 55.7017 96.4156C55.8997 95.933 56.0007 95.4162 55.999 94.8946ZM48.0806 117.609C48.086 118.39 48.3228 119.153 48.7611 119.801C49.1995 120.448 49.8197 120.951 50.5436 121.247C51.2675 121.542 52.0626 121.617 52.8288 121.461C53.595 121.305 54.2979 120.926 54.8489 120.371C55.3999 119.816 55.7742 119.111 55.9248 118.344C56.0754 117.576 55.9954 116.782 55.6949 116.06C55.3945 115.338 54.887 114.721 54.2365 114.287C53.586 113.853 52.8217 113.622 52.0398 113.622C51.5181 113.624 51.0018 113.728 50.5205 113.93C50.0392 114.131 49.6022 114.425 49.2345 114.795C48.8669 115.165 48.5758 115.604 48.3778 116.087C48.1798 116.57 48.0788 117.087 48.0806 117.609ZM32.0275 4.03901C32.022 3.25714 31.7852 2.49438 31.3469 1.84691C30.9086 1.19944 30.2884 0.696255 29.5645 0.400791C28.8406 0.105327 28.0454 0.0308218 27.2792 0.186668C26.513 0.342514 25.8101 0.721737 25.2592 1.27651C24.7082 1.83129 24.3338 2.53678 24.1833 3.30402C24.0327 4.07127 24.1127 4.86592 24.4132 5.58777C24.7136 6.30962 25.2211 6.92634 25.8715 7.36019C26.522 7.79403 27.2864 8.02555 28.0683 8.02556C28.59 8.02377 29.1063 7.91924 29.5876 7.71793C30.0689 7.51661 30.5059 7.22246 30.8735 6.85227C31.2412 6.48208 31.5323 6.04311 31.7303 5.56041C31.9283 5.07771 32.0293 4.56073 32.0275 4.03901ZM32.0275 26.7529C32.022 25.9711 31.7852 25.2083 31.3469 24.5608C30.9086 23.9134 30.2884 23.4102 29.5645 23.1147C28.8406 22.8192 28.0454 22.7447 27.2792 22.9006C26.513 23.0564 25.8101 23.4357 25.2592 23.9904C24.7082 24.5452 24.3338 25.2507 24.1833 26.0179C24.0327 26.7852 24.1127 27.5798 24.4131 28.3017C24.7136 29.0235 25.2211 29.6403 25.8715 30.0741C26.522 30.5079 27.2864 30.7395 28.0683 30.7395C28.59 30.7377 29.1063 30.6332 29.5876 30.4318C30.0689 30.2305 30.5059 29.9364 30.8735 29.5662C31.2412 29.196 31.5323 28.757 31.7303 28.2743C31.9283 27.7916 32.0293 27.2746 32.0275 26.7529ZM32.0275 49.4668C32.022 48.6849 31.7852 47.9222 31.3469 47.2747C30.9086 46.6273 30.2884 46.124 29.5645 45.8286C28.8406 45.5331 28.0454 45.4586 27.2792 45.6145C26.513 45.7703 25.8101 46.1495 25.2592 46.7043C24.7082 47.2591 24.3338 47.9646 24.1833 48.7318C24.0327 49.4991 24.1127 50.2937 24.4131 51.0156C24.7136 51.7374 25.2211 52.3542 25.8715 52.788C26.522 53.2219 27.2864 53.4534 28.0683 53.4534C28.5901 53.452 29.1065 53.3477 29.5881 53.1466C30.0696 52.9454 30.5067 52.6512 30.8744 52.281C31.2421 51.9107 31.5332 51.4716 31.7311 50.9887C31.9289 50.5058 32.0297 49.9886 32.0275 49.4668ZM32.0275 72.1807C32.022 71.3989 31.7852 70.6361 31.3469 69.9886C30.9086 69.3412 30.2884 68.838 29.5645 68.5425C28.8406 68.247 28.0454 68.1725 27.2792 68.3284C26.513 68.4842 25.8101 68.8634 25.2592 69.4182C24.7082 69.973 24.3338 70.6785 24.1833 71.4457C24.0327 72.213 24.1127 73.0076 24.4131 73.7295C24.7136 74.4513 25.2211 75.0681 25.8715 75.5019C26.522 75.9358 27.2864 76.1673 28.0683 76.1673C28.59 76.1655 29.1063 76.061 29.5876 75.8596C30.0689 75.6583 30.5059 75.3642 30.8735 74.994C31.2412 74.6238 31.5323 74.1848 31.7303 73.7021C31.9283 73.2194 32.0293 72.7024 32.0275 72.1807ZM32.0275 94.8946C32.0226 94.1126 31.7862 93.3496 31.3483 92.7018C30.9103 92.054 30.2902 91.5503 29.5664 91.2544C28.8425 90.9586 28.0472 90.8837 27.2809 91.0392C26.5145 91.1948 25.8113 91.5738 25.2601 92.1284C24.7089 92.6831 24.3342 93.3886 24.1835 94.1559C24.0327 94.9232 24.1125 95.718 24.4129 96.44C24.7133 97.1621 25.2207 97.7789 25.8712 98.2129C26.5218 98.6469 27.2863 98.8785 28.0683 98.8785C29.1214 98.8749 30.1301 98.4532 30.8726 97.7061C31.615 96.9591 32.0304 95.9478 32.0275 94.8946ZM32.0275 117.609C32.0226 116.827 31.7862 116.064 31.3483 115.416C30.9103 114.768 30.2902 114.264 29.5664 113.968C28.8425 113.672 28.0472 113.598 27.2809 113.753C26.5145 113.909 25.8113 114.288 25.2601 114.842C24.7089 115.397 24.3342 116.102 24.1835 116.87C24.0327 117.637 24.1125 118.432 24.4129 119.154C24.7132 119.876 25.2207 120.493 25.8712 120.927C26.5218 121.361 27.2863 121.592 28.0683 121.592C29.1214 121.589 30.1301 121.167 30.8726 120.42C31.615 119.673 32.0304 118.662 32.0275 117.609ZM8.05593 4.03901C8.05079 3.25687 7.81418 2.49375 7.37593 1.8459C6.93769 1.19806 6.31744 0.6945 5.59338 0.398683C4.86933 0.102865 4.07388 0.0280556 3.30737 0.18369C2.54085 0.339324 1.83759 0.718423 1.28624 1.2732C0.734894 1.82798 0.36018 2.53358 0.209305 3.30105C0.0584295 4.06851 0.138141 4.86346 0.438446 5.58566C0.73875 6.30786 1.24618 6.925 1.89674 7.35921C2.54729 7.79343 3.31184 8.02528 4.09399 8.02556C4.61594 8.02413 5.13251 7.91985 5.61415 7.71869C6.09579 7.51754 6.5331 7.22346 6.90103 6.85324C7.26896 6.48301 7.56033 6.04392 7.75849 5.56104C7.95665 5.07816 8.05773 4.56096 8.05593 4.03901ZM8.05593 26.7529C8.05079 25.9708 7.81418 25.2077 7.37593 24.5598C6.93769 23.912 6.31744 23.4084 5.59338 23.1126C4.86933 22.8167 4.07387 22.7419 3.30736 22.8976C2.54085 23.0532 1.83759 23.4323 1.28624 23.9871C0.734893 24.5419 0.360179 25.2475 0.209304 26.015C0.0584286 26.7824 0.13814 27.5774 0.438445 28.2996C0.738749 29.0218 1.24618 29.6389 1.89673 30.0731C2.54729 30.5073 3.31183 30.7392 4.09399 30.7395C4.61594 30.738 5.13251 30.6338 5.61415 30.4326C6.09579 30.2315 6.5331 29.9374 6.90103 29.5672C7.26896 29.1969 7.56033 28.7578 7.75849 28.2749C7.95665 27.792 8.05773 27.2749 8.05593 26.7529ZM8.05593 49.4668C8.05079 48.6847 7.81418 47.9216 7.37593 47.2737C6.93769 46.6259 6.31743 46.1223 5.59338 45.8265C4.86933 45.5307 4.07387 45.4559 3.30736 45.6115C2.54085 45.7671 1.83759 46.1462 1.28624 46.701C0.734892 47.2558 0.360178 47.9614 0.209303 48.7289C0.0584276 49.4963 0.138139 50.2913 0.438444 51.0135C0.738748 51.7357 1.24618 52.3528 1.89673 52.787C2.54729 53.2212 3.31183 53.4531 4.09398 53.4534C4.61603 53.4523 5.13276 53.3482 5.61455 53.1472C6.09634 52.9461 6.53373 52.6521 6.90173 52.2818C7.26973 51.9115 7.56111 51.4723 7.75916 50.9892C7.95721 50.5062 8.05805 49.9888 8.05593 49.4668ZM8.05592 72.1807C8.05079 71.3986 7.81418 70.6355 7.37593 69.9876C6.93769 69.3398 6.31743 68.8362 5.59338 68.5404C4.86932 68.2446 4.07387 68.1698 3.30736 68.3254C2.54085 68.481 1.83759 68.8601 1.28624 69.4149C0.734891 69.9697 0.360177 70.6753 0.209302 71.4428C0.0584266 72.2102 0.138138 73.0052 0.438443 73.7274C0.738747 74.4496 1.24618 75.0667 1.89673 75.5009C2.54729 75.9351 3.31183 76.167 4.09398 76.1673C4.61594 76.1659 5.13251 76.0616 5.61415 75.8604C6.09579 75.6593 6.53309 75.3652 6.90103 74.9949C7.26896 74.6247 7.56033 74.1856 7.75849 73.7028C7.95665 73.2199 8.05773 72.7027 8.05592 72.1807ZM8.05592 94.8946C8.05133 94.1124 7.81515 93.349 7.37724 92.7008C6.93932 92.0526 6.31926 91.5486 5.59525 91.2523C4.87124 90.9561 4.07573 90.8809 3.30903 91.0362C2.54234 91.1916 1.83879 91.5704 1.28717 92.1251C0.735554 92.6798 0.360565 93.3854 0.209469 94.1529C0.0583722 94.9205 0.137947 95.7156 0.438175 96.4379C0.738403 97.1603 1.24581 97.7776 1.89643 98.2119C2.54705 98.6463 3.31171 98.8782 4.09398 98.8785C4.61571 98.877 5.13205 98.7728 5.61351 98.5718C6.09497 98.3709 6.53216 98.077 6.90005 97.7071C7.26796 97.3372 7.55936 96.8984 7.75769 96.4158C7.95601 95.9333 8.05737 95.4164 8.05592 94.8946ZM8.05592 117.609C8.05133 116.826 7.81515 116.063 7.37723 115.415C6.93931 114.766 6.31926 114.262 5.59525 113.966C4.87124 113.67 4.07572 113.595 3.30903 113.75C2.54234 113.905 1.83879 114.284 1.28717 114.839C0.735553 115.394 0.360564 116.099 0.209468 116.867C0.0583712 117.634 0.137946 118.429 0.438174 119.152C0.738402 119.874 1.24581 120.491 1.89643 120.926C2.54705 121.36 3.31171 121.592 4.09398 121.592C5.14752 121.589 6.15664 121.168 6.89955 120.42C7.64246 119.673 8.0584 118.662 8.05592 117.609Z" fill="#00924B"/>
</svg>
