<svg width="152" height="56" viewBox="0 0 152 56" fill="none" xmlns="http://www.w3.org/2000/svg">
<path fill-rule="evenodd" clip-rule="evenodd" d="M34.3802 4.25068e-05C33.5979 0.00545345 32.8347 0.242257 32.1869 0.680573C31.5391 1.11889 31.0357 1.73909 30.7401 2.46299C30.4444 3.1869 30.3699 3.98208 30.5258 4.74827C30.6818 5.51446 31.0612 6.21736 31.6162 6.76832C32.1713 7.31929 32.8772 7.69367 33.6448 7.84422C34.4125 7.99478 35.2075 7.9148 35.9297 7.61435C36.652 7.3139 37.269 6.80643 37.7031 6.15596C38.1371 5.50548 38.3688 4.74109 38.3688 3.95921C38.3674 3.43737 38.2631 2.92095 38.0618 2.43944C37.8605 1.95794 37.5662 1.52082 37.1958 1.1531C36.8253 0.785379 36.386 0.494261 35.9028 0.29641C35.4197 0.0985581 34.9023 -0.00215637 34.3802 4.25068e-05ZM57.1059 4.25068e-05C56.3237 0.00545345 55.5605 0.242257 54.9127 0.680573C54.2649 1.11889 53.7614 1.73909 53.4658 2.46299C53.1702 3.1869 53.0956 3.98208 53.2516 4.74827C53.4075 5.51446 53.7869 6.21736 54.342 6.76832C54.8971 7.31929 55.6029 7.69367 56.3706 7.84422C57.1382 7.99478 57.9333 7.9148 58.6555 7.61435C59.3777 7.3139 59.9948 6.80643 60.4288 6.15596C60.8629 5.50548 61.0945 4.74109 61.0946 3.95921C61.0932 3.43737 60.9888 2.92095 60.7876 2.43944C60.5863 1.95794 60.292 1.52082 59.9215 1.1531C59.5511 0.785379 59.1117 0.494261 58.6286 0.29641C58.1454 0.0985581 57.628 -0.00215637 57.1059 4.25068e-05ZM79.8316 4.25068e-05C79.0494 0.00545345 78.2862 0.242257 77.6384 0.680573C76.9906 1.11889 76.4871 1.73909 76.1915 2.46299C75.8959 3.1869 75.8214 3.98208 75.9773 4.74827C76.1332 5.51446 76.5126 6.21736 77.0677 6.76832C77.6228 7.31929 78.3286 7.69367 79.0963 7.84422C79.8639 7.99478 80.659 7.9148 81.3812 7.61435C82.1035 7.3139 82.7205 6.80643 83.1546 6.15596C83.5887 5.50548 83.8203 4.74109 83.8203 3.95921C83.8191 3.43731 83.715 2.92078 83.5138 2.43918C83.3125 1.95757 83.0182 1.52037 82.6477 1.1526C82.2772 0.784834 81.8378 0.493749 81.3546 0.295975C80.8713 0.0982003 80.3538 -0.00237322 79.8316 4.25068e-05V4.25068e-05ZM102.557 4.25068e-05C101.775 0.00545345 101.012 0.242257 100.364 0.680573C99.7164 1.11889 99.2129 1.73909 98.9173 2.46299C98.6217 3.1869 98.5471 3.98208 98.703 4.74827C98.859 5.51446 99.2384 6.21736 99.7935 6.76832C100.349 7.31929 101.054 7.69367 101.822 7.84422C102.59 7.99478 103.385 7.9148 104.107 7.61435C104.829 7.3139 105.446 6.80643 105.88 6.15596C106.314 5.50548 106.546 4.74109 106.546 3.95921C106.545 3.43739 106.44 2.92098 106.239 2.43951C106.038 1.95804 105.743 1.52098 105.373 1.15327C105.002 0.78556 104.563 0.494421 104.08 0.296543C103.597 0.0986662 103.079 -0.00208416 102.557 4.25068e-05V4.25068e-05ZM125.283 4.25068e-05C124.501 0.00491309 123.737 0.241245 123.089 0.679235C122.441 1.11723 121.937 1.73726 121.641 2.46112C121.345 3.18498 121.27 3.98026 121.426 4.74663C121.581 5.51301 121.961 6.21615 122.516 6.76739C123.07 7.31863 123.776 7.69325 124.544 7.84402C125.312 7.9948 126.107 7.91499 126.829 7.61462C127.552 7.31424 128.169 6.80676 128.603 6.15623C129.037 5.50569 129.269 4.74121 129.269 3.95921C129.268 3.43762 129.163 2.92144 128.962 2.44015C128.761 1.95885 128.467 1.52191 128.097 1.15424C127.727 0.786566 127.288 0.495385 126.805 0.297346C126.322 0.0993072 125.805 -0.00172328 125.283 4.25068e-05V4.25068e-05ZM148.009 7.91841C148.791 7.913 149.554 7.67619 150.202 7.23788C150.85 6.79956 151.353 6.17936 151.649 5.45546C151.945 4.73155 152.019 3.93637 151.863 3.17018C151.707 2.40399 151.328 1.70109 150.773 1.15013C150.218 0.599161 149.512 0.224785 148.744 0.0742263C147.977 -0.076332 147.182 0.00365309 146.459 0.304102C145.737 0.604552 145.12 1.11202 144.686 1.76249C144.252 2.41297 144.02 3.17733 144.02 3.95921C144.022 4.48094 144.127 4.99721 144.328 5.47854C144.529 5.95986 144.824 6.39683 145.194 6.76448C145.565 7.13212 146.004 7.42325 146.487 7.62124C146.97 7.81923 147.487 7.92021 148.009 7.91841V7.91841ZM34.3802 23.9716C33.5979 23.977 32.8347 24.2138 32.1869 24.6521C31.5391 25.0904 31.0357 25.7106 30.7401 26.4345C30.4444 27.1584 30.3699 27.9536 30.5258 28.7198C30.6818 29.486 31.0612 30.1889 31.6162 30.7399C32.1713 31.2908 32.8772 31.6652 33.6448 31.8157C34.4125 31.9663 35.2075 31.8863 35.9297 31.5859C36.652 31.2854 37.269 30.778 37.7031 30.1275C38.1371 29.477 38.3688 28.7126 38.3688 27.9308C38.367 27.409 38.2624 26.8928 38.061 26.4114C37.8596 25.9301 37.5653 25.4931 37.1949 25.1255C36.8245 24.7579 36.3853 24.4667 35.9024 24.2687C35.4194 24.0707 34.9022 23.9698 34.3802 23.9716V23.9716ZM57.1059 23.9716C56.3237 23.977 55.5605 24.2138 54.9127 24.6521C54.2649 25.0904 53.7614 25.7106 53.4658 26.4345C53.1702 27.1584 53.0956 27.9536 53.2516 28.7198C53.4075 29.486 53.7869 30.1889 54.342 30.7399C54.8971 31.2908 55.6029 31.6652 56.3706 31.8157C57.1382 31.9663 57.9333 31.8863 58.6555 31.5859C59.3777 31.2854 59.9948 30.778 60.4288 30.1275C60.8629 29.477 61.0945 28.7126 61.0946 27.9308C61.0928 27.409 60.9882 26.8928 60.7868 26.4114C60.5853 25.9301 60.291 25.4931 59.9207 25.1255C59.5503 24.7579 59.1111 24.4667 58.6281 24.2687C58.1452 24.0707 57.6279 23.9698 57.1059 23.9716V23.9716ZM79.8316 23.9716C79.0494 23.977 78.2862 24.2138 77.6384 24.6521C76.9906 25.0904 76.4871 25.7106 76.1915 26.4345C75.8959 27.1584 75.8214 27.9536 75.9773 28.7198C76.1332 29.486 76.5126 30.1889 77.0677 30.7399C77.6228 31.2908 78.3286 31.6652 79.0963 31.8157C79.8639 31.9663 80.659 31.8863 81.3812 31.5859C82.1035 31.2854 82.7205 30.778 83.1546 30.1275C83.5887 29.477 83.8203 28.7126 83.8203 27.9308C83.8189 27.4089 83.7146 26.8925 83.5133 26.411C83.312 25.9295 83.0177 25.4924 82.6473 25.1246C82.2768 24.7569 81.8374 24.4658 81.3543 24.2679C80.8712 24.0701 80.3538 23.9694 79.8316 23.9716V23.9716ZM102.557 23.9716C101.775 23.977 101.012 24.2138 100.364 24.6521C99.7164 25.0904 99.2129 25.7106 98.9173 26.4345C98.6217 27.1584 98.5471 27.9536 98.703 28.7198C98.859 29.486 99.2384 30.1889 99.7935 30.7399C100.349 31.2908 101.054 31.6652 101.822 31.8157C102.59 31.9663 103.385 31.8863 104.107 31.5859C104.829 31.2854 105.446 30.778 105.88 30.1275C106.314 29.477 106.546 28.7126 106.546 27.9308C106.544 27.409 106.44 26.8928 106.238 26.4114C106.037 25.9301 105.743 25.4931 105.372 25.1255C105.002 24.7579 104.563 24.4667 104.08 24.2687C103.597 24.0707 103.079 23.9698 102.557 23.9716V23.9716ZM125.283 23.9716C124.501 23.9764 123.737 24.2128 123.089 24.6508C122.441 25.0888 121.937 25.7088 121.641 26.4326C121.345 27.1565 121.27 27.9518 121.426 28.7182C121.581 29.4845 121.961 30.1877 122.516 30.7389C123.07 31.2902 123.776 31.6648 124.544 31.8155C125.312 31.9663 126.107 31.8865 126.829 31.5861C127.552 31.2858 128.169 30.7783 128.603 30.1278C129.037 29.4772 129.269 28.7128 129.269 27.9308C129.265 26.8776 128.844 25.8689 128.096 25.1265C127.349 24.3841 126.337 23.9687 125.283 23.9716V23.9716ZM148.009 23.9716C147.227 23.9764 146.463 24.2128 145.815 24.6508C145.167 25.0888 144.663 25.7088 144.367 26.4326C144.071 27.1565 143.996 27.9518 144.151 28.7182C144.307 29.4845 144.686 30.1877 145.241 30.7389C145.796 31.2902 146.502 31.6648 147.27 31.8155C148.038 31.9663 148.833 31.8865 149.555 31.5861C150.278 31.2858 150.895 30.7783 151.329 30.1278C151.763 29.4772 151.995 28.7128 151.995 27.9308C151.991 26.8776 151.569 25.8689 150.822 25.1265C150.074 24.3841 149.063 23.9687 148.009 23.9716V23.9716ZM34.3802 47.9431C33.5976 47.9482 32.8341 48.1848 32.1859 48.6231C31.5377 49.0613 31.0339 49.6816 30.7379 50.4056C30.442 51.1297 30.3671 51.9251 30.5228 52.6917C30.6786 53.4582 31.0579 54.1614 31.6129 54.7128C32.168 55.2641 32.874 55.6388 33.6418 55.7897C34.4097 55.9406 35.205 55.8609 35.9276 55.5606C36.6502 55.2603 37.2677 54.7528 37.7021 54.1023C38.1366 53.4517 38.3685 52.6872 38.3688 51.905C38.3674 51.3831 38.263 50.8665 38.0618 50.3849C37.8605 49.9032 37.5663 49.4659 37.1959 49.098C36.8255 48.7301 36.3861 48.4387 35.903 48.2405C35.4199 48.0424 34.9024 47.9413 34.3802 47.9431V47.9431ZM57.1059 47.9431C56.3234 47.9482 55.5599 48.1848 54.9117 48.6231C54.2635 49.0613 53.7596 49.6816 53.4637 50.4056C53.1677 51.1297 53.0928 51.9251 53.2486 52.6917C53.4043 53.4582 53.7836 54.1614 54.3387 54.7128C54.8937 55.2641 55.5997 55.6388 56.3676 55.7897C57.1354 55.9406 57.9308 55.8609 58.6534 55.5606C59.376 55.2603 59.9934 54.7528 60.4278 54.1023C60.8623 53.4517 61.0943 52.6872 61.0946 51.905C61.0931 51.3831 60.9888 50.8665 60.7875 50.3849C60.5863 49.9032 60.292 49.4659 59.9216 49.098C59.5512 48.7301 59.1119 48.4387 58.6287 48.2405C58.1456 48.0424 57.6282 47.9413 57.1059 47.9431V47.9431ZM79.8316 47.9431C79.0491 47.9482 78.2856 48.1848 77.6374 48.6231C76.9892 49.0613 76.4854 49.6816 76.1894 50.4056C75.8935 51.1297 75.8186 51.9251 75.9743 52.6917C76.13 53.4582 76.5093 54.1614 77.0644 54.7128C77.6195 55.2641 78.3255 55.6388 79.0933 55.7897C79.8612 55.9406 80.6566 55.8609 81.3791 55.5606C82.1017 55.2603 82.7191 54.7528 83.1536 54.1023C83.588 53.4517 83.82 52.6872 83.8203 51.905C83.8192 51.383 83.7151 50.8663 83.514 50.3845C83.3128 49.9027 83.0186 49.4653 82.6481 49.0973C82.2776 48.7293 81.8382 48.4379 81.3549 48.2399C80.8716 48.0418 80.354 47.941 79.8316 47.9431V47.9431ZM102.557 47.9431C101.775 47.9482 101.011 48.1848 100.363 48.6231C99.715 49.0613 99.2111 49.6816 98.9152 50.4056C98.6192 51.1297 98.5444 51.9251 98.7001 52.6917C98.8558 53.4582 99.2351 54.1614 99.7902 54.7128C100.345 55.2641 101.051 55.6388 101.819 55.7897C102.587 55.9406 103.382 55.8609 104.105 55.5606C104.827 55.2603 105.445 54.7528 105.879 54.1023C106.314 53.4517 106.546 52.6872 106.546 51.905C106.545 51.3831 106.44 50.8665 106.239 50.3849C106.038 49.9032 105.744 49.4659 105.373 49.098C105.003 48.7301 104.563 48.4387 104.08 48.2405C103.597 48.0424 103.08 47.9413 102.557 47.9431V47.9431ZM125.283 47.9431C124.5 47.9477 123.737 48.1839 123.088 48.6218C122.44 49.0597 121.935 49.6798 121.639 50.4038C121.343 51.1278 121.267 51.9233 121.423 52.69C121.578 53.4567 121.957 54.1602 122.512 54.7118C123.067 55.2635 123.773 55.6385 124.541 55.7896C125.309 55.9406 126.105 55.8611 126.827 55.5608C127.55 55.2606 128.168 54.7532 128.602 54.1026C129.037 53.452 129.269 52.6873 129.269 51.905C129.268 51.3833 129.163 50.867 128.962 50.3855C128.761 49.904 128.467 49.4669 128.097 49.099C127.727 48.7311 127.288 48.4397 126.805 48.2413C126.322 48.043 125.805 47.9417 125.283 47.9431V47.9431ZM148.009 47.9431C147.226 47.9477 146.462 48.1839 145.814 48.6218C145.165 49.0597 144.661 49.6798 144.365 50.4038C144.068 51.1278 143.993 51.9233 144.148 52.69C144.304 53.4567 144.683 54.1602 145.238 54.7118C145.793 55.2635 146.499 55.6385 147.267 55.7896C148.035 55.9406 148.83 55.8611 149.553 55.5608C150.276 55.2606 150.893 54.7532 151.328 54.1026C151.762 53.452 151.995 52.6873 151.995 51.905C151.991 50.8515 151.57 49.8424 150.822 49.0995C150.075 48.3566 149.063 47.9406 148.009 47.9431V47.9431Z" fill="#00924B"/>
</svg>
